<svg width="290" height="284" viewBox="0 0 290 284" fill="none" xmlns="http://www.w3.org/2000/svg">
<path d="M98.2636 94.021C90.7236 87.9264 82.9748 81.6216 73.7992 77.9977C68.7113 76.0156 63.2732 75.0393 57.7982 75.1251C52.3232 75.2109 46.9197 76.3571 41.8992 78.4976C41.8369 78.5239 41.7665 78.525 41.7034 78.5005C41.6403 78.476 41.5897 78.4279 41.5628 78.3669C41.5359 78.3059 41.5348 78.2369 41.5598 78.1751C41.5848 78.1134 41.6339 78.0638 41.6962 78.0375C59.0962 70.2672 76.0206 74.8908 90.8048 85.6771C107.451 97.8209 122.612 114.747 145.481 110.669C145.916 110.59 146.119 111.237 145.69 111.407C128.058 117.207 111.006 104.285 98.2636 94.021Z" fill="#DBDBDB"/>
<path d="M106.656 105.864C93.8266 100.661 80.5562 98.6503 66.9204 102.172C66.6884 102.234 66.5782 101.837 66.8102 101.769C78.184 98.4856 89.7434 98.4856 101.03 102.183C113.715 106.347 125.657 113.969 139.571 112.288C139.619 112.281 139.667 112.293 139.706 112.321C139.745 112.35 139.77 112.392 139.777 112.438C139.784 112.485 139.772 112.533 139.743 112.57C139.714 112.608 139.671 112.633 139.623 112.64C127.913 115.105 117.201 110.141 106.656 105.864Z" fill="#DBDBDB"/>
<path d="M116 105.148C105.589 101.644 98.6696 92.6522 93.2988 83.7403C86.4606 72.3803 79.199 62.5766 65.598 58.8051C65.3312 58.7312 65.3892 58.3109 65.6676 58.3734C77.0414 61.0259 85.2078 67.7738 91.3442 77.3446C94.6386 82.4566 97.4516 87.9378 101.309 92.6806C105.514 97.8721 110.652 101.201 116.325 104.609C116.667 104.824 116.331 105.256 116 105.148Z" fill="#DBDBDB"/>
<path d="M118.5 107.414C118.5 107.414 116.145 90.028 108.46 85.768C100.775 81.508 118.5 107.414 118.5 107.414Z" fill="#DBDBDB"/>
<path d="M82.8704 82.4281C82.8704 82.4281 67.7556 91.8342 59.5022 88.8181C51.2488 85.802 82.8704 82.4281 82.8704 82.4281Z" fill="#DBDBDB"/>
<path d="M245.572 143.284C245.899 144.189 246.136 145.123 246.28 146.072C246.283 146.114 246.283 146.156 246.28 146.197C246.404 147.009 246.446 147.831 246.407 148.651C246.824 147.933 247.291 147.244 247.805 146.589C250.554 142.988 257.601 135.951 270.21 136.536C271.753 136.615 269.804 124.562 260.246 121.552C258.193 120.91 252.022 127.459 252.022 127.459C252.022 127.459 251.732 118.712 249.261 118.127C246.79 117.542 237.661 118.632 230.77 126.471C230.04 127.323 242.191 133.832 245.572 143.284Z" fill="#EBEBEB"/>
<path d="M249.098 136.684C247.958 139.793 247.022 142.971 246.297 146.198C246.421 147.009 246.464 147.831 246.425 148.651C246.841 147.933 247.308 147.244 247.822 146.589C249.348 142.375 251.65 138.637 255.768 135.797C255.844 135.741 255.768 135.616 255.687 135.661C251.761 138.018 249.127 141.58 247.393 145.601C247.921 142.63 248.518 139.677 249.255 136.735C249.29 136.627 249.127 136.587 249.098 136.684Z" fill="white"/>
<path d="M243.6 133.588C244.849 136.678 245.525 139.961 245.595 143.284C245.922 144.189 246.159 145.123 246.303 146.073C246.378 141.768 245.532 137.496 243.82 133.531C243.745 133.395 243.519 133.48 243.6 133.588Z" fill="white"/>
<path d="M212.553 59.64C211.759 60.2062 210.91 60.6933 210.018 61.0941C209.98 61.1186 209.939 61.1377 209.896 61.1509C209.137 61.4933 208.347 61.7652 207.536 61.9631C208.356 62.1493 209.163 62.3923 209.948 62.6902C214.252 64.2579 223.132 68.8984 226.113 80.9059C226.473 82.3827 237.713 77.1458 237.98 67.3194C238.032 65.2064 229.86 61.2588 229.86 61.2588C229.86 61.2588 238.345 58.5211 238.223 56.0332C238.102 53.5454 234.448 45.2412 224.837 41.0153C223.81 40.5609 220.858 53.8123 212.553 59.64Z" fill="#EBEBEB"/>
<path d="M220.011 61.1054C216.642 60.9141 213.263 60.9331 209.896 61.1622C209.137 61.5046 208.347 61.7765 207.536 61.9744C208.356 62.1606 209.163 62.4036 209.948 62.7015C214.507 62.9457 218.84 64.0476 222.761 67.1205C222.776 67.1356 222.797 67.144 222.819 67.144C222.84 67.144 222.861 67.1356 222.877 67.1205C222.892 67.1054 222.901 67.085 222.901 67.0637C222.901 67.0424 222.892 67.022 222.877 67.0069C219.46 63.9851 215.232 62.514 210.801 62.0199C213.858 61.6791 216.926 61.4064 220.011 61.2701C220.03 61.2653 220.046 61.2546 220.058 61.2397C220.07 61.2248 220.076 61.2065 220.076 61.1877C220.076 61.1689 220.07 61.1507 220.058 61.1358C220.046 61.1209 220.03 61.1102 220.011 61.1054Z" fill="white"/>
<path d="M221.485 55.0449C218.813 57.092 215.788 58.6523 212.553 59.6514C211.759 60.2176 210.91 60.7047 210.018 61.1054C214.261 59.9652 218.213 57.9664 221.618 55.238C221.728 55.1528 221.601 54.954 221.485 55.0449Z" fill="white"/>
<path d="M108.657 217.374C108.731 217.891 108.752 218.414 108.721 218.936C108.723 218.958 108.723 218.981 108.721 219.004C108.699 219.447 108.631 219.886 108.518 220.316C108.818 219.979 109.141 219.664 109.487 219.373C111.229 217.853 113.333 216.786 115.606 216.268C117.878 215.75 120.247 215.798 122.496 216.408C123.308 216.612 123.615 210.007 118.871 207.388C117.856 206.82 113.848 209.66 113.848 209.66C113.848 209.66 114.672 204.991 113.425 204.412C112.178 203.832 107.201 203.441 102.683 206.871C102.19 207.246 107.915 212 108.657 217.374Z" fill="#EBEBEB"/>
<path d="M111.261 214.25C110.31 215.78 109.46 217.368 108.715 219.004C108.693 219.447 108.625 219.886 108.512 220.316C108.812 219.979 109.135 219.664 109.481 219.373C110.705 217.216 112.607 215.503 114.904 214.488C114.95 214.488 114.904 214.392 114.875 214.409C112.61 215.264 110.68 216.801 109.365 218.799C109.974 217.277 110.623 215.772 111.343 214.295C111.349 214.285 111.35 214.272 111.347 214.26C111.344 214.249 111.336 214.239 111.325 214.233C111.314 214.227 111.302 214.225 111.29 214.228C111.278 214.231 111.268 214.239 111.261 214.25Z" fill="white"/>
<path d="M108.675 212.017C109.003 213.788 109.003 215.603 108.675 217.374C108.748 217.891 108.77 218.414 108.738 218.936C109.256 216.658 109.283 214.3 108.82 212.012C108.791 211.932 108.657 211.938 108.675 212.017Z" fill="white"/>
<path d="M223.335 167.651C222.808 167.582 222.289 167.462 221.786 167.293H221.717C221.287 167.144 220.873 166.954 220.481 166.725C220.732 167.099 220.955 167.49 221.148 167.895C222.169 169.949 222.647 172.222 222.54 174.504C222.433 176.786 221.743 179.005 220.533 180.959C220.116 181.669 226.531 183.737 230.393 179.976C231.217 179.164 229.523 174.632 229.523 174.632C229.523 174.632 233.902 176.665 234.801 175.643C235.7 174.62 237.435 170.031 235.283 164.851C235.039 164.283 228.822 168.401 223.335 167.651Z" fill="#EBEBEB"/>
<path d="M225.707 170.968C224.458 169.657 223.126 168.426 221.717 167.282C221.287 167.133 220.873 166.942 220.481 166.714C220.732 167.087 220.955 167.478 221.148 167.884C222.944 169.613 224.117 171.868 224.489 174.308C224.489 174.359 224.576 174.359 224.576 174.308C224.346 171.942 223.355 169.708 221.746 167.929C223.074 168.912 224.379 169.929 225.643 171.008C225.69 171.059 225.748 170.968 225.707 170.968Z" fill="white"/>
<path d="M228.601 169.116C226.771 168.939 224.987 168.442 223.335 167.651C222.808 167.582 222.289 167.462 221.786 167.293C223.885 168.397 226.196 169.059 228.572 169.236C228.653 169.264 228.682 169.122 228.601 169.116Z" fill="white"/>
<path d="M169.424 59.6741C169.929 59.8352 170.416 60.0445 170.88 60.2989L170.943 60.333C171.338 60.55 171.711 60.8029 172.057 61.0884C171.879 60.6772 171.732 60.2538 171.616 59.8218C170.991 57.6201 170.938 55.3 171.464 53.0735C171.99 50.847 173.077 48.785 174.626 47.0758C175.172 46.4567 169.238 43.2873 164.766 46.309C163.804 46.9622 164.633 51.7221 164.633 51.7221C164.633 51.7221 160.706 48.9502 159.628 49.7909C158.549 50.6315 156.02 54.8461 157.18 60.3273C157.29 60.918 164.14 57.9701 169.424 59.6741Z" fill="#EBEBEB"/>
<path d="M167.695 56.0048C168.682 57.5143 169.767 58.96 170.943 60.3329C171.338 60.5499 171.711 60.8029 172.057 61.0884C171.879 60.6771 171.732 60.2538 171.616 59.8217C170.168 57.802 169.431 55.3755 169.517 52.9092C169.517 52.858 169.435 52.8467 169.43 52.9092C169.217 55.2777 169.779 57.651 171.036 59.6854C169.911 58.4812 168.815 57.2487 167.771 55.9707C167.736 55.9082 167.666 55.965 167.695 56.0048Z" fill="white"/>
<path d="M164.511 57.3056C166.28 57.8006 167.944 58.6029 169.424 59.6741C169.929 59.8353 170.416 60.0445 170.88 60.2989C169.018 58.8443 166.867 57.7861 164.563 57.192C164.482 57.1692 164.436 57.2828 164.511 57.3056Z" fill="white"/>
<path d="M59.16 171.212C59.482 170.797 59.8475 170.417 60.2504 170.076C60.2636 170.057 60.2815 170.041 60.3026 170.031C60.6419 169.736 61.0089 169.474 61.3988 169.247C60.945 169.279 60.4896 169.279 60.0358 169.247C57.6993 169.099 55.4383 168.378 53.4609 167.15C51.4835 165.922 49.8532 164.227 48.72 162.221C48.2966 161.511 43.2796 165.936 44.7006 171.076C45.008 172.184 49.8684 173.001 49.8684 173.001C49.8684 173.001 45.8954 175.705 46.3478 176.977C46.8002 178.25 50.0134 182.004 55.6742 182.748C56.3006 182.834 55.7438 175.512 59.16 171.212Z" fill="#EBEBEB"/>
<path d="M55.0304 171.587C56.8021 171.176 58.5455 170.656 60.2504 170.031C60.5897 169.736 60.9567 169.474 61.3466 169.247C60.8928 169.279 60.4374 169.279 59.9836 169.247C57.5575 169.909 54.9777 169.786 52.6292 168.895C52.6243 168.892 52.6188 168.891 52.6132 168.89C52.6076 168.889 52.602 168.89 52.5966 168.892C52.5912 168.893 52.5862 168.896 52.5818 168.899C52.5775 168.903 52.5739 168.907 52.5712 168.912C52.5685 168.917 52.5669 168.922 52.5663 168.927C52.5657 168.933 52.5663 168.938 52.5679 168.944C52.5695 168.949 52.5722 168.954 52.5757 168.958C52.5793 168.962 52.5837 168.966 52.5886 168.969C54.7994 169.949 57.2715 170.216 59.6472 169.73C58.1102 170.372 56.5616 170.974 55.0072 171.513C55.002 171.519 54.9984 171.526 54.9968 171.534C54.9951 171.541 54.9955 171.549 54.9978 171.557C55.0001 171.564 55.0043 171.571 55.0101 171.576C55.0158 171.581 55.0228 171.585 55.0304 171.587Z" fill="white"/>
<path d="M55.2218 174.944C56.2873 173.477 57.6111 172.208 59.131 171.195C59.453 170.78 59.8185 170.4 60.2214 170.059C58.2008 171.294 56.4662 172.929 55.129 174.859C55.1 174.944 55.1754 175.024 55.2218 174.944Z" fill="white"/>
<path d="M82.041 231.358C82.065 231.035 82.1213 230.715 82.2092 230.403C82.2092 230.403 82.2092 230.375 82.2092 230.358C82.2848 230.092 82.3858 229.833 82.5108 229.586C82.2825 229.754 82.0422 229.906 81.7916 230.04C80.5314 230.739 79.1124 231.117 77.6645 231.14C76.2165 231.162 74.7859 230.829 73.5034 230.171C73.0336 229.943 71.9722 233.914 74.5068 236.106C75.0462 236.578 77.8534 235.373 77.8534 235.373C77.8534 235.373 76.734 238.111 77.4184 238.617C78.1028 239.122 81.0666 239.997 84.2682 238.492C84.6278 238.327 81.78 234.715 82.041 231.358Z" fill="#EBEBEB"/>
<path d="M80.04 232.92C80.8227 232.114 81.5493 231.259 82.215 230.358C82.2906 230.092 82.3916 229.833 82.5166 229.586C82.2883 229.754 82.048 229.906 81.7974 230.04C80.7702 231.195 79.3884 231.992 77.8592 232.312C77.8302 232.312 77.8302 232.369 77.8592 232.363C79.3471 232.134 80.7221 231.448 81.7858 230.403C81.2058 231.244 80.6258 232.079 79.9878 232.886C79.9762 232.914 80.04 232.948 80.04 232.92Z" fill="white"/>
<path d="M81.3218 234.584C81.3593 233.467 81.6029 232.367 82.041 231.335C82.065 231.012 82.1213 230.693 82.2092 230.381C81.5904 231.696 81.2604 233.124 81.2406 234.573C81.2406 234.646 81.316 234.658 81.3218 234.584Z" fill="white"/>
<path d="M26.8482 160.011C27.1372 160.174 27.4092 160.364 27.6602 160.579L27.695 160.608C27.9058 160.779 28.1 160.969 28.275 161.176C28.2162 160.904 28.1774 160.629 28.159 160.352C28.0481 158.937 28.2999 157.518 28.8914 156.222C29.4829 154.927 30.3955 153.796 31.5462 152.934C31.958 152.622 28.7274 149.997 25.6302 151.315C24.9632 151.599 24.8878 154.598 24.8878 154.598C24.8878 154.598 22.8346 152.446 22.0748 152.837C21.315 153.229 19.2502 155.49 19.2908 158.966C19.3024 159.352 23.8496 158.353 26.8482 160.011Z" fill="#EBEBEB"/>
<path d="M26.245 157.575C26.6609 158.61 27.1453 159.617 27.695 160.591C27.9058 160.762 28.1 160.952 28.275 161.159C28.2162 160.887 28.1774 160.612 28.159 160.335C27.5245 158.934 27.3718 157.369 27.724 155.876C27.724 155.842 27.6834 155.825 27.6718 155.876C27.263 157.291 27.3218 158.796 27.84 160.176C27.3006 159.313 26.7786 158.432 26.303 157.529L26.245 157.575Z" fill="white"/>
<path d="M24.1454 157.989C25.1629 158.499 26.0784 159.184 26.8482 160.011C27.1372 160.174 27.4092 160.364 27.6602 160.579C26.7004 159.473 25.515 158.575 24.1802 157.944C24.1454 157.904 24.099 157.972 24.1454 157.989Z" fill="white"/>
<path d="M56.695 94.7935C56.6823 94.4705 56.7018 94.1472 56.753 93.8279C56.7502 93.8129 56.7502 93.7975 56.753 93.7824C56.7945 93.5092 56.8644 93.2408 56.9618 92.9816C56.7532 93.1713 56.5323 93.3478 56.3006 93.5098C55.1287 94.3444 53.7619 94.8779 52.3251 95.0615C50.8883 95.245 49.4275 95.0728 48.0762 94.5606C47.589 94.3902 46.9974 98.4514 49.764 100.349C50.344 100.757 53.0062 99.2523 53.0062 99.2523C53.0062 99.2523 52.2116 102.092 52.9482 102.518C53.6848 102.944 56.7356 103.484 59.74 101.632C60.0706 101.433 56.84 98.156 56.695 94.7935Z" fill="#EBEBEB"/>
<path d="M54.8912 96.56C55.575 95.6711 56.1988 94.7395 56.7588 93.7711C56.8003 93.4979 56.8702 93.2295 56.9676 92.9702C56.759 93.16 56.5381 93.3364 56.3064 93.4985C55.4205 94.7607 54.1403 95.7074 52.6582 96.1965C52.6292 96.1965 52.6582 96.2533 52.6582 96.2476C54.1112 95.8512 55.3986 95.014 56.3354 93.8563C55.8656 94.7594 55.3726 95.6569 54.8332 96.5259C54.8274 96.56 54.8738 96.5997 54.8912 96.56Z" fill="white"/>
<path d="M56.3586 98.0992C56.2684 96.9865 56.3824 95.8669 56.695 94.7935C56.6823 94.4705 56.7018 94.1471 56.753 93.8279C56.2928 95.2038 56.1308 96.6586 56.2774 98.0992C56.2774 98.1045 56.2784 98.1096 56.2805 98.1145C56.2825 98.1193 56.2855 98.1237 56.2893 98.1273C56.2931 98.131 56.2975 98.134 56.3025 98.136C56.3074 98.138 56.3127 98.139 56.318 98.139C56.3233 98.139 56.3286 98.138 56.3335 98.136C56.3385 98.134 56.3429 98.131 56.3467 98.1273C56.3505 98.1237 56.3535 98.1193 56.3555 98.1145C56.3575 98.1096 56.3586 98.1045 56.3586 98.0992Z" fill="white"/>
<path d="M41.4004 79.4462C41.5127 79.1429 41.6565 78.8516 41.8296 78.5771V78.5431C41.977 78.3071 42.1458 78.0846 42.3342 77.8785C42.0697 77.9769 41.7983 78.0566 41.5222 78.1171C40.1126 78.4457 38.6414 78.4229 37.2431 78.0508C35.8448 77.6787 34.5641 76.9691 33.5182 75.9871C33.1354 75.6406 30.9894 79.1679 32.7932 81.9624C33.1876 82.5645 36.221 82.1726 36.221 82.1726C36.221 82.1726 34.3708 84.4957 34.8812 85.1659C35.3916 85.8362 38.019 87.472 41.5164 86.904C41.8992 86.8529 40.194 82.6042 41.4004 79.4462Z" fill="#EBEBEB"/>
<path d="M39.7822 82.36C40.1369 81.2955 40.6851 80.3026 41.4004 79.4291C41.5127 79.1258 41.6565 78.8346 41.8296 78.5601C40.8576 79.6659 40.136 80.961 39.7126 82.36C39.6952 82.3884 39.7648 82.4225 39.7822 82.36Z" fill="white"/>
<path d="M226.067 211.796C226.231 211.51 226.426 211.242 226.647 210.995V210.961C226.822 210.754 227.016 210.564 227.227 210.393C226.949 210.451 226.668 210.491 226.386 210.512C224.943 210.63 223.492 210.392 222.167 209.822C220.841 209.252 219.681 208.366 218.793 207.246C218.469 206.849 215.812 210.024 217.181 213.051C217.471 213.699 220.533 213.755 220.533 213.755C220.533 213.755 218.353 215.783 218.759 216.522C219.165 217.26 221.485 219.265 225.034 219.203C225.446 219.186 224.396 214.738 226.067 211.796Z" fill="#EBEBEB"/>
<path d="M223.584 212.432C224.637 212.015 225.662 211.533 226.652 210.989C226.827 210.783 227.022 210.593 227.232 210.421C226.955 210.479 226.674 210.519 226.391 210.541C224.966 211.171 223.371 211.332 221.844 211.001C221.809 211.001 221.798 211.04 221.844 211.046C223.296 211.447 224.84 211.384 226.252 210.864C225.371 211.398 224.477 211.915 223.561 212.392L223.584 212.432Z" fill="white"/>
<path d="M224.025 214.454C224.535 213.454 225.227 212.553 226.067 211.796C226.231 211.51 226.425 211.242 226.647 210.995C225.527 211.937 224.62 213.098 223.984 214.403C223.938 214.454 224.002 214.5 224.025 214.454Z" fill="white"/>
<path d="M204.375 170.576C212.089 164.674 220.035 158.648 225.661 150.696C228.74 146.264 230.894 141.28 231.999 136.029C233.104 130.779 233.138 125.367 232.099 120.104C232.094 120.042 232.113 119.981 232.151 119.932C232.189 119.884 232.245 119.85 232.306 119.839C232.368 119.828 232.432 119.839 232.486 119.871C232.54 119.903 232.579 119.954 232.597 120.013C236.565 138.319 228.271 153.525 214.304 165.288C198.58 178.562 178.414 189.377 177.497 212.12C177.497 212.551 176.761 212.597 176.714 212.159C174.783 194.017 191.365 180.527 204.375 170.576Z" fill="#DBDBDB"/>
<path d="M190.745 176.023C198.714 164.896 203.615 152.622 203.064 138.848C203.064 138.615 203.47 138.592 203.487 138.848C204.288 150.435 201.747 161.482 195.634 171.456C188.726 182.68 178.536 192.438 177.184 206.104C177.174 206.146 177.148 206.183 177.113 206.209C177.077 206.234 177.033 206.246 176.989 206.243C176.945 206.239 176.904 206.221 176.873 206.19C176.841 206.16 176.822 206.119 176.819 206.076C176.9 194.336 184.191 185.168 190.745 176.023Z" fill="#DBDBDB"/>
<path d="M189.416 185.128C195.176 175.938 205.656 171.286 215.696 168.088C228.456 164.016 239.853 159.216 246.57 147.038C246.703 146.794 247.109 146.942 246.981 147.197C241.866 157.495 233.363 163.828 222.494 167.617C216.659 169.645 210.61 171.15 205.018 173.802C198.928 176.688 194.515 180.88 189.869 185.56C189.602 185.821 189.248 185.407 189.416 185.128Z" fill="#DBDBDB"/>
<path d="M186.621 187.008C186.621 187.008 204.462 188.542 210.366 182.141C216.27 175.739 186.621 187.008 186.621 187.008Z" fill="#DBDBDB"/>
<path d="M219.275 158.387C219.275 158.387 213.185 141.915 217.987 134.661C222.79 127.408 219.275 158.387 219.275 158.387Z" fill="#DBDBDB"/>
<path d="M62.0948 60.5772C62.9251 60.0618 63.8075 59.6316 64.728 59.2935C64.7652 59.2707 64.8066 59.2553 64.8498 59.2481C65.6304 58.9524 66.4384 58.7317 67.2626 58.5892C66.457 58.3494 65.6701 58.0533 64.9078 57.7031C60.7202 55.8571 52.1478 50.6542 50.0134 38.4706C49.7524 36.9768 38.164 41.4697 37.2534 51.2563C37.0562 53.3579 44.9268 57.8337 44.9268 57.8337C44.9268 57.8337 36.2732 60.0092 36.2268 62.5027C36.1804 64.9962 39.2544 73.4992 48.5576 78.384C49.5668 78.8895 53.4122 65.888 62.0948 60.5772Z" fill="#EBEBEB"/>
<path d="M54.752 58.6403C58.1014 59.0524 61.4741 59.2554 64.8498 59.2481C65.6304 58.9524 66.4384 58.7317 67.2626 58.5892C66.457 58.3494 65.6701 58.0533 64.9078 57.7031C60.3722 57.1351 56.1266 55.7776 52.4204 52.4548C52.345 52.3923 52.229 52.4889 52.2986 52.5627C55.5002 55.806 59.6182 57.5441 64.0088 58.3279C60.9348 58.4699 57.855 58.5437 54.7694 58.4756C54.7501 58.4781 54.7322 58.487 54.7186 58.5007C54.705 58.5144 54.6966 58.5322 54.6946 58.5512C54.6925 58.5702 54.6971 58.5894 54.7075 58.6055C54.718 58.6217 54.7336 58.6339 54.752 58.6403Z" fill="white"/>
<path d="M52.8728 64.5872C55.6776 62.7219 58.8009 61.3638 62.0948 60.5771C62.9251 60.0617 63.8075 59.6316 64.728 59.2935C60.4181 60.1586 56.3418 61.9001 52.7626 64.4055C52.6408 64.4679 52.7452 64.6781 52.8728 64.5872Z" fill="white"/>
<path d="M91.2224 76.5267C91.2774 77.0459 91.2774 77.5694 91.2224 78.0887C91.225 78.1113 91.225 78.1342 91.2224 78.1568C91.1746 78.598 91.0833 79.0336 90.9498 79.4576C91.2666 79.1355 91.6078 78.8374 91.9706 78.5658C93.7942 77.1397 95.9539 76.1845 98.2521 75.7876C100.55 75.3906 102.913 75.5647 105.125 76.2938C105.925 76.5437 106.592 69.9606 101.999 67.0979C101.013 66.4844 96.86 69.0859 96.86 69.0859C96.86 69.0859 97.9388 64.4624 96.7266 63.8262C95.5144 63.19 90.5612 62.5255 85.8632 65.712C85.3238 66.0755 90.7758 71.1193 91.2224 76.5267Z" fill="#EBEBEB"/>
<path d="M94.0006 73.5447C92.9633 75.0206 92.0256 76.5612 91.1934 78.1568C91.1456 78.598 91.0543 79.0336 90.9208 79.4576C91.2376 79.1355 91.5788 78.8374 91.9416 78.5658C93.2752 76.4728 95.2684 74.8618 97.6198 73.9764C97.6662 73.9764 97.6488 73.8798 97.6198 73.8968C95.3115 74.6294 93.3006 76.0615 91.8778 77.9864C92.568 76.504 93.2988 75.0328 94.0992 73.5901C94.1054 73.5773 94.1061 73.5626 94.1012 73.5493C94.0963 73.536 94.0862 73.5251 94.0731 73.5191C94.06 73.5131 94.045 73.5124 94.0314 73.5172C94.0178 73.522 94.0068 73.5319 94.0006 73.5447Z" fill="white"/>
<path d="M91.5356 71.1817C91.7577 72.9674 91.6516 74.7775 91.2224 76.5266C91.2774 77.0459 91.2774 77.5693 91.2224 78.0886C91.8671 75.8412 92.0251 73.4867 91.6864 71.176C91.64 71.1022 91.524 71.1022 91.5356 71.1817Z" fill="white"/>
<path d="M8.34039 117.161L281.665 37.3744L186.331 237.435L8.34039 117.161Z" fill="#FFC4C0"/>
<path d="M140.221 155.876C138.579 152.849 124.451 136.337 107.555 134.451C90.6598 132.566 72.5 148.816 71.92 150.469C71.34 152.122 87.4582 170.497 103.524 170.917C119.59 171.337 135.494 158.932 137.344 158.148C139.194 157.364 142.715 160.466 140.221 155.876Z" fill="white"/>
<path d="M89.6506 166.691C79.373 161.011 71.5372 151.616 71.9432 150.469C72.2738 149.526 78.4972 143.653 86.9594 139.279C78.88 146.68 75.516 155.019 89.6506 166.691Z" fill="#EBEBEB"/>
<path d="M137.367 158.16C136.544 158.506 132.948 161.153 127.791 163.948C133.011 160.858 135.25 156.535 133.22 152.377C131.19 148.22 130.193 146.328 125.976 142C133.8 147.441 139.241 154.059 140.221 155.871C142.715 160.466 139.2 157.376 137.367 158.16Z" fill="white"/>
<path d="M137.367 158.16C136.544 158.506 132.948 161.153 127.791 163.948C133.011 160.858 135.25 156.535 133.22 152.377C131.19 148.22 130.193 146.328 125.976 142C133.8 147.441 139.241 154.059 140.221 155.871C142.715 160.466 139.2 157.376 137.367 158.16Z" fill="#EBEBEB"/>
<path d="M139.606 155.405C132.431 147.453 118.581 135.002 103.977 135.241C89.3722 135.479 77.4474 147.737 71.9258 151.145C67.135 154.104 59.6008 151.855 55.1058 148.873C55.1058 148.873 63.8058 154.269 71.9896 148.577C80.1734 142.886 88.3514 133.009 104.69 133.338C125.28 133.753 140.07 155.416 140.07 155.416" fill="#263238"/>
<path d="M55.68 145.039C57.3023 146.047 59.0589 146.83 60.9 147.368C61.3524 147.498 61.8048 147.64 62.2688 147.731C62.7256 147.847 63.1883 147.94 63.655 148.009C64.119 148.066 64.5772 148.168 65.047 148.208L66.4564 148.305C66.9262 148.305 67.396 148.305 67.8716 148.305C68.1036 148.305 68.3414 148.305 68.5792 148.305L69.281 148.242C69.7508 148.203 70.2264 148.186 70.6962 148.123C71.166 148.061 71.63 147.964 72.0998 147.89C72.3376 147.856 72.5754 147.828 72.8074 147.782L73.5034 147.612L74.9012 147.288C75.8292 147.038 76.734 146.72 77.691 146.482C76.8442 146.953 75.951 147.413 75.0868 147.811L73.7122 148.328L73.0162 148.572C72.7784 148.646 72.5406 148.697 72.3028 148.759C71.8214 148.878 71.34 148.998 70.8586 149.106C70.3772 149.214 69.8784 149.242 69.3854 149.31L68.643 149.401C68.3994 149.401 68.15 149.401 67.9006 149.401C67.4018 149.401 66.903 149.435 66.4042 149.401C64.4138 149.308 62.4533 148.89 60.6042 148.163C58.7529 147.48 57.0735 146.414 55.68 145.039Z" fill="#263238"/>
<path d="M57.043 141.171C58.8035 142.369 60.7239 143.325 62.7502 144.011C63.2548 144.181 63.7478 144.357 64.264 144.482C64.7694 144.633 65.2824 144.758 65.801 144.857C66.3172 144.948 66.8276 145.09 67.3496 145.152L68.9214 145.345C69.4434 145.397 69.9712 145.402 70.499 145.436C70.7658 145.436 71.0268 145.47 71.2878 145.47H72.0824C72.6102 145.47 73.1438 145.47 73.6716 145.425C74.1994 145.38 74.7272 145.306 75.255 145.26C75.5218 145.26 75.7886 145.215 76.0496 145.181L76.8384 145.039L78.4218 144.766C79.4716 144.556 80.504 144.261 81.577 144.056C80.5968 144.499 79.5934 144.937 78.5726 145.306L76.995 145.766L76.2062 145.987C75.9394 146.044 75.6668 146.084 75.4 146.135C74.8548 146.232 74.3154 146.328 73.7702 146.413C73.225 146.498 72.674 146.498 72.123 146.544L71.2936 146.595C71.021 146.595 70.7136 146.595 70.47 146.595C69.89 146.595 69.3622 146.595 68.8112 146.527C66.6096 146.312 64.4564 145.758 62.4312 144.885C60.3895 144.03 58.5539 142.764 57.043 141.171Z" fill="#263238"/>
<path d="M63.249 137.78C65.2019 138.878 67.3055 139.697 69.4956 140.211C70.035 140.33 70.5744 140.472 71.1254 140.546C71.6675 140.655 72.2155 140.732 72.7668 140.779C73.3468 140.819 73.8688 140.909 74.4256 140.921H76.0844C76.6644 140.921 77.1922 140.858 77.7432 140.83C78.0216 140.83 78.3232 140.802 78.5726 140.773L79.3962 140.643C79.9762 140.557 80.504 140.506 81.0492 140.398C81.5944 140.29 82.128 140.137 82.679 140.018C82.9458 139.955 83.2242 139.904 83.491 139.83L84.2914 139.575L85.9038 139.081C86.9652 138.711 88.0034 138.268 89.088 137.899C88.1252 138.467 87.145 139.075 86.1242 139.603L84.5466 140.285L83.752 140.614C83.4794 140.711 83.2068 140.79 82.9284 140.875C82.3774 141.046 81.8264 141.216 81.2696 141.37C80.7128 141.523 80.1096 141.597 79.5702 141.716L78.7118 141.864C78.4276 141.903 78.1318 141.915 77.8476 141.943C77.2676 141.983 76.6876 142.051 76.1076 142.063C73.777 142.096 71.4567 141.753 69.2404 141.046C67.0307 140.382 64.989 139.27 63.249 137.78Z" fill="#263238"/>
<path d="M58.9918 139.194C60.6892 140.348 62.5493 141.253 64.5134 141.881C65.4776 142.2 66.4643 142.451 67.4656 142.63C67.9644 142.693 68.4632 142.812 68.9678 142.863L70.4816 142.977C70.9862 143.011 71.4966 142.977 72.0012 142.977C72.2564 142.977 72.5116 142.977 72.761 142.977L73.5208 142.903C74.0254 142.852 74.5358 142.829 75.0404 142.755C75.545 142.682 76.0438 142.568 76.5484 142.483C76.8036 142.437 77.0588 142.403 77.3082 142.352L78.0506 142.148L79.5528 141.767C80.5388 141.472 81.5074 141.103 82.5224 140.813C81.6234 141.33 80.7012 141.841 79.75 142.29L78.2768 142.858L77.5286 143.136C77.2792 143.216 77.0182 143.272 76.763 143.34C76.2526 143.477 75.7364 143.607 75.2144 143.732C74.6924 143.835 74.1588 143.886 73.631 143.965L72.8364 144.068C72.5696 144.068 72.3028 144.068 72.036 144.068C71.4966 144.068 70.963 144.107 70.4236 144.068C68.2787 143.965 66.1694 143.49 64.1944 142.665C62.2228 141.893 60.4472 140.708 58.9918 139.194Z" fill="#263238"/>
<path d="M73.196 129.799C74.5495 131.254 76.1126 132.507 77.836 133.52C78.6795 134.027 79.5618 134.469 80.475 134.843C80.939 135.014 81.3856 135.224 81.8554 135.377L83.2706 135.792C83.7462 135.928 84.2334 136.002 84.7148 136.11C84.9584 136.155 85.1962 136.212 85.4398 136.252L86.1822 136.331C86.6752 136.382 87.1624 136.468 87.6612 136.496C88.16 136.524 88.653 136.496 89.1518 136.53C89.4012 136.53 89.6564 136.53 89.9058 136.53L90.654 136.485L92.162 136.411C93.1654 136.32 94.163 136.155 95.1954 136.076C94.2268 136.399 93.2466 136.712 92.249 136.962L90.7236 137.223L89.958 137.348C89.7028 137.376 89.4418 137.376 89.1808 137.393C88.6646 137.428 88.1426 137.45 87.6264 137.467C87.1102 137.484 86.5824 137.405 86.0604 137.376L85.2832 137.314C85.0222 137.28 84.767 137.223 84.5118 137.178C83.9956 137.07 83.4736 137.002 82.969 136.865C80.9425 136.331 79.0322 135.44 77.3314 134.235C75.6371 133.072 74.2252 131.557 73.196 129.799Z" fill="#263238"/>
<path d="M68.0456 133.065C69.5855 134.336 71.307 135.379 73.1554 136.161C74.0618 136.551 74.9962 136.876 75.951 137.132C76.4324 137.24 76.9022 137.388 77.3894 137.479L78.851 137.712C79.3382 137.785 79.8312 137.797 80.3242 137.842C80.5736 137.842 80.8172 137.882 81.0666 137.888H81.809C82.302 137.888 82.8008 137.888 83.2938 137.888C83.7868 137.888 84.2856 137.78 84.7844 137.734C85.028 137.734 85.2832 137.695 85.5268 137.655L86.2634 137.513L87.7482 137.246C88.7342 137.03 89.7028 136.74 90.712 136.53C89.7956 136.973 88.8676 137.411 87.9106 137.785L86.4374 138.24L85.6892 138.461C85.4398 138.524 85.1846 138.558 84.9294 138.609C84.419 138.706 83.9086 138.796 83.3924 138.882C82.8762 138.967 82.3542 138.955 81.8322 138.995L81.0492 139.029C80.7882 139.029 80.5272 139.029 80.2662 138.995C79.7442 138.955 79.2222 138.955 78.7002 138.882C76.6192 138.615 74.6061 137.975 72.761 136.996C70.9078 136.049 69.2961 134.706 68.0456 133.065Z" fill="#263238"/>
<path d="M76.6006 156.62C76.0022 156.455 75.3881 156.35 74.7678 156.308C74.1577 156.262 73.545 156.262 72.935 156.308C72.3241 156.363 71.7176 156.458 71.1196 156.592C70.5396 156.722 69.919 156.899 69.31 157.069C69.5826 156.91 69.89 156.762 70.1394 156.615C70.4283 156.484 70.7246 156.371 71.0268 156.274C71.633 156.071 72.2621 155.942 72.9002 155.888C74.1812 155.754 75.4732 156.01 76.6006 156.62Z" fill="#263238"/>
<path d="M90.8106 167.509C90.2122 167.343 89.5981 167.236 88.9778 167.191C88.3679 167.143 87.7549 167.143 87.145 167.191C86.5323 167.244 85.9239 167.337 85.3238 167.469C84.7438 167.6 84.129 167.776 83.52 167.952C83.7868 167.787 84.0652 167.64 84.3494 167.498C84.6377 167.364 84.9341 167.249 85.2368 167.151C85.8436 166.951 86.4724 166.821 87.1102 166.765C88.3924 166.636 89.684 166.896 90.8106 167.509Z" fill="#263238"/>
<path d="M75.7016 155.956C75.2042 155.494 74.6368 155.111 74.0196 154.82C73.4224 154.522 72.7765 154.33 72.1114 154.252C71.9432 154.252 71.775 154.252 71.6126 154.252C71.4466 154.238 71.2797 154.238 71.1138 154.252C70.9456 154.252 70.7774 154.252 70.615 154.291L70.1162 154.377C69.7798 154.428 69.4666 154.547 69.1302 154.627C68.7938 154.706 68.4864 154.859 68.15 154.962C68.44 154.774 68.73 154.598 69.049 154.433C69.3679 154.285 69.6974 154.16 70.035 154.059C70.721 153.849 71.443 153.778 72.1578 153.848C72.87 153.924 73.5564 154.152 74.1687 154.517C74.7811 154.881 75.3043 155.372 75.7016 155.956Z" fill="#263238"/>
<path d="M127.31 169.378C126.811 168.918 126.244 168.535 125.628 168.242C125.027 167.956 124.379 167.775 123.714 167.708C123.548 167.699 123.381 167.699 123.215 167.708C123.051 167.691 122.886 167.691 122.722 167.708C122.554 167.708 122.386 167.708 122.218 167.742L121.725 167.833C121.388 167.878 121.069 168.003 120.739 168.077C120.408 168.151 120.095 168.315 119.758 168.412C120.048 168.23 120.338 168.054 120.657 167.884C120.976 167.735 121.306 167.61 121.643 167.509C122.329 167.305 123.047 167.234 123.76 167.299C124.471 167.371 125.157 167.594 125.77 167.954C126.383 168.313 126.909 168.799 127.31 169.378Z" fill="#263238"/>
<path d="M76.8558 157.075C76.4493 157.143 76.0496 157.246 75.661 157.381C75.2802 157.509 74.9083 157.661 74.5474 157.836C74.1886 158.016 73.8401 158.215 73.5034 158.432C73.1612 158.654 72.8248 158.887 72.4768 159.125C72.6989 158.769 72.9746 158.447 73.2946 158.171C73.6154 157.889 73.9721 157.648 74.356 157.455C75.1211 157.055 76.0026 156.92 76.8558 157.075Z" fill="#263238"/>
<path d="M122.49 170.639C122.149 170.27 121.759 169.947 121.33 169.679C120.918 169.416 120.469 169.215 119.996 169.082C119.522 168.95 119.033 168.877 118.54 168.866C118.291 168.866 118.042 168.866 117.786 168.866C117.531 168.866 117.282 168.923 117.015 168.929C117.253 168.832 117.502 168.747 117.752 168.662C118.007 168.599 118.267 168.553 118.529 168.526C119.063 168.475 119.601 168.521 120.118 168.662C120.637 168.801 121.119 169.05 121.529 169.392C121.939 169.733 122.267 170.159 122.49 170.639Z" fill="#263238"/>
<path d="M93.4554 171.473C93.3124 171.095 93.1418 170.726 92.945 170.372C92.5519 169.681 92.0683 169.043 91.5066 168.474C91.2282 168.179 90.9266 167.906 90.6366 167.6C91.032 167.756 91.403 167.967 91.7386 168.225C92.0766 168.487 92.3788 168.79 92.6376 169.128C93.1756 169.795 93.4642 170.623 93.4554 171.473Z" fill="#263238"/>
<path d="M132.866 164.47C132.55 164.096 132.186 163.764 131.782 163.482C131.414 163.199 130.97 163.025 130.505 162.982C130.039 162.939 129.57 163.027 129.154 163.238C128.928 163.328 128.731 163.47 128.511 163.578C128.29 163.686 128.105 163.862 127.884 163.993C128.035 163.794 128.209 163.612 128.377 163.425C128.57 163.253 128.775 163.095 128.992 162.954C129.45 162.656 129.998 162.522 130.544 162.573C131.091 162.623 131.604 162.856 131.996 163.232C132.381 163.573 132.678 163.997 132.866 164.47Z" fill="#263238"/>
<path d="M111.279 172.757C111.049 172.327 110.769 171.925 110.444 171.559C110.142 171.214 109.751 170.955 109.313 170.809C108.865 170.687 108.391 170.687 107.944 170.809C107.712 170.854 107.486 170.951 107.248 171.019C107.01 171.087 106.795 171.224 106.552 171.309C106.743 171.144 106.946 170.996 107.132 170.832C107.354 170.7 107.587 170.586 107.828 170.491C108.334 170.281 108.901 170.255 109.425 170.416C109.95 170.577 110.399 170.916 110.693 171.371C110.993 171.784 111.194 172.258 111.279 172.757Z" fill="#263238"/>
<path d="M86.42 164.993C86.0113 164.93 85.5983 164.898 85.1846 164.896C84.7832 164.895 84.3821 164.92 83.984 164.97C83.5835 165.023 83.1865 165.099 82.795 165.197C82.3948 165.288 82.0004 165.407 81.5886 165.515C81.9217 165.254 82.2907 165.04 82.6848 164.879C83.0818 164.716 83.4992 164.605 83.926 164.55C84.7846 164.417 85.6638 164.573 86.42 164.993Z" fill="#263238"/>
<path d="M77.5634 127.8C78.8823 129.29 80.4162 130.583 82.1164 131.64C82.95 132.165 83.8224 132.628 84.7264 133.026C85.1846 133.207 85.6254 133.429 86.0894 133.594L87.493 134.042C87.9628 134.19 88.45 134.275 88.9314 134.395C89.1692 134.446 89.4128 134.514 89.6506 134.559L90.3872 134.656C90.8802 134.718 91.3674 134.815 91.8662 134.855C92.365 134.894 92.858 134.894 93.3568 134.928C93.6062 134.928 93.8556 134.968 94.105 134.968L94.8532 134.94L96.367 134.9C97.3704 134.838 98.3738 134.696 99.4062 134.644C98.4318 134.94 97.4458 135.212 96.4366 135.457L94.9054 135.678L94.1398 135.786C93.8788 135.786 93.6236 135.786 93.3626 135.786C92.8406 135.786 92.3244 135.815 91.8024 135.82C91.2804 135.826 90.7642 135.735 90.2422 135.69L89.465 135.61C89.204 135.57 88.9546 135.502 88.6936 135.451C88.189 135.332 87.667 135.252 87.1682 135.105C85.1549 134.521 83.2678 133.582 81.6002 132.333C79.9288 131.133 78.55 129.585 77.5634 127.8Z" fill="#263238"/>
<path d="M86.652 126.874C87.9732 128.364 89.5089 129.657 91.2108 130.714C92.0444 131.235 92.9146 131.699 93.815 132.1C94.279 132.276 94.7198 132.497 95.1838 132.668L96.5874 133.122C97.0572 133.27 97.5444 133.355 98.0258 133.474C98.2636 133.525 98.5014 133.594 98.745 133.633L99.4816 133.73C99.9746 133.798 100.462 133.889 100.955 133.929C101.448 133.968 101.952 133.974 102.451 134.008C102.701 134.008 102.95 134.042 103.199 134.042H103.948L105.461 134.008C106.465 133.946 107.468 133.804 108.501 133.747C107.526 134.048 106.54 134.315 105.531 134.559L104 134.786L103.234 134.889C102.973 134.889 102.712 134.889 102.457 134.923C101.935 134.923 101.413 134.951 100.897 134.951C100.381 134.951 99.8586 134.866 99.3366 134.826L98.5594 134.747C98.2984 134.701 98.0432 134.639 97.788 134.588C97.2834 134.468 96.7614 134.389 96.2626 134.235C94.2496 133.654 92.3625 132.717 90.6946 131.469C89.0155 130.25 87.6346 128.681 86.652 126.874Z" fill="#263238"/>
<path d="M118.639 130.14C119.179 131.618 119.853 133.045 120.652 134.406C121.435 135.752 122.311 137.044 123.273 138.274C123.772 138.876 124.242 139.501 124.793 140.063C125.054 140.353 125.309 140.631 125.582 140.938C125.854 141.245 126.162 141.506 126.411 141.773L126.823 142.199L127.258 142.602L128.128 143.42C128.708 143.988 129.328 144.465 129.908 145.039C129.183 144.675 128.47 144.289 127.774 143.857C127.088 143.419 126.428 142.943 125.796 142.432C124.525 141.402 123.372 140.24 122.357 138.967C121.353 137.679 120.508 136.28 119.84 134.798C119.154 133.329 118.747 131.751 118.639 130.14Z" fill="#263238"/>
<path d="M111.36 126.982C112.09 128.378 112.944 129.709 113.912 130.958C114.863 132.195 115.9 133.366 117.015 134.463C117.595 134.997 118.134 135.559 118.755 136.047C119.057 136.303 119.335 136.57 119.654 136.82C119.973 137.07 120.28 137.297 120.588 137.547L121.052 137.916L121.539 138.257L122.502 138.961C123.151 139.427 123.83 139.847 124.48 140.341C123.714 140.074 122.954 139.773 122.212 139.444C121.476 139.089 120.76 138.696 120.066 138.268C118.67 137.408 117.372 136.403 116.197 135.269C115.037 134.115 114.019 132.832 113.164 131.447C112.29 130.078 111.679 128.565 111.36 126.982Z" fill="#263238"/>
<path d="M104.649 123.784C105.084 125.255 105.712 126.664 106.517 127.976C107.293 129.27 108.228 130.466 109.301 131.537C109.562 131.81 109.881 132.054 110.125 132.316C110.27 132.441 110.403 132.577 110.548 132.696L111 133.048C111.302 133.281 111.58 133.531 111.899 133.753C112.218 133.974 112.537 134.173 112.856 134.394C113.013 134.502 113.17 134.616 113.332 134.718L113.837 135.002L114.84 135.57C115.524 135.951 116.238 136.275 116.934 136.678C116.151 136.527 115.377 136.337 114.614 136.11L113.494 135.672L112.914 135.44C112.735 135.354 112.561 135.252 112.381 135.161C110.932 134.418 109.61 133.46 108.46 132.321C107.318 131.168 106.385 129.833 105.699 128.374C105.005 126.939 104.646 125.371 104.649 123.784Z" fill="#263238"/>
<path d="M91.8372 124.295C93.4411 126.79 95.5709 128.92 98.0838 130.543C98.5072 130.788 98.9074 131.077 99.3366 131.31L100.659 131.969C101.1 132.185 101.57 132.344 102.022 132.537C102.248 132.628 102.474 132.73 102.706 132.81L103.42 133.02C103.895 133.156 104.365 133.321 104.847 133.44C105.328 133.559 105.821 133.633 106.308 133.741C106.552 133.787 106.795 133.855 107.039 133.889L107.787 133.98L109.284 134.173C110.287 134.258 111.302 134.275 112.329 134.377C111.319 134.525 110.299 134.661 109.272 134.73H107.723H106.946C106.685 134.73 106.43 134.667 106.175 134.639C105.657 134.574 105.14 134.506 104.626 134.434C104.116 134.338 103.617 134.19 103.107 134.071L102.353 133.872C102.103 133.792 101.86 133.69 101.616 133.599C101.135 133.406 100.63 133.247 100.16 133.031C98.2639 132.148 96.548 130.933 95.0968 129.447C93.6336 127.988 92.5202 126.228 91.8372 124.295Z" fill="#263238"/>
<path d="M113.173 166.835C121.477 163.25 125.241 153.752 121.58 145.62C117.92 137.488 108.221 133.802 99.9171 137.387C91.6134 140.972 87.8494 150.47 91.5101 158.602C95.1707 166.734 104.87 170.42 113.173 166.835Z" fill="#BA68C8"/>
<g opacity="0.1">
<path d="M121.638 152.406C121.638 152.712 111.586 152.36 111.551 152.661C111.517 152.962 121.411 154.814 121.324 155.109C121.237 155.405 111.464 153.258 111.366 153.547C111.267 153.837 120.646 157.444 120.507 157.722C120.367 158.001 111.157 154.115 111.012 154.382C110.867 154.649 119.381 159.886 119.213 160.142C119.045 160.397 110.699 154.905 110.513 155.143C110.328 155.382 117.711 162.056 117.473 162.278C117.235 162.499 110.096 155.632 109.864 155.808C109.632 155.984 115.664 163.891 115.397 164.072C115.13 164.254 109.376 156.2 109.11 156.342C108.843 156.484 113.286 165.328 113.001 165.458C112.717 165.589 108.564 156.626 108.274 156.728C107.984 156.83 110.681 166.316 110.38 166.384C110.078 166.452 107.689 156.899 107.381 156.95C107.074 157.001 107.961 166.805 107.631 166.827C107.3 166.85 106.761 157.018 106.471 157.012C106.181 157.007 105.183 166.805 104.881 166.77C104.58 166.736 105.844 156.972 105.543 156.91C105.241 156.847 102.445 166.305 102.15 166.214C101.854 166.123 104.951 156.762 104.661 156.643C104.371 156.524 99.8412 165.316 99.5686 165.163C99.296 165.01 104.104 156.376 103.843 156.211C103.582 156.047 97.4632 163.868 97.2312 163.681C96.9992 163.493 103.339 155.853 103.112 155.649C102.886 155.445 95.4216 162.033 95.2186 161.8C95.0156 161.568 102.683 155.206 102.498 154.984C102.312 154.763 93.7454 159.886 93.5888 159.625C93.4322 159.364 102.161 154.479 102.028 154.206C101.894 153.934 92.5042 157.444 92.394 157.16C92.2838 156.876 101.79 153.65 101.709 153.354C101.628 153.059 91.7386 154.814 91.6864 154.49C91.6342 154.167 101.581 152.747 101.546 152.44C101.512 152.133 91.4718 152.082 91.4834 151.775C91.495 151.469 101.535 151.821 101.57 151.52C101.604 151.219 91.7096 149.367 91.7908 149.072C91.872 148.776 101.651 150.923 101.755 150.634C101.86 150.344 92.4752 146.737 92.6086 146.459C92.742 146.18 101.964 150.066 102.109 149.799C102.254 149.532 93.7396 144.295 93.9078 144.039C94.076 143.783 102.422 149.27 102.608 149.037C102.793 148.805 95.41 142.119 95.6478 141.903C95.8856 141.688 103.014 148.589 103.24 148.39C103.466 148.191 97.44 140.296 97.7126 140.126C97.9852 139.955 103.733 148.009 104 147.856C104.267 147.703 99.8238 138.87 100.108 138.74C100.392 138.609 104.545 147.572 104.835 147.47C105.125 147.368 102.428 137.882 102.73 137.814C103.031 137.746 105.421 147.299 105.728 147.248C106.036 147.197 105.148 137.393 105.479 137.371C105.809 137.348 106.343 147.18 106.639 147.186C106.935 147.191 107.926 137.393 108.234 137.428C108.541 137.462 107.265 147.226 107.567 147.288C107.868 147.351 110.67 137.893 110.966 137.984C111.261 138.075 108.164 147.436 108.448 147.549C108.733 147.663 113.274 138.882 113.547 139.029C113.819 139.177 109.011 147.816 109.266 147.981C109.521 148.146 115.646 140.324 115.878 140.512C116.11 140.699 109.777 148.333 110.003 148.543C110.229 148.753 117.688 142.159 117.897 142.386C118.105 142.613 110.432 148.986 110.612 149.202C110.792 149.418 119.37 144.306 119.526 144.567C119.683 144.829 110.954 149.713 111.087 149.986C111.221 150.259 120.611 146.748 120.715 147.032C120.82 147.316 111.325 150.537 111.401 150.832C111.476 151.128 121.371 149.378 121.423 149.696C121.475 150.014 111.528 151.44 111.563 151.747C111.598 152.054 121.643 152.099 121.638 152.406Z" fill="black"/>
</g>
<g opacity="0.1">
<path d="M119.254 155.927C119.173 156.183 110.554 153.428 110.432 153.655C110.31 153.883 118.448 157.904 118.32 158.143C118.192 158.381 110.2 154.121 110.067 154.337C109.933 154.553 117.16 159.96 116.986 160.176C116.812 160.392 109.782 154.752 109.597 154.939C109.411 155.126 115.495 161.755 115.292 161.92C115.089 162.084 109.231 155.274 109.04 155.427C108.849 155.581 113.564 163.175 113.332 163.311C113.1 163.448 108.617 155.7 108.373 155.814C108.129 155.927 111.372 164.243 111.116 164.334C110.861 164.425 107.903 156.007 107.636 156.075C107.37 156.143 109.005 164.896 108.744 164.941C108.483 164.987 107.12 156.2 106.848 156.2C106.575 156.2 106.54 165.118 106.268 165.112C105.995 165.106 106.349 156.211 106.082 156.183C105.815 156.155 104.093 164.89 103.826 164.839C103.559 164.788 105.566 156.103 105.322 156.024C105.079 155.944 101.738 164.231 101.5 164.152C101.262 164.072 104.841 155.871 104.603 155.751C104.365 155.632 99.5454 163.175 99.325 163.033C99.1046 162.891 104.168 155.507 103.965 155.342C103.762 155.178 97.585 161.721 97.3994 161.539C97.2138 161.357 103.582 155.019 103.408 154.82C103.234 154.621 95.9436 159.932 95.787 159.733C95.6304 159.534 103.089 154.433 102.95 154.206C102.811 153.979 94.6502 157.904 94.54 157.648C94.4298 157.393 102.706 153.746 102.614 153.496C102.521 153.246 93.7686 155.649 93.7048 155.393C93.641 155.138 102.463 153.025 102.405 152.764C102.347 152.502 93.3104 153.286 93.2872 153.025C93.264 152.764 102.347 152.275 102.353 152.014C102.358 151.753 93.3104 150.878 93.3452 150.617C93.38 150.355 102.382 151.52 102.44 151.264C102.498 151.008 93.7686 148.526 93.844 148.271C93.9194 148.015 102.544 150.77 102.672 150.543C102.799 150.315 94.656 146.3 94.7778 146.067C94.8996 145.834 102.898 150.094 103.031 149.872C103.165 149.651 95.9494 144.255 96.1176 144.05C96.2858 143.846 103.321 149.475 103.507 149.282C103.692 149.089 97.6082 142.466 97.8112 142.307C98.0142 142.148 103.872 148.941 104.087 148.788C104.301 148.634 99.5686 141.04 99.7948 140.904C100.021 140.767 104.516 148.509 104.76 148.401C105.003 148.293 101.761 139.972 102.01 139.881C102.26 139.79 105.229 148.208 105.49 148.14C105.751 148.072 104.116 139.313 104.383 139.274C104.649 139.234 105.983 148.032 106.25 148.015C106.517 147.998 106.563 139.097 106.83 139.103C107.097 139.109 106.743 148.004 107.016 148.032C107.288 148.061 109.005 139.325 109.266 139.376C109.527 139.427 107.526 148.112 107.776 148.191C108.025 148.271 111.354 139.984 111.604 140.08C111.853 140.177 108.263 148.356 108.495 148.481C108.727 148.606 113.552 141.057 113.779 141.199C114.005 141.341 108.93 148.725 109.139 148.89C109.347 149.055 115.519 142.505 115.704 142.687C115.89 142.869 109.533 149.197 109.713 149.384C109.893 149.571 117.172 144.272 117.334 144.471C117.496 144.67 110.032 149.77 110.165 149.997C110.299 150.225 118.459 146.3 118.575 146.538C118.691 146.777 110.409 150.44 110.502 150.69C110.594 150.94 119.341 148.538 119.41 148.793C119.48 149.049 110.652 151.162 110.71 151.423C110.768 151.684 119.811 150.901 119.828 151.162C119.845 151.423 110.78 151.917 110.78 152.184C110.78 152.451 119.816 153.32 119.787 153.581C119.758 153.843 110.745 152.673 110.693 152.934C110.641 153.195 119.335 155.672 119.254 155.927Z" fill="black"/>
</g>
<g opacity="0.1">
<path d="M117.177 152.292L116.905 152.9L118.349 153.724L116.673 154.11L115.223 154.365L116.916 155.479L115.855 155.757L116.464 156.7L116.365 157.393L116.777 158.432L114.886 157.984L113.402 157.575L114.875 159.625L114.944 160.67L113.245 159.818L111.894 159.08L113.048 161.749L111.145 159.915L111.627 162.085L110.078 160.25L109.736 160.903L109.771 163.067L108.524 160.767L108.373 163.232L107.48 161.318L106.946 162.403L106.279 163.948L105.647 162.692L104.812 163.874L104.528 161.63L103.982 161.357L103.565 160.738L102.921 160.835L101.912 161.59L102.016 160.085L101.773 159.426L100.404 160.392L100.653 159.108L98.397 160.693L100.131 158.08L99.7136 157.745L97.527 158.688L96.7034 158.427L97.8286 156.984L98.4898 156.001L96.7556 156.143L98.165 154.985L97.2196 154.712L96.7266 154.229L94.9808 153.905L97.3472 152.979L95.6826 152.497L96.7498 151.878L95.5782 151.202L96.3728 150.656L95.1954 149.804L97.8228 149.782L97.6024 149.151L95.9958 147.913L98.7914 148.475L97.4516 147.169L99.1916 147.527L97.208 145.488L98.0316 145.272L98.3622 144.687L99.296 144.692L99.7426 144.255L101.065 144.942L100.299 142.835L102.022 144.42L102.213 143.596L102.88 143.67L102.608 141.29L103.368 141.37L104.325 142.471L105.021 142.983L105.398 141.057L106.059 140.455L106.755 141.404L107.37 141.966L107.816 143.238L108.779 141.307L109.318 141.903L109.69 142.824L111.029 141.142L111.198 142.454L111.418 143.397L112.224 143.267L111.789 144.931L112.276 145.187L113.407 144.783L113.239 145.772L114.469 145.465L115.901 145.187L115.31 146.402L114.446 147.606L117.253 146.839L115.368 148.39L117.821 148.14L116.145 149.35L118.123 149.526L116.348 150.514L118.181 150.929L116.278 151.696L117.177 152.292Z" fill="black"/>
</g>
<g opacity="0.1">
<path d="M98.4492 152.269L98.6638 152.747L97.5328 153.394L98.8436 153.695L99.9804 153.894L98.658 154.763L99.4874 154.979L99.006 155.717L99.0872 156.257L98.7624 157.075L100.241 156.717L101.401 156.404L100.253 158.001L100.195 158.818L101.523 158.154L102.579 157.58L101.68 159.665L103.165 158.228L102.788 159.926L104 158.495L104.267 159L104.238 160.693L105.212 158.898L105.328 160.823L106.03 159.324L106.447 160.17L106.969 161.38L107.462 160.397L108.112 161.323L108.332 159.568L108.762 159.358L109.086 158.875L109.591 158.949L110.38 159.54L110.299 158.364L110.484 157.847L111.557 158.603L111.36 157.597L113.123 158.835L111.772 156.796L112.097 156.535L113.808 157.273L114.451 157.063L113.57 155.939L113.054 155.166L114.405 155.285L113.303 154.377L114.045 154.161L114.428 153.786L115.797 153.536L113.947 152.809L115.246 152.434L114.411 151.946L115.327 151.423L114.707 150.991L115.629 150.327L113.576 150.31L113.744 149.816L115.002 148.85L112.816 149.287L113.866 148.271L112.503 148.549L114.057 146.953L113.413 146.783L113.152 146.328L112.427 146.334L112.073 145.993L111.041 146.527L111.638 144.88L110.293 146.124L110.148 145.476L109.626 145.533L109.835 143.676L109.243 143.738L108.495 144.601L107.95 144.999L107.654 143.494L107.138 143.022L106.598 143.761L106.117 144.204L105.763 145.198L105.015 143.693L104.591 144.153L104.301 144.874L103.257 143.562L103.124 144.584L102.95 145.317L102.324 145.22L102.66 146.516L102.283 146.72L101.396 146.402L101.529 147.18L100.566 146.942L99.4468 146.72L99.9108 147.669L100.584 148.611L98.3912 148.009L99.8644 149.225L97.9504 149.026L99.2612 149.975L97.7126 150.111L99.0988 150.883L97.6662 151.207L99.1568 151.804L98.4492 152.269Z" fill="black"/>
</g>
<path d="M113.1 152.224C113.073 153.491 112.663 154.721 111.922 155.759C111.181 156.798 110.142 157.597 108.936 158.057C107.731 158.516 106.413 158.615 105.15 158.341C103.887 158.067 102.735 157.432 101.841 156.516C100.947 155.601 100.35 154.446 100.127 153.198C99.903 151.95 100.062 150.666 100.585 149.507C101.107 148.348 101.969 147.366 103.061 146.687C104.153 146.008 105.427 145.662 106.72 145.692C108.45 145.732 110.093 146.442 111.288 147.667C112.484 148.891 113.136 150.53 113.1 152.224Z" fill="#263238"/>
<path d="M119.103 144.545C119.076 145.811 118.666 147.042 117.925 148.08C117.184 149.118 116.145 149.918 114.939 150.378C113.734 150.837 112.416 150.936 111.153 150.662C109.89 150.388 108.738 149.753 107.844 148.837C106.95 147.921 106.353 146.767 106.13 145.519C105.906 144.271 106.065 142.986 106.588 141.827C107.11 140.668 107.972 139.687 109.064 139.008C110.156 138.329 111.43 137.983 112.723 138.013C114.453 138.053 116.095 138.763 117.291 139.987C118.487 141.212 119.139 142.851 119.103 144.545Z" fill="white"/>
<path d="M137.367 158.16C137.367 158.16 118.349 171.916 103.547 170.928C88.7458 169.94 76.589 157.518 71.92 151.128C71.92 151.128 83.9318 170.531 103.53 171.462C121.382 172.308 137.367 158.16 137.367 158.16Z" fill="#263238"/>
<path d="M139.502 117.9C142.46 118.11 143.991 102.473 142.895 101.632C141.798 100.792 115.136 95.0719 104.139 93.5042C93.1422 91.9365 78.4102 97.6279 70.9572 102.552C63.5042 107.477 46.6436 121.688 46.6436 121.688C46.6436 121.688 78.3986 109.584 85.6196 108.289C100.589 105.603 134.102 117.525 139.502 117.9Z" fill="#263238"/>
<path d="M139.014 117.763C140.366 117.502 141.218 116.531 141.833 115.491C142.439 114.391 142.919 113.229 143.266 112.027C143.66 110.822 143.968 109.578 144.287 108.335C144.606 107.091 144.867 105.824 145.278 104.557C145.367 105.868 145.334 107.183 145.18 108.488C145.035 109.801 144.765 111.098 144.374 112.362C143.993 113.66 143.389 114.886 142.587 115.986C142.167 116.546 141.639 117.021 141.033 117.383C140.424 117.731 139.712 117.866 139.014 117.763Z" fill="#263238"/>
<path d="M141.131 117.701C141.737 117.315 142.286 116.849 142.761 116.315C143.206 115.793 143.604 115.234 143.95 114.645C144.31 114.077 144.646 113.435 144.988 112.805C145.321 112.145 145.689 111.502 146.09 110.879C146.119 111.635 146.033 112.392 145.835 113.123C145.641 113.862 145.343 114.572 144.948 115.23C144.544 115.909 144.006 116.502 143.364 116.974C142.725 117.455 141.938 117.711 141.131 117.701Z" fill="#263238"/>
<path d="M45.1124 124.352C46.7582 123.446 48.47 122.66 50.2338 122.001C51.1154 121.671 51.9738 121.359 52.9076 121.092C53.8099 120.807 54.7355 120.598 55.6742 120.467C54.7926 120.802 53.9342 121.166 53.0584 121.506L50.46 122.529C48.72 123.188 46.9336 123.824 45.1124 124.352Z" fill="#263238"/>
<path d="M141.45 99.2808C141.555 100.485 141.584 101.689 141.595 102.893C141.607 104.097 141.595 105.302 141.526 106.506C141.456 107.71 141.387 108.914 141.247 110.113C141.131 111.317 140.922 112.512 140.621 113.685C140.656 113.077 140.702 112.481 140.72 111.879C140.737 111.277 140.783 110.681 140.801 110.084L140.946 106.483C141.01 105.285 141.062 104.08 141.149 102.882C141.236 101.683 141.317 100.485 141.45 99.2808Z" fill="#FFC4C0"/>
<path d="M45.3096 122.631C46.3362 121.955 47.3976 121.342 48.4648 120.745C49.532 120.149 50.6166 119.609 51.7128 119.041C52.809 118.473 53.9284 117.991 55.0652 117.525C56.193 117.038 57.3562 116.633 58.5452 116.315C57.9652 116.582 57.4374 116.832 56.8922 117.11C56.347 117.389 55.7902 117.644 55.2508 117.923L51.968 119.553C50.8718 120.087 49.7756 120.626 48.662 121.137C47.5484 121.649 46.4464 122.16 45.3096 122.631Z" fill="#FFC4C0"/>
<path d="M139.844 107.812C139.902 109.083 139.879 110.356 139.774 111.623C139.722 112.254 139.652 112.89 139.548 113.515C139.46 114.147 139.306 114.77 139.09 115.372C139.206 114.747 139.27 114.117 139.328 113.492L139.484 111.601C139.594 110.34 139.687 109.056 139.844 107.812Z" fill="#FFC4C0"/>
<path d="M195.762 112.776C192.862 113.282 189.66 97.8834 190.663 96.9406C191.667 95.9977 211.932 87.2505 222.761 84.8081C237.585 81.4739 246.819 107.642 246.819 107.642C246.819 107.642 238.653 98.1618 231.321 98.264C219.959 98.4798 201.092 111.856 195.762 112.776Z" fill="#263238"/>
<path d="M196.226 112.589C195.543 112.759 194.822 112.693 194.184 112.402C193.54 112.107 192.964 111.688 192.49 111.169C191.574 110.163 190.842 109.01 190.327 107.761C189.292 105.323 188.703 102.725 188.587 100.087C189.109 101.303 189.527 102.53 189.973 103.74C190.42 104.949 190.861 106.154 191.377 107.312C191.851 108.472 192.451 109.579 193.169 110.612C193.906 111.589 194.88 112.464 196.226 112.589Z" fill="#263238"/>
<path d="M194.12 112.742C193.311 112.84 192.493 112.663 191.8 112.242C191.119 111.837 190.527 111.302 190.06 110.669C189.598 110.054 189.225 109.379 188.952 108.664C188.676 107.958 188.512 107.215 188.465 106.46C188.958 107.028 189.358 107.664 189.764 108.266C190.17 108.869 190.571 109.437 190.988 109.97C191.398 110.521 191.854 111.038 192.351 111.515C192.88 112.003 193.475 112.416 194.12 112.742Z" fill="#263238"/>
<path d="M246.802 108.516C245.515 107.774 244.277 106.952 243.095 106.057C241.935 105.171 240.775 104.251 239.615 103.268C240.966 103.909 242.242 104.692 243.42 105.603C244.628 106.481 245.759 107.455 246.802 108.516Z" fill="#263238"/>
<path d="M187.85 149.73C189.735 141.955 196.33 128.305 207.541 123.682C220.939 118.15 228.218 131.98 228.218 131.98C228.218 131.98 226.478 136.587 224.669 140.716C222.859 144.846 218.155 154.507 210.169 156.376C202.182 158.245 192.595 152.605 190.988 151.395C189.382 150.185 186.98 153.326 187.85 149.73Z" fill="white"/>
<path d="M200.552 155.814C197.142 154.845 193.91 153.353 190.977 151.395C189.37 150.19 186.98 153.326 187.85 149.73C189.312 144.136 191.793 138.846 195.176 134.116C192.514 138.967 190.878 144.34 191.568 147.555C192.258 150.77 196.719 154.047 200.552 155.814Z" fill="#EBEBEB"/>
<path d="M228.218 131.98C228.218 131.98 226.478 136.593 224.669 140.711C224.477 141.142 224.263 141.631 224.002 142.17C225.307 138.762 225.846 134.116 225.405 131.98C224.965 129.845 221.456 123.921 214.658 122.41C223.497 123.006 228.218 131.98 228.218 131.98Z" fill="#EBEBEB"/>
<path d="M215.062 142.177C215.23 134.289 210.801 127.802 205.171 127.688C199.541 127.573 194.841 133.875 194.674 141.762C194.507 149.65 198.935 156.137 204.565 156.252C210.195 156.366 214.895 150.065 215.062 142.177Z" fill="#BA68C8"/>
<g opacity="0.1">
<path d="M214.211 142.148C214.211 142.42 207.971 142.148 207.947 142.432C207.924 142.716 214.02 144.272 214.02 144.55C214.02 144.829 207.901 142.96 207.843 143.216C207.785 143.471 213.573 146.624 213.498 146.873C213.423 147.123 207.698 143.721 207.623 143.96C207.547 144.198 212.785 148.805 212.68 149.032C212.576 149.259 207.425 144.431 207.304 144.641C207.182 144.851 211.735 150.742 211.601 150.935C211.468 151.128 207.048 145.056 206.903 145.255C206.758 145.453 210.447 152.4 210.291 152.559C210.134 152.718 206.596 145.595 206.428 145.743C206.26 145.891 208.968 153.695 208.794 153.82C208.62 153.945 206.091 145.999 205.894 146.095C205.697 146.192 207.333 154.615 207.147 154.661C206.961 154.706 205.529 146.254 205.337 146.3C205.146 146.345 205.627 155.053 205.436 155.07C205.245 155.087 204.955 146.368 204.757 146.362C204.56 146.357 203.905 155.064 203.713 155.036C203.522 155.007 204.369 146.334 204.183 146.277C203.998 146.22 202.205 154.638 202.026 154.559C201.846 154.479 203.812 146.146 203.638 146.039C203.464 145.931 200.593 153.763 200.425 153.638C200.257 153.513 203.29 145.811 203.133 145.686C202.977 145.561 199.137 152.502 198.986 152.349C198.836 152.196 202.82 145.368 202.681 145.187C202.542 145.005 197.873 150.867 197.745 150.696C197.618 150.526 202.414 144.795 202.304 144.579C202.194 144.363 196.84 148.975 196.748 148.742C196.655 148.509 202.095 144.13 202.014 143.886C201.933 143.642 196.086 146.777 196.04 146.544C195.994 146.311 201.886 143.38 201.84 143.136C201.794 142.892 195.646 144.482 195.617 144.215C195.588 143.948 201.765 142.613 201.753 142.341C201.741 142.068 195.501 142.08 195.506 141.807C195.512 141.534 201.747 141.807 201.77 141.523C201.794 141.239 195.675 139.666 195.715 139.404C195.756 139.143 201.834 140.995 201.892 140.739C201.95 140.483 196.162 137.331 196.237 137.081C196.313 136.831 202.037 140.234 202.113 139.995C202.188 139.756 196.951 135.15 197.055 134.928C197.159 134.707 202.31 139.524 202.432 139.313C202.553 139.103 198.006 133.213 198.14 133.02C198.273 132.827 202.687 138.899 202.838 138.7C202.988 138.501 199.288 131.555 199.445 131.395C199.601 131.236 203.139 138.359 203.307 138.211C203.476 138.064 200.767 130.259 200.941 130.135C201.115 130.01 203.644 137.956 203.841 137.859C204.038 137.763 202.397 129.339 202.588 129.294C202.78 129.248 204.201 137.7 204.392 137.655C204.583 137.609 204.102 128.902 204.293 128.885C204.485 128.868 204.781 137.587 204.972 137.592C205.163 137.598 205.83 128.891 206.016 128.919C206.202 128.947 205.361 137.626 205.546 137.678C205.732 137.729 207.524 129.317 207.71 129.396C207.895 129.476 205.917 137.808 206.091 137.916C206.265 138.024 209.136 130.191 209.305 130.316C209.473 130.441 206.439 138.143 206.602 138.268C206.764 138.393 210.598 131.452 210.743 131.606C210.888 131.759 206.915 138.586 207.048 138.768C207.182 138.95 211.862 133.06 211.984 133.259C212.106 133.457 207.315 139.16 207.425 139.376C207.536 139.592 212.889 134.98 212.988 135.212C213.086 135.445 207.634 139.825 207.715 140.069C207.797 140.313 213.649 137.138 213.713 137.394C213.776 137.649 207.86 140.557 207.913 140.802C207.965 141.046 214.113 139.455 214.142 139.722C214.171 139.989 207.988 141.324 208 141.597C208.011 141.869 214.217 141.875 214.211 142.148Z" fill="black"/>
</g>
<g opacity="0.1">
<path d="M212.715 145.289C212.663 145.516 207.315 143.119 207.251 143.329C207.188 143.539 212.199 147.055 212.123 147.26C212.048 147.464 207.112 143.732 207.025 143.926C206.938 144.119 211.387 148.878 211.282 149.038C211.178 149.197 206.84 144.261 206.724 144.431C206.608 144.601 210.349 150.44 210.204 150.594C210.059 150.747 206.48 144.738 206.341 144.88C206.202 145.022 209.107 151.73 208.962 151.849C208.817 151.968 206.062 145.124 205.923 145.226C205.784 145.328 207.739 152.69 207.582 152.769C207.425 152.849 205.627 145.385 205.465 145.459C205.303 145.533 206.271 153.286 206.103 153.326C205.935 153.366 205.163 145.556 204.995 145.573C204.827 145.59 204.752 153.496 204.583 153.491C204.415 153.485 204.688 145.59 204.52 145.539C204.351 145.488 203.232 153.286 203.07 153.235C202.907 153.184 204.23 145.47 204.044 145.402C203.858 145.334 201.776 152.712 201.625 152.622C201.475 152.531 203.748 145.238 203.597 145.152C203.447 145.067 200.419 151.77 200.28 151.645C200.141 151.52 203.331 144.937 203.18 144.789C203.029 144.641 199.189 150.469 199.068 150.333C198.946 150.196 202.942 144.505 202.838 144.329C202.733 144.153 198.198 148.918 198.076 148.731C197.954 148.543 202.64 143.988 202.559 143.784C202.478 143.579 197.386 147.118 197.339 146.908C197.293 146.697 202.432 143.397 202.379 143.176C202.327 142.954 196.875 145.135 196.835 144.88C196.794 144.624 202.287 142.727 202.258 142.494C202.229 142.261 196.608 143.011 196.597 142.778C196.585 142.545 202.223 142.068 202.229 141.83C202.234 141.591 196.626 140.875 196.643 140.637C196.661 140.398 202.252 141.392 202.287 141.165C202.321 140.938 196.922 138.779 196.974 138.552C197.026 138.325 202.374 140.728 202.437 140.512C202.501 140.296 197.484 136.786 197.56 136.581C197.635 136.377 202.571 140.109 202.664 139.915C202.756 139.722 198.302 134.962 198.406 134.803C198.511 134.644 202.843 139.58 202.959 139.41C203.075 139.24 199.34 133.4 199.479 133.247C199.619 133.094 203.203 139.103 203.336 138.961C203.47 138.819 200.576 132.111 200.721 131.992C200.866 131.873 203.621 138.717 203.76 138.615C203.899 138.512 201.939 131.151 202.101 131.072C202.263 130.992 204.05 138.456 204.212 138.382C204.375 138.308 203.406 130.555 203.574 130.515C203.742 130.475 204.52 138.285 204.682 138.268C204.844 138.251 204.931 130.316 205.1 130.35C205.268 130.384 204.995 138.251 205.163 138.302C205.332 138.353 206.48 130.589 206.613 130.64C206.747 130.691 205.453 138.405 205.639 138.473C205.825 138.541 207.907 131.163 208.063 131.253C208.22 131.344 205.941 138.637 206.086 138.723C206.231 138.808 209.264 132.105 209.403 132.23C209.542 132.355 206.352 138.938 206.503 139.086C206.654 139.234 210.494 133.406 210.61 133.542C210.726 133.679 206.735 139.37 206.845 139.546C206.956 139.722 211.485 134.957 211.601 135.144C211.717 135.332 207.037 139.887 207.124 140.092C207.211 140.296 212.292 136.757 212.344 136.973C212.396 137.189 207.251 140.483 207.309 140.699C207.367 140.915 212.808 138.74 212.848 138.995C212.889 139.251 207.402 141.148 207.425 141.381C207.449 141.614 213.075 140.864 213.086 141.097C213.098 141.33 207.46 141.813 207.454 142.045C207.449 142.278 213.057 143 213.04 143.238C213.022 143.477 207.431 142.483 207.396 142.71C207.362 142.937 212.767 145.062 212.715 145.289Z" fill="black"/>
</g>
<g opacity="0.1">
<path d="M211.352 142.131L211.184 142.665L212.077 143.386L211.039 143.727L210.14 143.948L211.19 144.92L210.534 145.164L210.911 145.993L210.847 146.595L211.103 147.51L209.937 147.112L209.015 146.76L209.925 148.549L209.972 149.464L208.922 148.719L208.087 148.072L208.8 150.406L207.617 148.805L207.918 150.702L206.961 149.1L206.747 149.668L206.77 151.559L205.999 149.549L205.906 151.707L205.355 150.032L205.024 150.98L204.612 152.332L204.224 151.236L203.708 152.264L203.528 150.304L203.191 150.066L202.936 149.526L202.536 149.611L201.91 150.27L201.973 148.952L201.828 148.379L200.976 149.219L201.132 148.1L199.74 149.481L200.813 147.197L200.552 146.902L199.201 147.731L198.691 147.498L199.387 146.243L199.798 145.374L198.725 145.505L199.595 144.494L199.01 144.249L198.708 143.829L197.623 143.545L199.091 142.733L198.064 142.312L198.72 141.767L197.995 141.182L198.488 140.705L197.763 139.955L199.387 139.938L199.247 139.387L198.25 138.302L199.984 138.791L199.155 137.649L200.228 137.962L199.004 136.178L199.514 135.991L199.717 135.479H200.291L200.57 135.099L201.388 135.701L200.912 133.855L201.979 135.246L202.095 134.525L202.507 134.588L202.345 132.503L202.814 132.577L203.406 133.542L203.835 133.986L204.067 132.304L204.473 131.776L204.908 132.605L205.285 133.094L205.564 134.207L206.155 132.526L206.492 133.043L206.724 133.849L207.553 132.378L207.652 133.525L207.791 134.349L208.29 134.235L208.023 135.69L208.319 135.917L209.02 135.559L208.916 136.428L209.676 136.161L210.563 135.911L210.198 136.979L209.664 138.035L211.398 137.359L210.233 138.723L211.746 138.501L210.714 139.563L211.938 139.711L210.842 140.58L211.973 140.938L210.795 141.608L211.352 142.131Z" fill="black"/>
</g>
<g opacity="0.1">
<path d="M199.769 142.114L199.903 142.534L199.207 143.096L200.013 143.358L200.715 143.534L199.897 144.295L200.413 144.488L200.117 145.13L200.164 145.601L199.967 146.317L200.877 146.004L201.596 145.732L200.883 147.129L200.848 147.845L201.672 147.26L202.321 146.76L201.765 148.583L202.687 147.328L202.455 148.81L203.203 147.561L203.365 148.004L203.348 149.486L203.951 147.913L204.027 149.6L204.456 148.288L204.717 149.026L205.036 150.083L205.343 149.225L205.749 150.032L205.883 148.504L206.149 148.316L206.347 147.89L206.66 147.958L207.147 148.475L207.101 147.447L207.217 146.993L207.878 147.652L207.756 146.777L208.846 147.862L208.005 146.078L208.214 145.845L209.27 146.493L209.664 146.311L209.125 145.328L208.8 144.653L209.641 144.749L208.957 143.96L209.415 143.772L209.653 143.443L210.499 143.221L209.351 142.585L210.157 142.256L209.641 141.83L210.209 141.37L209.827 141L210.395 140.415L209.125 140.404L209.229 139.967L210.006 139.12L208.655 139.506L209.305 138.615L208.464 138.859L209.421 137.462L209.026 137.314L208.864 136.916H208.411L208.197 136.621L207.559 137.087L207.93 135.65L207.095 136.735L207.002 136.172L206.683 136.218L206.811 134.593L206.445 134.65L205.981 135.4L205.645 135.752L205.465 134.434L205.146 134.025L204.81 134.673L204.514 135.053L204.293 135.922L203.829 134.605L203.568 135.014L203.389 135.638L202.745 134.491L202.664 135.388L202.553 136.03L202.165 135.945L202.374 137.081L202.142 137.257L201.591 136.979L201.678 137.66L201.08 137.45L200.39 137.257L200.674 138.086L201.092 138.91L199.735 138.388L200.645 139.45L199.462 139.279L200.274 140.109L199.317 140.222L200.17 140.904L199.288 141.182L200.21 141.71L199.769 142.114Z" fill="black"/>
</g>
<path d="M208.922 142.052C208.988 138.913 207.227 136.331 204.989 136.285C202.75 136.24 200.882 138.748 200.815 141.887C200.748 145.027 202.509 147.609 204.748 147.654C206.986 147.7 208.855 145.192 208.922 142.052Z" fill="#263238"/>
<path d="M212.738 134.501C212.802 131.361 211.039 128.78 208.8 128.736C206.561 128.692 204.694 131.202 204.63 134.342C204.566 137.482 206.329 140.064 208.568 140.107C210.807 140.151 212.674 137.641 212.738 134.501Z" fill="white"/>
<path d="M187.827 149.293C191.174 143.204 198.482 124.966 210.215 122.841C218.254 121.387 225.985 130.282 229.355 132.407C232.255 134.258 236.275 132.23 238.542 129.851C238.542 129.851 234.152 134.19 229.123 130.583C224.095 126.976 218.683 119.933 209.699 121.495C195.419 124.011 187.595 149.327 187.595 149.327" fill="#263238"/>
<path d="M237.887 127.147C237.381 128.178 236.607 129.062 235.642 129.708C234.674 130.391 233.559 130.845 232.383 131.038C232.093 131.094 231.803 131.094 231.495 131.128H231.049L230.608 131.1C230.312 131.1 230.028 131.066 229.726 131.02C229.425 130.975 229.146 130.901 228.868 130.833C228.31 130.688 227.765 130.498 227.238 130.265C226.73 130.004 226.238 129.714 225.765 129.396C226.345 129.481 226.873 129.629 227.418 129.737L228.23 129.862C228.494 129.918 228.761 129.954 229.03 129.97C229.305 129.97 229.572 129.992 229.831 130.038C230.098 130.038 230.364 130.038 230.625 130.038H231.02L231.414 129.992C231.675 129.978 231.934 129.95 232.191 129.907C233.23 129.737 234.235 129.412 235.173 128.942C236.151 128.457 237.063 127.854 237.887 127.147Z" fill="#263238"/>
<path d="M237.145 124.222C236.591 125.366 235.761 126.36 234.726 127.118C233.688 127.913 232.487 128.479 231.205 128.777C229.929 129.07 228.606 129.108 227.314 128.891L226.838 128.817L226.368 128.692L225.452 128.419C224.856 128.189 224.275 127.924 223.712 127.624C224.35 127.675 224.953 127.806 225.568 127.879L226.478 127.959L226.931 128.004H227.383C227.685 128.004 227.963 128.004 228.282 128.004C228.601 128.004 228.862 127.953 229.175 127.931H229.616L230.051 127.851C230.345 127.814 230.636 127.757 230.921 127.681L231.774 127.465C232.046 127.363 232.319 127.255 232.603 127.164C233.153 126.942 233.687 126.685 234.204 126.397C235.272 125.793 236.259 125.062 237.145 124.222Z" fill="#263238"/>
<path d="M233.833 122.313C233.126 123.456 232.126 124.397 230.933 125.045C229.736 125.73 228.399 126.143 227.018 126.255C225.642 126.345 224.262 126.165 222.958 125.727C222.322 125.511 221.703 125.249 221.108 124.943C220.528 124.602 219.977 124.239 219.449 123.852C220.098 124.017 220.707 124.244 221.328 124.42L222.262 124.648C222.567 124.742 222.879 124.814 223.196 124.863C223.509 124.909 223.816 124.96 224.124 125.022C224.431 125.085 224.75 125.074 225.063 125.102C225.371 125.144 225.681 125.157 225.991 125.142C226.299 125.142 226.612 125.142 226.919 125.113C228.159 125.014 229.375 124.72 230.521 124.244C231.714 123.759 232.829 123.109 233.833 122.313Z" fill="#263238"/>
<path d="M235.561 123.159C235.036 124.278 234.225 125.244 233.206 125.965C232.185 126.726 230.991 127.234 229.726 127.448C228.463 127.65 227.17 127.576 225.939 127.232C225.632 127.166 225.332 127.069 225.046 126.942L224.187 126.59C223.648 126.299 223.125 125.979 222.621 125.63C223.23 125.749 223.781 125.926 224.361 126.062L225.237 126.227C225.521 126.296 225.81 126.343 226.101 126.369C226.391 126.369 226.681 126.42 226.966 126.46C227.25 126.499 227.546 126.46 227.824 126.46H228.247L228.671 126.42C228.953 126.401 229.234 126.365 229.512 126.312L230.347 126.153C230.614 126.068 230.881 125.977 231.153 125.897C231.426 125.818 231.675 125.687 231.942 125.585C232.209 125.483 232.452 125.329 232.713 125.21C233.75 124.651 234.707 123.961 235.561 123.159Z" fill="#263238"/>
<path d="M226.902 117.241C226.634 118.427 226.094 119.538 225.324 120.49C224.553 121.479 223.561 122.281 222.424 122.836C221.291 123.406 220.033 123.698 218.759 123.688C218.138 123.694 217.517 123.637 216.908 123.517C216.315 123.37 215.733 123.18 215.168 122.949C215.783 122.915 216.375 122.949 216.966 122.949L217.842 122.892C218.129 122.884 218.414 122.85 218.695 122.79C219.814 122.644 220.901 122.314 221.908 121.813C222.92 121.315 223.847 120.668 224.657 119.893C225.491 119.082 226.243 118.194 226.902 117.241Z" fill="#263238"/>
<path d="M230.034 119.28C229.627 120.419 228.942 121.443 228.039 122.262C227.128 123.121 226.017 123.749 224.802 124.091C224.502 124.188 224.193 124.256 223.88 124.295C223.574 124.363 223.26 124.398 222.946 124.398H222.007C221.693 124.364 221.386 124.318 221.079 124.273L220.626 124.199L220.18 124.074L219.31 123.796C218.756 123.557 218.218 123.286 217.697 122.983C218.306 123.046 218.857 123.177 219.437 123.256L220.301 123.341C220.446 123.341 220.586 123.37 220.725 123.392H221.154C221.438 123.392 221.734 123.392 222.001 123.392L222.836 123.307C223.112 123.289 223.386 123.246 223.654 123.177C223.927 123.136 224.197 123.074 224.46 122.989C225.531 122.683 226.541 122.201 227.447 121.563C228.397 120.903 229.265 120.137 230.034 119.28Z" fill="#263238"/>
<path d="M224.309 116.037C224.069 117.233 223.557 118.36 222.813 119.337C222.066 120.345 221.099 121.178 219.982 121.774C218.866 122.381 217.617 122.716 216.34 122.751C215.717 122.78 215.093 122.744 214.478 122.643C213.877 122.52 213.286 122.355 212.709 122.148C213.33 122.092 213.921 122.148 214.507 122.086C215.091 122.047 215.672 121.975 216.247 121.87C217.364 121.684 218.44 121.315 219.431 120.78C220.432 120.246 221.345 119.569 222.14 118.769C222.951 117.928 223.677 117.013 224.309 116.037Z" fill="#263238"/>
<path d="M220.4 115.633C220.16 116.827 219.648 117.953 218.904 118.928C218.157 119.938 217.19 120.772 216.073 121.37C214.957 121.976 213.707 122.309 212.431 122.342C211.808 122.371 211.184 122.335 210.569 122.234C209.968 122.111 209.377 121.946 208.8 121.739C209.421 121.683 210.012 121.739 210.598 121.677C211.182 121.641 211.763 121.569 212.338 121.461C213.455 121.278 214.532 120.909 215.522 120.371C216.52 119.838 217.43 119.16 218.219 118.36C219.035 117.523 219.766 116.61 220.4 115.633Z" fill="#263238"/>
<path d="M216.555 114.355C216.477 115.596 216.131 116.806 215.54 117.905C214.955 119.033 214.144 120.034 213.156 120.848C212.911 121.058 212.649 121.248 212.373 121.416C212.094 121.58 211.833 121.774 211.543 121.91C210.964 122.193 210.356 122.414 209.728 122.569C209.112 122.727 208.48 122.818 207.843 122.841C207.216 122.85 206.589 122.806 205.97 122.711C206.579 122.535 207.182 122.467 207.756 122.29C208.33 122.136 208.894 121.947 209.444 121.722C210.526 121.304 211.529 120.713 212.413 119.973C213.311 119.24 214.103 118.392 214.768 117.451C215.454 116.472 216.052 115.436 216.555 114.355Z" fill="#263238"/>
<path d="M225.736 138.592C225.936 138.347 226.192 138.152 226.484 138.024C226.771 137.894 227.08 137.817 227.395 137.797C227.707 137.777 228.021 137.81 228.323 137.893C228.479 137.933 228.619 137.996 228.764 138.047C228.901 138.116 229.034 138.191 229.164 138.274C228.862 138.211 228.584 138.143 228.282 138.109C227.994 138.071 227.702 138.062 227.412 138.081C226.822 138.129 226.25 138.304 225.736 138.592Z" fill="#263238"/>
<path d="M220.754 148.401C220.842 148.154 220.993 147.933 221.195 147.76C221.398 147.571 221.659 147.454 221.938 147.424C222.216 147.394 222.497 147.454 222.737 147.595C222.85 147.662 222.959 147.736 223.062 147.816C223.149 147.913 223.242 148.004 223.323 148.1C223.104 147.984 222.877 147.881 222.645 147.794C222.427 147.718 222.196 147.689 221.966 147.708C221.492 147.794 221.063 148.039 220.754 148.401Z" fill="#263238"/>
<path d="M226.119 138.109C226.216 137.768 226.389 137.452 226.623 137.183C226.856 136.899 227.16 136.678 227.505 136.541C227.855 136.403 228.239 136.373 228.607 136.456C228.784 136.494 228.957 136.549 229.123 136.621C229.281 136.703 229.434 136.794 229.581 136.894C229.255 136.783 228.916 136.708 228.572 136.672C228.245 136.64 227.914 136.687 227.609 136.808C226.991 137.086 226.472 137.539 226.119 138.109Z" fill="#263238"/>
<path d="M214.188 155.155C214.375 154.787 214.642 154.464 214.971 154.208C215.3 153.953 215.682 153.772 216.091 153.678C216.502 153.586 216.928 153.577 217.343 153.65C217.54 153.69 217.733 153.741 217.923 153.803C218.115 153.883 218.3 153.962 218.503 154.053C218.112 153.963 217.715 153.902 217.314 153.871C216.926 153.839 216.534 153.868 216.154 153.956C215.387 154.145 214.7 154.564 214.188 155.155Z" fill="#263238"/>
<path d="M224.019 142.511C224.111 142.293 224.274 142.111 224.483 141.994C224.699 141.876 224.944 141.817 225.191 141.824C225.431 141.83 225.668 141.884 225.887 141.983C225.992 142.032 226.095 142.087 226.194 142.148C226.281 142.216 226.38 142.284 226.461 142.358L225.811 142.187C225.606 142.141 225.396 142.115 225.185 142.108C224.758 142.092 224.341 142.236 224.019 142.511Z" fill="#263238"/>
<path d="M223.712 142.994C223.874 142.819 224.094 142.706 224.332 142.676C224.575 142.636 224.824 142.664 225.052 142.755C225.269 142.848 225.466 142.981 225.632 143.147L225.858 143.409C225.916 143.505 225.98 143.596 226.032 143.698L225.487 143.312C225.304 143.196 225.109 143.099 224.907 143.022C224.525 142.869 224.1 142.859 223.712 142.994Z" fill="#263238"/>
<path d="M196.347 156.995C196.427 156.7 196.581 156.429 196.794 156.206C197.008 155.975 197.269 155.791 197.56 155.666C197.852 155.545 198.165 155.482 198.482 155.479C198.636 155.47 198.791 155.47 198.946 155.479C199.097 155.513 199.247 155.547 199.392 155.592C199.093 155.601 198.795 155.628 198.499 155.672C198.216 155.715 197.94 155.792 197.676 155.899C197.139 156.139 196.68 156.518 196.347 156.995Z" fill="#263238"/>
<path d="M219.82 149.679C219.937 149.457 220.103 149.262 220.307 149.111C220.506 148.955 220.729 148.83 220.968 148.742C221.203 148.652 221.449 148.595 221.699 148.572C221.949 148.548 222.202 148.561 222.447 148.611C221.982 148.715 221.523 148.846 221.073 149.003C220.626 149.173 220.205 149.4 219.82 149.679Z" fill="#263238"/>
<path d="M194.915 155.632C194.985 155.339 195.124 155.067 195.321 154.837C195.521 154.586 195.804 154.411 196.121 154.341C196.439 154.272 196.771 154.312 197.061 154.456C197.197 154.526 197.329 154.604 197.455 154.689C197.565 154.791 197.681 154.888 197.78 154.996C197.525 154.864 197.259 154.752 196.985 154.661C196.728 154.581 196.455 154.566 196.191 154.615C195.653 154.79 195.199 155.152 194.915 155.632Z" fill="#263238"/>
<path d="M206.48 158.393C206.477 158.002 206.556 157.616 206.712 157.257C206.866 156.867 207.156 156.543 207.53 156.342C207.92 156.16 208.367 156.133 208.777 156.268C208.976 156.332 209.169 156.41 209.357 156.501C209.525 156.615 209.693 156.717 209.856 156.836C209.658 156.774 209.484 156.694 209.276 156.626C209.086 156.565 208.892 156.516 208.696 156.478C208.339 156.4 207.965 156.44 207.634 156.592C207.313 156.769 207.051 157.033 206.88 157.353C206.705 157.683 206.571 158.032 206.48 158.393Z" fill="#263238"/>
<path d="M221.45 147.061C221.606 146.867 221.804 146.71 222.03 146.601C222.256 146.486 222.498 146.404 222.749 146.357C222.999 146.323 223.253 146.323 223.503 146.357C223.752 146.378 223.996 146.436 224.228 146.527C223.75 146.544 223.274 146.587 222.801 146.658C222.335 146.735 221.881 146.87 221.45 147.061Z" fill="#263238"/>
<path d="M190.513 151.168C190.513 151.168 201.718 158.659 210.157 156.376C219.565 153.831 225.237 140.319 228.218 131.98C228.218 131.98 222.198 154.786 209.954 157.007C198.824 159.04 190.513 151.168 190.513 151.168Z" fill="#263238"/>
<g opacity="0.2">
<path d="M189.387 80.1732C188.958 81.5194 188.633 82.8883 188.309 84.2628C187.984 85.6374 187.671 87.0063 187.369 88.3808C186.777 91.1375 186.226 93.898 185.716 96.6623C184.66 102.187 183.727 107.731 182.915 113.293C182.132 118.86 181.424 124.432 181.035 130.015C180.647 135.599 180.426 141.216 181.105 146.709C181.267 148.07 181.529 149.417 181.888 150.742C182.068 151.392 182.289 152.032 182.549 152.656C182.814 153.272 183.133 153.865 183.5 154.428C184.976 156.811 186.728 159.02 188.72 161.011C192.722 165.049 197.629 168.23 202.826 170.843C204.125 171.496 205.453 172.11 206.793 172.706L208.812 173.609C209.16 173.768 209.467 173.899 209.856 174.115C210.283 174.355 210.609 174.738 210.772 175.194C210.996 175.971 210.98 176.795 210.726 177.562C210.516 178.269 210.241 178.956 209.902 179.613C209.241 180.901 208.465 182.129 207.582 183.282C205.808 185.577 203.803 187.692 201.596 189.593C199.409 191.527 196.987 193.192 194.387 194.551C196.882 193.054 199.198 191.29 201.295 189.292C203.388 187.337 205.273 185.179 206.921 182.851C207.73 181.705 208.444 180.497 209.055 179.238C209.349 178.625 209.582 177.986 209.751 177.33C209.928 176.746 209.928 176.124 209.751 175.54C209.668 175.316 209.503 175.129 209.287 175.018C209.032 174.893 208.655 174.734 208.33 174.598L206.289 173.751C204.926 173.183 203.568 172.581 202.229 171.945C196.809 169.479 191.851 166.14 187.56 162.067C186.504 161.041 185.512 159.952 184.591 158.807C183.661 157.673 182.808 156.479 182.039 155.234C181.626 154.604 181.267 153.941 180.966 153.252C180.676 152.572 180.432 151.874 180.235 151.162C179.847 149.766 179.562 148.344 179.382 146.908C179.052 144.08 178.915 141.233 178.971 138.388C179.005 135.548 179.15 132.708 179.388 129.913C179.881 124.284 180.618 118.684 181.563 113.117C182.509 107.551 183.611 102.018 184.863 96.5146C185.509 93.7655 186.19 91.0258 186.905 88.2956C187.659 85.5579 188.384 82.8201 189.387 80.1732Z" fill="black"/>
<path d="M173.304 177.631C172.034 179.369 170.74 181.039 169.517 182.743C168.937 183.606 168.299 184.447 167.777 185.327C167.231 186.166 166.789 187.066 166.46 188.008C166.309 188.389 166.244 188.798 166.269 189.206C166.337 189.594 166.498 189.96 166.738 190.274C167.348 191.046 168.085 191.712 168.919 192.245C170.727 193.414 172.614 194.459 174.568 195.375C172.339 195.047 170.182 194.351 168.188 193.319C167.131 192.788 166.189 192.061 165.416 191.177C164.984 190.668 164.694 190.057 164.575 189.405C164.51 188.769 164.589 188.128 164.807 187.525C165.619 185.327 167.005 183.634 168.444 182.01C169.903 180.387 171.532 178.92 173.304 177.631Z" fill="black"/>
<path d="M176.755 193.063C176.718 193.058 176.685 193.039 176.661 193.011C176.637 192.982 176.625 192.946 176.627 192.91C176.64 192.839 176.667 192.771 176.709 192.711C176.788 192.594 176.879 192.486 176.981 192.387C177.18 192.188 177.389 191.998 177.608 191.819C178.048 191.467 178.512 191.155 178.976 190.842C179.913 190.227 180.881 189.658 181.876 189.138C183.886 188.081 186.008 187.241 188.204 186.633C188.776 186.486 189.358 186.374 189.944 186.298C190.556 186.213 191.177 186.213 191.789 186.298C192.128 186.349 192.455 186.457 192.757 186.616C193.112 186.797 193.385 187.101 193.523 187.468C193.627 187.809 193.627 188.173 193.523 188.514C193.438 188.808 193.315 189.09 193.157 189.354C192.558 190.322 191.783 191.174 190.872 191.87C190.015 192.6 189.033 193.177 187.972 193.574C188.91 193.002 189.763 192.307 190.507 191.507C191.26 190.772 191.892 189.927 192.38 189.002C192.594 188.642 192.667 188.218 192.583 187.809C192.485 187.565 192.113 187.389 191.62 187.338C190.572 187.274 189.52 187.399 188.517 187.707C187.451 187.981 186.402 188.313 185.374 188.701C184.33 189.07 183.309 189.496 182.282 189.922C181.256 190.348 180.252 190.814 179.261 191.302C178.756 191.541 178.269 191.797 177.787 192.069C177.544 192.206 177.312 192.348 177.086 192.501C176.974 192.577 176.869 192.662 176.772 192.757C176.691 192.842 176.593 193.001 176.755 193.063Z" fill="black"/>
<path d="M177.66 191.984C181.36 190.683 192.276 188.451 191.139 191.297C191.139 191.297 195.959 186.503 191.006 186.787C186.052 187.071 177.66 191.984 177.66 191.984Z" fill="black"/>
<path d="M184.394 196.721C184.196 197.8 183.93 198.84 183.651 199.874C183.529 200.39 183.373 200.902 183.263 201.407C183.134 201.888 183.04 202.378 182.984 202.873C182.999 203.35 183.067 203.824 183.187 204.287C183.297 204.792 183.448 205.298 183.582 205.809C183.866 206.837 184.162 207.871 184.394 208.945C183.408 207.61 182.643 206.132 182.126 204.565C181.932 204 181.832 203.407 181.83 202.81C181.885 202.229 182.011 201.657 182.207 201.106C182.387 200.584 182.572 200.067 182.787 199.567C183.229 198.57 183.767 197.618 184.394 196.721Z" fill="black"/>
<path d="M189.741 198.669C190.29 199.308 190.723 200.035 191.023 200.816C191.359 201.619 191.519 202.482 191.493 203.35C191.478 203.585 191.443 203.819 191.388 204.048L191.209 204.616C191.075 205.003 190.959 205.389 190.803 205.752C190.52 206.525 190.165 207.271 189.741 207.979C189.726 207.159 189.789 206.34 189.927 205.531C189.979 205.127 190.072 204.741 190.141 204.344L190.275 203.776C190.308 203.613 190.33 203.447 190.339 203.281C190.355 202.533 190.292 201.785 190.153 201.049C190.02 200.277 189.863 199.493 189.741 198.669Z" fill="black"/>
<path d="M143.608 119.473C146.666 120.898 149.365 122.965 151.513 125.528C153.696 128.052 155.551 130.832 157.035 133.804C157.389 134.554 157.754 135.298 158.091 136.076L159.03 138.348L159.831 140.694C160.074 141.483 160.277 142.284 160.498 143.079C161.331 146.272 161.675 149.568 161.518 152.86C161.227 149.622 160.592 146.421 159.622 143.312C158.686 140.21 157.481 137.193 156.02 134.292C154.564 131.396 152.815 128.65 150.8 126.096C148.822 123.489 146.387 121.246 143.608 119.473Z" fill="black"/>
</g>
<g opacity="0.1">
<path d="M137.037 160.346C136.701 160.683 136.389 161.042 136.103 161.42L135.215 162.527C134.616 163.285 134.005 164.016 133.383 164.72C132.114 166.157 130.742 167.503 129.276 168.747C126.335 171.269 122.975 173.278 119.341 174.688C117.515 175.375 115.636 175.915 113.721 176.301C111.807 176.652 109.867 176.853 107.921 176.904C104.045 176.957 100.182 176.446 96.4598 175.387C100.232 176.006 104.061 176.219 107.88 176.023C109.771 175.887 111.65 175.627 113.506 175.245C115.352 174.847 117.164 174.308 118.923 173.632C122.451 172.267 125.749 170.39 128.708 168.065C130.2 166.903 131.625 165.661 132.977 164.345C133.661 163.686 134.328 163.016 134.989 162.334C135.623 161.626 136.307 160.961 137.037 160.346Z" fill="black"/>
<path d="M191.568 153.513C194.146 154.99 196.866 156.215 199.688 157.171C202.473 158.13 205.375 158.722 208.319 158.932C209.769 159.041 211.228 158.961 212.657 158.693C214.089 158.409 215.478 157.949 216.792 157.325C219.463 156.032 221.861 154.26 223.863 152.099C223.014 153.329 222.015 154.453 220.887 155.445C219.763 156.46 218.519 157.339 217.181 158.063C214.468 159.567 211.364 160.256 208.255 160.045C205.196 159.864 202.189 159.187 199.358 158.04C197.957 157.479 196.6 156.819 195.298 156.064C193.979 155.325 192.731 154.471 191.568 153.513Z" fill="black"/>
<path d="M139.014 151.656C137.019 147.316 134.908 143.073 132.507 138.995L131.602 137.456L130.651 135.962C130.349 135.451 130.007 134.968 129.676 134.474C129.346 133.98 129.033 133.48 128.673 133.008C127.316 131.06 125.814 129.226 124.277 127.374C126.165 128.894 127.882 130.608 129.398 132.486C130.921 134.359 132.295 136.344 133.51 138.422C134.721 140.493 135.798 142.637 136.735 144.84C137.686 147.046 138.449 149.326 139.014 151.656Z" fill="black"/>
<path d="M70.76 144.369C74.0665 139.791 77.672 135.427 81.5538 131.305C83.4921 129.199 85.6174 127.266 87.9048 125.528C88.2006 125.318 88.5254 125.13 88.8328 124.96C89.1419 124.746 89.4677 124.556 89.8072 124.392C90.4811 124.077 91.1817 123.821 91.901 123.625C93.3077 123.247 94.7429 122.979 96.193 122.824C101.936 122.313 107.723 122.539 113.407 123.495C119.057 124.415 124.7 125.857 129.758 128.51C127.137 127.399 124.419 126.523 121.638 125.892C118.879 125.245 116.087 124.744 113.274 124.392C110.461 124.034 107.631 123.784 104.794 123.699C101.969 123.588 99.1385 123.679 96.3264 123.972C94.9359 124.11 93.5588 124.357 92.2084 124.71C91.5502 124.881 90.9094 125.111 90.2944 125.397C89.9871 125.538 89.6922 125.703 89.4128 125.892C89.1228 126.073 88.8328 126.232 88.5428 126.46C86.2823 128.12 84.1622 129.957 82.2034 131.952C80.2024 133.929 78.2652 135.979 76.3686 138.064C74.472 140.148 72.6102 142.233 70.76 144.369Z" fill="black"/>
<path d="M187.665 145.357C187.919 142.946 188.466 140.574 189.295 138.291C190.891 133.689 193.242 129.373 196.255 125.511C196.974 124.523 197.809 123.625 198.609 122.711C199.41 121.796 200.349 120.973 201.219 120.143C200.523 121.143 199.746 122.069 199.056 123.057C198.366 124.045 197.641 125.005 196.991 126.022L195.999 127.522L195.06 129.05C194.735 129.549 194.439 130.072 194.143 130.595C193.848 131.117 193.529 131.623 193.268 132.157L192.415 133.736L191.62 135.337C191.098 136.411 190.605 137.501 190.136 138.598C189.186 140.805 188.361 143.061 187.665 145.357Z" fill="black"/>
<path d="M198.36 120.268C200.99 118.277 203.842 116.584 206.863 115.224C208.386 114.535 209.963 113.965 211.578 113.52C213.225 113.07 214.932 112.863 216.642 112.907C217.089 112.92 217.535 112.979 217.97 113.083C218.404 113.196 218.827 113.346 219.234 113.532C220.02 113.896 220.758 114.352 221.432 114.889C222.726 115.944 223.893 117.139 224.912 118.451C226.947 121.028 228.662 123.833 230.022 126.806C229.129 125.443 228.23 124.091 227.244 122.796C226.258 121.501 225.278 120.223 224.211 119.019C223.166 117.814 222 116.716 220.731 115.741C219.466 114.804 218.074 114.037 216.555 114.037C214.96 113.981 213.365 114.156 211.822 114.554C210.242 114.936 208.692 115.426 207.182 116.02C205.662 116.61 204.166 117.264 202.693 117.979C201.26 118.712 199.787 119.467 198.36 120.268Z" fill="black"/>
</g>
<path d="M191.736 95.5547C192.316 97.6392 192.711 99.7408 193.134 101.837L193.755 104.989C193.969 106.034 194.167 107.085 194.433 108.13C193.966 107.149 193.591 106.128 193.314 105.08C193.018 104.041 192.78 102.99 192.566 101.933C192.139 99.8285 191.862 97.6971 191.736 95.5547Z" fill="#FFC4C0"/>
<path d="M194.683 103.018C195.002 104.12 195.263 105.228 195.535 106.335C195.669 106.903 195.82 107.437 195.959 107.988C196.101 108.541 196.275 109.085 196.481 109.618C196.172 109.129 195.927 108.605 195.75 108.056C195.557 107.514 195.393 106.962 195.257 106.403C195.124 105.835 194.996 105.267 194.903 104.699C194.81 104.131 194.723 103.586 194.683 103.018Z" fill="#FFC4C0"/>
<path d="M244.464 105.5C243.739 104.597 243.066 103.671 242.37 102.757C242.034 102.297 241.68 101.842 241.332 101.388C240.985 100.932 240.611 100.496 240.213 100.082C240.688 100.42 241.122 100.81 241.506 101.246C241.895 101.678 242.26 102.126 242.608 102.586C242.956 103.047 243.281 103.524 243.588 104.006C243.906 104.489 244.198 104.988 244.464 105.5Z" fill="#FFC4C0"/>
<path d="M171.204 71.9769C180.983 71.4657 191.029 71.0113 200.291 67.609C205.413 65.7073 210.099 62.8322 214.081 59.1493C218.062 55.4664 221.261 51.0485 223.491 46.15C223.619 45.8603 224.071 46.0648 223.955 46.3601C216.497 63.5876 200.813 71.3805 182.468 73.2038C161.82 75.26 138.968 72.8062 124.909 90.9368C124.642 91.2776 124.021 90.9368 124.242 90.5278C133.238 74.5897 154.727 72.8346 171.204 71.9769Z" fill="#455A64"/>
<path d="M156.849 68.7962C169.894 64.1443 181.088 56.8341 188.691 45.2355C188.819 45.0424 189.179 45.2355 189.051 45.4571C182.932 55.4027 174.406 63.0651 163.531 67.7795C151.299 73.1016 137.24 75.3793 128.151 85.8191C128.12 85.8517 128.077 85.8714 128.032 85.8745C127.987 85.8775 127.942 85.8635 127.906 85.8354C127.871 85.8073 127.848 85.7672 127.842 85.723C127.835 85.6789 127.846 85.6341 127.873 85.5976C134.798 76.0439 146.119 72.6188 156.849 68.7962Z" fill="#455A64"/>
<path d="M219.913 51.1484C220.017 51.8414 220.093 52.557 220.156 53.3011C220.823 52.5817 221.528 51.8973 222.268 51.2506C225.411 48.4674 231.78 43.8666 239.244 44.1734C243.374 44.3438 237.295 35.1762 231.49 33.1371C229.918 32.5691 225.823 37.6243 225.823 37.6243C225.823 37.6243 225.713 31.0753 224.048 30.6266C222.384 30.1778 216.189 28.7976 211.949 31.5126C209.438 33.1258 217.999 37.5505 219.913 51.1484Z" fill="#BA68C8"/>
<path d="M182.248 33.8301C180.896 34.8127 186.029 40.8676 185.217 49.2456C185.182 49.7227 185.107 50.2055 185.026 50.6997C185.026 50.6997 185.356 50.4781 185.931 50.1317C188.448 48.5924 195.634 44.5198 201.185 44.8152C203.505 44.9401 199.532 37.7606 196.272 36.795C195.211 36.4769 191.052 40.1349 191.052 40.1349C191.052 40.1349 192.618 35.3353 191.893 34.5401C191.168 33.7449 184.794 31.9954 182.248 33.8301Z" fill="#BA68C8"/>
<path d="M150.435 75.544C160.532 71.2442 171.837 73.306 181.94 76.3164C194.799 80.1448 206.932 82.5985 219.565 76.3846C219.814 76.2596 220.058 76.6061 219.808 76.7424C209.589 82.3145 198.928 82.7405 187.792 79.7415C181.824 78.1284 175.984 75.97 169.853 75.0044C163.171 73.9592 157.093 74.9192 150.551 76.1404C150.179 76.1858 150.133 75.6462 150.435 75.544Z" fill="#455A64"/>
<path d="M218.527 76.68C218.328 76.9513 218.109 77.2077 217.871 77.4468C218.255 77.3891 218.643 77.3568 219.031 77.3503C222.637 77.2911 226.213 78.0066 229.506 79.4462C230.759 79.9631 232.058 75.4986 230.944 72.6983C230.515 71.6362 226.009 72.1758 226.009 72.1758C226.009 72.1758 228.63 69.3358 228.329 68.5122C228.027 67.6886 223.88 65.2235 220.209 66.1323C218.793 66.456 221.601 72.4882 218.527 76.68Z" fill="#BA68C8"/>
<path d="M218.527 76.68C218.328 76.9513 218.109 77.2076 217.871 77.4468C218.255 77.3891 218.643 77.3568 219.031 77.3502C221.258 76.4357 223.468 75.7087 225.991 75.8848C226.061 75.8848 226.072 75.7882 225.991 75.7769C224.233 75.5502 222.444 75.7332 220.771 76.3108C221.856 75.6651 222.863 74.9031 223.776 74.0388C223.816 74.0047 223.776 73.9536 223.723 73.9763C222.433 74.8635 221.093 75.6789 219.71 76.4187C221.23 75.0078 222.434 73.3015 223.242 71.4089H223.207C222.174 73.5552 220.554 75.3796 218.527 76.68Z" fill="white"/>
<path d="M219.907 40.5836C220.647 44.0679 220.647 47.664 219.907 51.1484C220.011 51.8413 220.087 52.557 220.151 53.3011C220.817 52.5817 221.522 51.8973 222.262 51.2506C224.288 48.3061 226.976 45.8558 230.121 44.0881C230.248 44.0256 230.15 43.8666 230.034 43.9064C226.496 45.156 223.683 47.7006 221.548 50.7224C222.838 47.7164 223.65 44.5346 223.955 41.2879C223.955 41.1118 223.723 41.1118 223.689 41.2879C223.166 44.3403 222.256 47.3169 220.98 50.1487C221.342 46.9219 221.044 43.6568 220.104 40.5438C220.099 40.5182 220.083 40.4957 220.061 40.4813C220.039 40.467 220.011 40.4618 219.985 40.4671C219.959 40.4724 219.936 40.4876 219.922 40.5095C219.907 40.5313 219.902 40.5579 219.907 40.5836Z" fill="white"/>
<path d="M187.34 41.464C187.263 44.1814 186.54 46.8438 185.229 49.2399C185.194 49.717 185.119 50.1998 185.037 50.694C185.037 50.694 185.368 50.4725 185.942 50.126C186.052 49.9954 186.151 49.8647 186.255 49.7341C188.651 47.3144 191.388 45.1901 194.509 44.4971C194.519 44.4936 194.528 44.4871 194.534 44.4785C194.54 44.4698 194.544 44.4595 194.544 44.4488C194.544 44.4382 194.54 44.4279 194.534 44.4192C194.528 44.4106 194.519 44.404 194.509 44.4006C192.253 44.4858 190.031 45.6104 188.03 47.1724C188.978 45.6523 189.821 44.0716 190.553 42.441C190.553 42.441 190.553 42.3955 190.524 42.441C189.274 44.5886 187.883 46.6548 186.36 48.6265C187.178 46.3274 187.541 43.8963 187.427 41.464C187.427 41.4129 187.34 41.4129 187.34 41.464Z" fill="white"/>
<path d="M147.042 75.4872C147.042 75.4872 160.77 86.7506 169.354 84.8194C177.938 82.8882 147.042 75.4872 147.042 75.4872Z" fill="#455A64"/>
<path d="M190.547 70.3468C190.547 70.3468 195.187 53.409 203.371 50.1771C211.555 46.9452 190.547 70.3468 190.547 70.3468Z" fill="#455A64"/>
<path d="M132.64 243.672C141.392 236.373 153.567 228.722 165.52 228.177C154.964 226.251 143.417 227.001 133.29 228.455C121.632 230.131 109.945 232.465 98.1012 232.011C86.2576 231.557 75.4812 227.569 64.6642 223.059C64.554 223.014 64.6642 222.849 64.7512 222.895C78.0332 228.126 91.6226 231.415 106.007 230.46C116.046 229.807 125.918 227.791 135.871 226.416C129.178 226.643 122.531 226.604 116.075 224.479C110.923 222.774 106.172 220.075 102.102 216.543C98.0318 213.01 94.725 208.716 92.3766 203.912C92.2548 203.656 92.6956 203.441 92.8348 203.69C98.5652 213.795 108.46 221.52 120.002 224.076C129.746 226.257 139.896 224.076 149.704 225.161C167.475 224.769 186.992 229.705 194.422 247.188C194.555 247.495 194.039 247.756 193.888 247.449C189.01 237.947 181.053 232.539 171.848 229.699C157.928 227.643 144.71 236.862 132.89 244.035C132.841 244.051 132.789 244.051 132.741 244.035C132.693 244.019 132.652 243.988 132.624 243.947C132.595 243.905 132.582 243.856 132.585 243.807C132.588 243.757 132.607 243.71 132.64 243.672Z" fill="#455A64"/>
<path d="M94.0064 207.916C94.6212 208.189 95.2534 208.484 95.903 208.854C95.903 208.854 95.8102 208.286 95.758 207.263C95.533 201.366 96.8782 195.514 99.6614 190.28C100.821 188.105 90.4974 186.934 87.1044 189.258C85.0396 190.655 87.4756 195.148 87.3074 195.318C87.1392 195.489 83.6766 192.336 81.9888 192.876C80.301 193.415 76.5078 201.396 78.1318 207.195C78.3 207.74 83.7404 203.23 94.0064 207.916Z" fill="#BA68C8"/>
<path d="M70.8586 227.109C71.6739 226.949 72.5037 226.871 73.3352 226.876H73.4454C74.1539 226.878 74.8608 226.944 75.5566 227.075C74.9964 226.646 74.4673 226.179 73.9732 225.678C71.2356 222.968 66.1026 216.311 68.1732 206.042C68.4342 204.787 57.884 204.878 54.114 212.341C53.3078 213.943 58.1334 219.822 58.1334 219.822C58.1334 219.822 50.6224 218.964 49.8104 220.918C48.9984 222.872 48.7896 230.517 54.6302 237.129C55.274 237.844 62.3616 228.7 70.8586 227.109Z" fill="#BA68C8"/>
<path d="M136.636 256.94C138.034 256.503 132.234 252.584 133.417 244.007C133.425 243.898 133.438 243.79 133.458 243.683C133.463 243.635 133.472 243.588 133.487 243.541C133.522 243.314 133.557 243.087 133.609 242.848C133.256 243.035 132.894 243.204 132.524 243.354C130.541 244.149 126.144 245.404 122.45 242.934C120.889 241.894 120.449 248.579 124.358 251.743C125.129 252.357 128.418 250.323 128.418 250.323C128.418 250.323 127.762 253.544 128.342 254.72C128.922 255.895 134.212 257.696 136.636 256.94Z" fill="#BA68C8"/>
<path d="M95.903 208.854C95.903 208.854 95.8102 208.286 95.758 207.263C94.2028 203.831 93.7048 200.029 94.3254 196.324C94.3254 196.311 94.3205 196.3 94.3118 196.291C94.3031 196.283 94.2913 196.278 94.279 196.278C94.2667 196.278 94.2549 196.283 94.2462 196.291C94.2375 196.3 94.2326 196.311 94.2326 196.324C93.4106 199.765 93.4644 203.352 94.3892 206.769C92.895 204.876 91.6335 202.817 90.6308 200.635C90.6223 200.614 90.6057 200.597 90.5845 200.588C90.5632 200.579 90.5392 200.578 90.5177 200.586C90.4962 200.595 90.4789 200.611 90.4696 200.632C90.4604 200.653 90.4599 200.676 90.4684 200.697C91.3245 202.966 92.4332 205.136 93.7744 207.167C92.6392 206.433 91.4327 205.811 90.1726 205.309C90.0914 205.27 90.0392 205.389 90.1204 205.429C91.5019 206.128 92.8044 206.967 94.0064 207.933C94.6212 208.189 95.2534 208.507 95.903 208.854Z" fill="white"/>
<path d="M65.6618 223.389C68.178 224.712 70.7778 225.877 73.4454 226.876C74.1539 226.878 74.8608 226.944 75.5566 227.075C74.9964 226.646 74.4673 226.179 73.9732 225.678C70.557 223.894 67.6338 221.537 65.7372 217.811C65.6966 217.737 65.5806 217.777 65.6096 217.856C67.1292 221.372 69.8436 223.979 73.0684 225.905C70.5976 225.098 68.1442 224.235 65.7198 223.264C65.7029 223.256 65.6836 223.256 65.6662 223.262C65.6488 223.268 65.6347 223.281 65.627 223.298C65.6193 223.314 65.6187 223.333 65.6252 223.35C65.6317 223.367 65.6449 223.381 65.6618 223.389Z" fill="white"/>
<path d="M62.321 227.529C65.1186 226.893 68.0099 226.75 70.8586 227.109C71.6739 226.949 72.5037 226.871 73.3352 226.876C69.6689 226.278 65.9153 226.437 62.3152 227.342C62.176 227.365 62.1992 227.563 62.321 227.529Z" fill="white"/>
<path d="M129.386 248.71C130.458 246.781 131.843 245.035 133.487 243.541C133.522 243.314 133.557 243.087 133.609 242.848C133.256 243.035 132.894 243.204 132.524 243.354C130.633 244.524 128.557 245.268 126.196 244.967C126.186 244.967 126.175 244.971 126.168 244.979C126.16 244.986 126.156 244.996 126.156 245.007C126.156 245.017 126.16 245.027 126.168 245.035C126.175 245.042 126.186 245.047 126.196 245.047C128.232 245.444 130.57 244.888 132.669 243.825C131.207 245.184 130.068 246.843 129.334 248.682C129.334 248.688 129.336 248.693 129.339 248.698C129.342 248.703 129.347 248.708 129.352 248.71C129.357 248.713 129.363 248.715 129.369 248.715C129.375 248.715 129.381 248.713 129.386 248.71Z" fill="white"/>
<path d="M131.596 249.556C131.786 247.599 132.408 245.706 133.417 244.007C133.425 243.899 133.438 243.79 133.458 243.683C132.107 245.349 131.402 247.43 131.469 249.556C131.474 249.625 131.585 249.625 131.596 249.556Z" fill="white"/>
<path d="M183.489 234.459C183.489 234.459 175.786 218.044 166.93 216.135C158.073 214.227 183.489 234.459 183.489 234.459Z" fill="#455A64"/>
<path d="M149.704 225.161C149.704 225.161 134.728 210.393 130.227 213.88C126.225 216.976 149.704 225.161 149.704 225.161Z" fill="#455A64"/>
</svg>
