<svg width="274" height="268" viewBox="0 0 274 268" fill="none" xmlns="http://www.w3.org/2000/svg">
<path d="M274 204.966H0V205.1H274V204.966Z" fill="#EBEBEB"/>
<path d="M246.545 213.591H228.395V213.725H246.545V213.591Z" fill="#EBEBEB"/>
<path d="M181.509 215.049H176.746V215.183H181.509V215.049Z" fill="#EBEBEB"/>
<path d="M227.847 208.617H201.724V208.751H227.847V208.617Z" fill="#EBEBEB"/>
<path d="M41.7247 209.517H28.7481V209.651H41.7247V209.517Z" fill="#EBEBEB"/>
<path d="M60.7677 209.517H46.6019V209.651H60.7677V209.517Z" fill="#EBEBEB"/>
<path d="M107.468 211.779H72.0456V211.913H107.468V211.779Z" fill="#EBEBEB"/>
<path d="M129.876 181.061H24.0627C23.2338 181.059 22.4393 180.736 21.8536 180.162C21.268 179.589 20.9391 178.811 20.9391 178V32.5137C20.9463 31.7076 21.2784 30.9368 21.8633 30.3688C22.4481 29.8008 23.2385 29.4814 24.0627 29.48H129.876C130.706 29.48 131.502 29.8024 132.089 30.3764C132.675 30.9504 133.005 31.7288 133.005 32.5405V178C133.005 178.812 132.675 179.59 132.089 180.164C131.502 180.738 130.706 181.061 129.876 181.061ZM24.0627 29.5872C23.2701 29.5886 22.5104 29.8976 21.9505 30.4462C21.3906 30.9949 21.0761 31.7385 21.0761 32.5137V178C21.0761 178.775 21.3906 179.519 21.9505 180.068C22.5104 180.616 23.2701 180.925 24.0627 180.927H129.876C130.669 180.925 131.429 180.617 131.99 180.068C132.551 179.52 132.867 178.776 132.868 178V32.5137C132.867 31.738 132.551 30.9944 131.99 30.4459C131.429 29.8974 130.669 29.5886 129.876 29.5872H24.0627Z" fill="#EBEBEB"/>
<path d="M248.414 181.061H142.595C141.766 181.059 140.971 180.736 140.384 180.163C139.798 179.589 139.467 178.811 139.466 178V32.5137C139.475 31.7071 139.808 30.9363 140.394 30.3685C140.979 29.8006 141.77 29.4813 142.595 29.48H248.414C249.237 29.4828 250.026 29.8028 250.61 30.3707C251.193 30.9385 251.525 31.7085 251.532 32.5137V178C251.532 178.81 251.204 179.587 250.619 180.161C250.035 180.734 249.242 181.058 248.414 181.061ZM142.595 29.5872C141.802 29.5886 141.042 29.8974 140.481 30.4459C139.92 30.9944 139.604 31.738 139.603 32.5137V178C139.604 178.776 139.92 179.52 140.481 180.068C141.042 180.617 141.802 180.925 142.595 180.927H248.414C249.207 180.925 249.967 180.617 250.528 180.068C251.089 179.52 251.405 178.776 251.406 178V32.5137C251.405 31.738 251.089 30.9944 250.528 30.4459C249.967 29.8974 249.207 29.5886 248.414 29.5872H142.595Z" fill="#EBEBEB"/>
<path d="M238.764 75.0024H35.2364V130.671H238.764V75.0024Z" fill="#EBEBEB"/>
<path d="M233.284 125.311V80.3624L40.7164 80.3624V125.311L233.284 125.311Z" fill="#FAFAFA"/>
<path d="M201.379 153.414V152.744C201.379 151.551 200.39 150.584 199.171 150.584H172.615C171.395 150.584 170.406 151.551 170.406 152.744V153.414C170.406 154.607 171.395 155.574 172.615 155.574H199.171C200.39 155.574 201.379 154.607 201.379 153.414Z" fill="#E6E6E6"/>
<path d="M232.758 166.782H193.893C192.206 166.782 191.197 165.442 191.641 163.796L202.475 123.462C202.719 122.637 203.219 121.906 203.907 121.372C204.594 120.837 205.434 120.524 206.311 120.477H245.175C246.863 120.477 247.866 121.811 247.427 123.462L236.594 163.796C236.348 164.621 235.847 165.35 235.16 165.885C234.473 166.42 233.634 166.733 232.758 166.782Z" fill="#F5F5F5"/>
<path d="M232.757 166.782H231.859C230.171 166.782 229.163 165.442 229.606 163.796L240.44 123.462C240.685 122.637 241.185 121.906 241.872 121.372C242.559 120.837 243.4 120.524 244.276 120.477H245.175C246.863 120.477 247.866 121.811 247.427 123.462L236.593 163.796C236.348 164.621 235.847 165.35 235.16 165.885C234.473 166.42 233.634 166.733 232.757 166.782Z" fill="#E6E6E6"/>
<path d="M202.311 168.711V165.763C202.311 163.75 200.642 162.119 198.584 162.119H159.879C157.821 162.119 156.153 163.75 156.153 165.763V168.711C156.153 170.724 157.821 172.356 159.879 172.356H198.584C200.642 172.356 202.311 170.724 202.311 168.711Z" fill="#F5F5F5"/>
<path d="M184.177 197.645H145.313C143.625 197.645 142.831 196.305 143.532 194.659L156.18 165.088C156.881 163.437 158.821 162.102 160.504 162.102H199.373C201.056 162.102 201.85 163.437 201.149 165.088L188.545 194.643C187.8 196.305 185.86 197.645 184.177 197.645Z" fill="#F5F5F5"/>
<path d="M184.177 197.645H183.279C181.591 197.645 180.796 196.305 181.498 194.659L194.102 165.104C194.803 163.453 196.743 162.119 198.425 162.119H199.33C201.012 162.119 201.806 163.453 201.105 165.104L188.501 194.659C187.8 196.305 185.86 197.645 184.177 197.645Z" fill="#E6E6E6"/>
<path d="M235.399 168.711V165.763C235.399 163.75 233.731 162.119 231.673 162.119H197.85C195.792 162.119 194.124 163.75 194.124 165.763V168.711C194.124 170.724 195.792 172.356 197.85 172.356H231.673C233.731 172.356 235.399 170.724 235.399 168.711Z" fill="#E6E6E6"/>
<path d="M237.651 153.419V152.749C237.651 151.556 236.662 150.589 235.443 150.589H208.887C207.667 150.589 206.678 151.556 206.678 152.749V153.419C206.678 154.612 207.667 155.579 208.887 155.579H235.443C236.662 155.579 237.651 154.612 237.651 153.419Z" fill="#E6E6E6"/>
<path d="M219.195 171.284H202.305V199.328H219.195V171.284Z" fill="#E6E6E6"/>
<path d="M202.305 199.333H219.194L223.294 204.966H198.212L202.305 199.333Z" fill="#E6E6E6"/>
<path d="M240.172 39.5247H33.828C32.3965 39.5247 31.236 40.6597 31.236 42.0599V43.0998C31.236 44.5 32.3965 45.6351 33.828 45.6351H240.172C241.603 45.6351 242.764 44.5 242.764 43.0998V42.0599C242.764 40.6597 241.603 39.5247 240.172 39.5247Z" fill="#F0F0F0"/>
<path d="M76.0428 43.8829L67.1304 35.1656L51.6306 50.326L60.543 59.0432L76.0428 43.8829Z" fill="#E6E6E6"/>
<path d="M76.046 43.8823C75.2788 44.6327 72.6593 43.2927 70.1988 40.8861C67.7383 38.4795 66.3628 35.9174 67.1355 35.167C67.9082 34.4166 70.5167 35.7619 72.9772 38.1686C75.4377 40.5752 76.8132 43.1319 76.046 43.8823Z" fill="#E6E6E6"/>
<path d="M60.5431 59.0458C59.7759 59.7962 57.1619 58.4508 54.7014 56.0442C52.2409 53.6375 50.8654 51.0755 51.6326 50.3251C52.3998 49.5747 55.0192 50.92 57.4797 53.3267C59.9403 55.7333 61.3103 58.2954 60.5431 59.0458Z" fill="#E6E6E6"/>
<path d="M60.0937 58.6009C59.6498 59.0404 57.4907 57.6361 55.2822 55.476C53.0738 53.3159 51.638 51.188 52.0874 50.7699C52.5368 50.3518 54.6849 51.7347 56.8988 53.8948C59.1128 56.0549 60.5376 58.1667 60.0937 58.6009Z" fill="white"/>
<path d="M233.332 43.8848L224.419 35.1676L208.92 50.328L217.832 59.0452L233.332 43.8848Z" fill="#E6E6E6"/>
<path d="M233.327 43.8823C232.56 44.6327 229.941 43.2927 227.48 40.8861C225.02 38.4795 223.644 35.9174 224.417 35.167C225.19 34.4166 227.798 35.7619 230.259 38.1686C232.719 40.5752 234.095 43.1319 233.327 43.8823Z" fill="#E6E6E6"/>
<path d="M217.824 59.0458C217.063 59.7962 214.443 58.4508 211.983 56.0442C209.522 53.6375 208.147 51.0755 208.914 50.3251C209.681 49.5747 212.301 50.92 214.761 53.3267C217.222 55.7333 218.592 58.2954 217.824 59.0458Z" fill="#E6E6E6"/>
<path d="M217.375 58.6009C216.931 59.0404 214.778 57.6361 212.564 55.476C210.35 53.3159 208.92 51.188 209.369 50.7699C209.818 50.3518 211.966 51.7347 214.18 53.8948C216.394 56.0549 217.819 58.1667 217.375 58.6009Z" fill="white"/>
<path d="M112.97 35.1652L104.058 43.8824L119.558 59.0428L128.47 50.3256L112.97 35.1652Z" fill="#E6E6E6"/>
<path d="M112.97 35.167C113.737 35.9174 112.367 38.4741 109.907 40.8861C107.446 43.2981 104.827 44.6381 104.06 43.8823C103.293 43.1266 104.668 40.5752 107.129 38.1686C109.589 35.7619 112.208 34.4166 112.97 35.167Z" fill="#E6E6E6"/>
<path d="M125.406 56.0453C127.867 53.6381 129.241 51.0792 128.475 50.3298C127.709 49.5805 125.093 50.9244 122.631 53.3316C120.17 55.7388 118.796 58.2977 119.562 59.047C120.329 59.7964 122.945 58.4525 125.406 56.0453Z" fill="#E6E6E6"/>
<path d="M128.018 50.7699C128.468 51.204 127.037 53.3105 124.823 55.476C122.61 57.6414 120.439 59.0404 120.012 58.6008C119.585 58.1613 120.998 56.0602 123.207 53.8948C125.415 51.7293 127.574 50.3357 128.018 50.7699Z" fill="white"/>
<path d="M165.401 35.1621L156.488 43.8793L171.988 59.0396L180.9 50.3224L165.401 35.1621Z" fill="#E6E6E6"/>
<path d="M165.397 35.167C166.165 35.9174 164.795 38.4741 162.334 40.8861C159.874 43.2981 157.254 44.6381 156.487 43.8823C155.72 43.1266 157.095 40.5752 159.556 38.1686C162.016 35.7619 164.636 34.4166 165.397 35.167Z" fill="#E6E6E6"/>
<path d="M180.9 50.325C181.667 51.0754 180.292 53.6375 177.831 56.0442C175.371 58.4508 172.752 59.7962 171.99 59.0458C171.228 58.2954 172.593 55.7333 175.053 53.3266C177.514 50.92 180.133 49.58 180.9 50.325Z" fill="#E6E6E6"/>
<path d="M180.445 50.7699C180.895 51.204 179.465 53.3105 177.251 55.476C175.037 57.6414 172.867 59.0404 172.439 58.6008C172.012 58.1613 173.426 56.0602 175.634 53.8948C177.842 51.7293 180.002 50.3357 180.445 50.7699Z" fill="white"/>
<path d="M87.7238 167.35H56.3618C53.3686 167.35 50.9421 169.723 50.9421 172.651C50.9421 175.579 53.3686 177.952 56.3618 177.952H87.7238C90.7171 177.952 93.1436 175.579 93.1436 172.651C93.1436 169.723 90.7171 167.35 87.7238 167.35Z" fill="#F0F0F0"/>
<path d="M74.7691 177.952H69.322V204.966H74.7691V177.952Z" fill="#E6E6E6"/>
<path d="M76.8132 204.966H67.2834V203.551C67.2834 202.316 67.785 201.13 68.6779 200.256C69.5708 199.382 70.7821 198.89 72.0456 198.888C73.3096 198.89 74.5214 199.381 75.4152 200.256C76.309 201.13 76.8117 202.315 76.8132 203.551V204.966Z" fill="#E6E6E6"/>
<path d="M77.4488 179.951H66.6423C66.0624 179.95 65.4908 179.816 64.9739 179.559C64.4569 179.302 64.0091 178.93 63.6666 178.472L63.2831 177.936H80.819L80.43 178.472C80.0876 178.931 79.639 179.304 79.1209 179.562C78.6028 179.819 78.0298 179.952 77.4488 179.951Z" fill="#E6E6E6"/>
<path d="M137 229.172C195.681 229.172 243.252 226.456 243.252 223.105C243.252 219.754 195.681 217.037 137 217.037C78.3188 217.037 30.7483 219.754 30.7483 223.105C30.7483 226.456 78.3188 229.172 137 229.172Z" fill="#F5F5F5"/>
<path d="M146.804 157.584C144.037 156.164 140.987 155.35 137.866 155.199L117.82 154.422L112.565 124.181C109.825 108.61 96.0754 95.9816 81.7835 95.9816H73.4978C59.2059 95.9816 49.8187 108.61 52.5258 124.181L56.159 145.058C57.5016 152.781 64.3352 159.047 71.4263 159.047H76.5118C72.325 159.047 68.7685 163.083 68.237 168.427L62.757 223.099H64.0612L69.4974 168.636C69.9467 164.118 72.9498 160.709 76.4898 160.709H87.2032C90.7378 160.709 93.7464 164.118 94.1957 168.636L99.6319 223.099H100.936L95.4561 168.427C94.9081 163.067 91.368 159.047 87.1813 159.047H116.998C112.811 159.047 109.255 163.083 108.723 168.427L103.243 223.099H104.553L109.984 168.636C110.438 164.118 113.436 160.709 116.976 160.709H127.695C131.224 160.709 134.233 164.118 134.682 168.636L140.118 223.099H141.422L135.942 168.427C135.394 163.067 131.854 159.047 127.673 159.047H146.415C146.591 159.046 146.762 158.988 146.901 158.882C147.04 158.776 147.139 158.629 147.183 158.462C147.228 158.295 147.215 158.119 147.146 157.96C147.077 157.801 146.957 157.669 146.804 157.584Z" fill="#BA68C8"/>
<path opacity="0.5" d="M146.804 157.584C144.037 156.164 140.987 155.35 137.866 155.199L117.82 154.422L112.565 124.181C109.825 108.61 96.0754 95.9816 81.7835 95.9816H73.4978C59.2059 95.9816 49.8187 108.61 52.5258 124.181L56.159 145.058C57.5016 152.781 64.3352 159.047 71.4263 159.047H76.5118C72.325 159.047 68.7685 163.083 68.237 168.427L62.757 223.099H64.0612L69.4974 168.636C69.9467 164.118 72.9498 160.709 76.4898 160.709H87.2032C90.7378 160.709 93.7464 164.118 94.1957 168.636L99.6319 223.099H100.936L95.4561 168.427C94.9081 163.067 91.368 159.047 87.1813 159.047H116.998C112.811 159.047 109.255 163.083 108.723 168.427L103.243 223.099H104.553L109.984 168.636C110.438 164.118 113.436 160.709 116.976 160.709H127.695C131.224 160.709 134.233 164.118 134.682 168.636L140.118 223.099H141.422L135.942 168.427C135.394 163.067 131.854 159.047 127.673 159.047H146.415C146.591 159.046 146.762 158.988 146.901 158.882C147.04 158.776 147.139 158.629 147.183 158.462C147.228 158.295 147.215 158.119 147.146 157.96C147.077 157.801 146.957 157.669 146.804 157.584Z" fill="white"/>
<path d="M101.155 70.5966C100.059 75.0293 98.1578 77.9451 93.9053 78.4329C89.6528 78.9207 83.9043 77.3609 83.9152 72.2153C83.9152 67.6593 91.1488 61.8383 95.4232 62.101C99.6976 62.3636 102.257 66.1692 101.155 70.5966Z" fill="#263238"/>
<path d="M113.781 64.3201C112.685 68.7528 110.778 71.6687 106.531 72.1564C102.284 72.6442 96.5302 71.0844 96.5412 65.9388C96.5412 61.3828 103.775 55.5619 108.049 55.8245C112.324 56.0871 114.883 59.8767 113.781 64.3201Z" fill="#263238"/>
<path d="M87.9156 63.5321C86.2716 64.5023 85.1756 67.1555 88.1239 68.6563C91.0721 70.1571 97.7522 72.762 101.868 71.1915C103.44 69.1226 102.29 67.7451 102.29 67.7451C102.29 67.7451 92.5517 67.8898 87.9156 63.5321Z" fill="#BA68C8"/>
<path d="M115.754 212.958C111.37 210.316 110.981 209.646 108.581 208.081C106.526 206.735 105.731 206.939 104.071 205.883C102.679 204.999 103.567 203.707 104.964 202.453C105.665 201.82 107.019 200.41 108.098 199.36L114.784 202.78C114.62 205.004 115.135 208.633 117.387 210.444C119.541 212.176 117.497 214.014 115.754 212.958Z" fill="#263238"/>
<path d="M141.68 145.792C130.561 135.013 105.123 125.563 105.123 125.563L89.7186 123.119C89.7186 123.119 82.4247 132.655 84.9565 143.825C86.7484 151.752 110.515 154.384 127.059 154.164C117.656 167.688 108.159 198.947 108.159 198.947C109.803 200.786 113.233 203.434 114.62 203.471C120.796 192.312 137.751 173.423 143.735 153.682C144.153 152.308 144.183 150.849 143.821 149.459C143.459 148.07 142.719 146.803 141.68 145.792Z" fill="#263238"/>
<path d="M118.023 198.668C117.475 199.783 116.587 201.75 116.039 203.31C115.842 203.878 115.354 204.254 114.943 204.173C111.628 203.466 107.874 200.378 106.723 199.349C106.606 199.209 106.534 199.038 106.514 198.859C106.495 198.679 106.529 198.497 106.613 198.336L108.29 193.903C108.52 193.298 109.079 192.923 109.463 193.121L117.869 197.468C118.193 197.639 118.264 198.165 118.023 198.668Z" fill="#BA68C8"/>
<path d="M113.776 95.7619L113.584 97.8469L113.409 99.9909C113.304 101.417 113.206 102.832 113.157 104.241C113.107 105.651 113.085 107.045 113.113 108.401C113.134 109.694 113.242 110.985 113.436 112.265C113.485 112.555 113.535 112.839 113.6 113.101C113.6 113.246 113.661 113.359 113.694 113.482L113.743 113.659C113.701 113.569 113.653 113.481 113.6 113.396C113.45 113.179 113.265 112.987 113.052 112.828C112.876 112.696 112.678 112.595 112.466 112.528C112.143 112.448 112.115 112.528 112.192 112.528C112.624 112.571 113.061 112.537 113.48 112.426C114.109 112.301 114.729 112.138 115.338 111.938C117.941 111.118 120.713 109.885 123.415 108.722L123.486 108.696C123.94 108.503 124.447 108.473 124.921 108.61C125.395 108.747 125.804 109.043 126.077 109.446C126.35 109.849 126.47 110.332 126.415 110.812C126.36 111.293 126.134 111.739 125.777 112.072C124.617 113.159 123.389 114.174 122.1 115.111C120.789 116.083 119.408 116.961 117.968 117.738C117.188 118.159 116.383 118.533 115.557 118.858C114.537 119.257 113.462 119.508 112.367 119.603C111.512 119.667 110.653 119.559 109.841 119.287C109.278 119.099 108.751 118.818 108.285 118.456C107.78 118.06 107.355 117.577 107.03 117.03C106.881 116.785 106.751 116.529 106.641 116.264L106.504 115.91C106.416 115.68 106.317 115.444 106.252 115.224C106.093 114.774 105.967 114.334 105.846 113.895C105.427 112.251 105.146 110.577 105.008 108.888C104.843 107.28 104.805 105.672 104.789 104.097C104.772 102.521 104.838 100.961 104.953 99.4067C105.008 98.6295 105.068 97.8523 105.15 97.0804C105.232 96.3086 105.326 95.5528 105.452 94.7113C105.613 93.6578 106.186 92.7068 107.051 92.0592C107.916 91.4115 109.004 91.1179 110.086 91.2404C111.167 91.3628 112.158 91.8917 112.849 92.7154C113.54 93.539 113.876 94.593 113.787 95.6547L113.776 95.7619Z" fill="#FFB573"/>
<path d="M113.852 97.4609C113.515 101.135 112.925 104.783 112.088 108.379C110.992 113.664 109.759 118.837 107.529 127.429L80.1669 123.092C81.9644 115.642 82.4905 106.905 80.3861 89.1637C79.8984 85.0525 83.0659 81.6597 87.1868 81.9169C88.2828 81.9813 89.4555 82.0724 90.6447 82.2064C95.2643 82.7156 99.051 83.1658 103.068 84.1735C104.399 84.5058 105.769 84.8971 107.079 85.2884C111.792 86.7088 114.483 92.7281 113.852 97.4609Z" fill="#BA68C8"/>
<path d="M108.592 86.0066C113.88 88.1506 115.168 92.8138 114.801 102.381C111.885 104.724 103.413 104.445 103.413 104.445C103.413 104.445 102.701 89.8819 108.592 86.0066Z" fill="#BA68C8"/>
<path d="M93.7792 68.6562C94.2176 72.7406 94.3546 80.1159 91.3242 82.3135C91.3242 82.3135 95.204 82.3564 102.438 88.4936C105.309 85.5992 103.753 84.2807 103.753 84.2807C99.3688 82.5226 99.7908 79.2637 100.837 76.3157L93.7792 68.6562Z" fill="#FFB573"/>
<path d="M100.909 87.2447C98.2016 87.1965 96.722 90.9967 96.722 90.9967C96.722 90.9967 91.094 85.5885 89.598 82.1688C90.4694 81.8548 91.3236 81.497 92.1572 81.0968C92.1572 81.0968 99.6154 85.5081 100.909 87.2447Z" fill="white"/>
<path d="M103.495 87.2287C103.495 87.2287 105.687 88.1935 105.989 91.4739C107.54 85.8673 104.98 84.463 104.98 84.463C104.318 83.9493 103.484 83.6934 102.64 83.7447C103.175 84.1372 103.554 84.7 103.71 85.3361C103.866 85.9721 103.79 86.6415 103.495 87.2287Z" fill="white"/>
<path opacity="0.2" d="M96.6562 71.7811L100.837 76.3103C100.589 77.0073 100.405 77.7249 100.289 78.4543C98.6071 77.9183 96.4535 75.7207 96.4042 73.9251C96.354 73.2014 96.4394 72.4748 96.6562 71.7811Z" fill="black"/>
<path d="M93.8395 60.1286C92.9627 66.5606 92.4531 69.2834 95.0177 73.341C98.8537 79.4406 106.975 79.4782 109.764 73.5071C112.269 68.1471 113.283 58.4991 107.572 54.4202C101.928 50.4162 94.7163 53.6751 93.8395 60.1286Z" fill="#FFB573"/>
<path d="M92.612 63.8537C96.1631 65.5368 97.9989 58.751 97.544 57.872C101.676 59.1369 106.526 58.6116 106.027 56.8C107.326 59.3192 113.529 62.83 115.623 58.7349C117.058 55.9209 113.014 48.9583 108.756 50.2232C106.241 46.4712 96.2836 45.4421 94.2725 50.9308C85.1811 52.721 85.8278 59.3674 87.8389 60.4876C84.4906 63.6715 89.8282 67.654 92.612 63.8537Z" fill="#263238"/>
<path d="M102.734 64.3468C102.635 64.8828 102.838 65.4188 103.183 65.4778C103.528 65.5368 103.884 65.1937 103.983 64.6524C104.082 64.111 103.879 63.6125 103.534 63.5268C103.188 63.441 102.832 63.8108 102.734 64.3468Z" fill="#263238"/>
<path d="M109.496 65.7833C109.397 66.3193 109.6 66.8553 109.945 66.9089C110.29 66.9625 110.647 66.6248 110.745 66.0888C110.844 65.5528 110.641 65.0168 110.296 64.9632C109.951 64.9096 109.6 65.2473 109.496 65.7833Z" fill="#263238"/>
<path d="M110.148 64.9525L111.485 64.8882C111.485 64.8882 110.641 65.7404 110.148 64.9525Z" fill="#263238"/>
<path d="M107.233 66.464C107.481 67.8078 107.903 69.1153 108.488 70.3553C107.671 70.8485 106.548 70.2589 106.548 70.2589L107.233 66.464Z" fill="#ED893E"/>
<path d="M104.509 71.2076C104.797 71.3129 105.094 71.3918 105.397 71.4435C105.417 71.4473 105.438 71.4469 105.458 71.4424C105.478 71.4379 105.497 71.4293 105.514 71.4172C105.53 71.405 105.544 71.3897 105.554 71.3721C105.564 71.3544 105.57 71.3349 105.572 71.3148C105.577 71.2725 105.566 71.2299 105.541 71.1952C105.515 71.1605 105.478 71.1363 105.435 71.1272C104.745 71.0113 104.091 70.7442 103.522 70.346C102.952 69.9478 102.483 69.4288 102.147 68.8278C102.13 68.7908 102.099 68.7619 102.061 68.7473C102.022 68.7327 101.979 68.7337 101.942 68.7501C101.904 68.7664 101.874 68.7968 101.859 68.8345C101.845 68.8722 101.846 68.9141 101.862 68.9511C102.426 69.9996 103.37 70.8043 104.509 71.2076Z" fill="#263238"/>
<path d="M90.683 64.856C91.0925 66.1799 92.023 67.2904 93.2696 67.9434C94.8807 68.7474 96.0096 67.2573 95.8014 65.451C95.626 63.843 94.5738 61.447 92.8312 61.4095C91.0886 61.372 90.157 63.1676 90.683 64.856Z" fill="#FFB573"/>
<path d="M102.476 61.3882C102.518 61.3941 102.561 61.391 102.602 61.3789C102.642 61.3669 102.68 61.3463 102.712 61.3185C103.005 61.0612 103.358 60.8779 103.74 60.7845C104.122 60.6911 104.521 60.6904 104.904 60.7825C104.942 60.7956 104.984 60.8006 105.025 60.7973C105.065 60.794 105.105 60.7824 105.141 60.7632C105.177 60.7441 105.209 60.7178 105.234 60.686C105.259 60.6543 105.277 60.6178 105.287 60.5788C105.307 60.4951 105.294 60.4072 105.252 60.332C105.209 60.2568 105.14 60.1996 105.057 60.1714C104.573 60.0456 104.065 60.0405 103.579 60.1566C103.092 60.2727 102.643 60.5063 102.273 60.8361C102.213 60.8962 102.179 60.977 102.179 61.0612C102.179 61.1454 102.213 61.2262 102.273 61.2863C102.326 61.3436 102.398 61.3799 102.476 61.3882Z" fill="#263238"/>
<path d="M112.285 63.8216C112.342 63.849 112.406 63.8587 112.468 63.8493C112.531 63.8399 112.588 63.8119 112.634 63.7691C112.68 63.7263 112.711 63.6708 112.723 63.6102C112.735 63.5496 112.727 63.4868 112.702 63.4303C112.546 62.9391 112.276 62.4898 111.913 62.1178C111.549 61.7458 111.103 61.4612 110.608 61.2863C110.568 61.2752 110.526 61.2722 110.485 61.2777C110.444 61.2831 110.404 61.2969 110.369 61.318C110.333 61.3391 110.303 61.3672 110.279 61.4005C110.255 61.4338 110.238 61.4716 110.23 61.5115C110.213 61.5958 110.227 61.6835 110.272 61.7577C110.316 61.8319 110.387 61.8874 110.471 61.9135C110.86 62.0578 111.21 62.2867 111.495 62.583C111.78 62.8792 111.992 63.235 112.115 63.6233C112.144 63.7083 112.205 63.7793 112.285 63.8216Z" fill="#263238"/>
<path d="M103.375 63.516L104.712 63.457C104.712 63.457 103.879 64.32 103.375 63.516Z" fill="#263238"/>
<path d="M130.287 109.006L129.46 110.577C129.304 110.864 129.08 111.111 128.808 111.298C128.535 111.484 128.222 111.604 127.892 111.649L124.752 112.094C124.133 112.183 123.5 112.125 122.908 111.926C122.316 111.726 121.781 111.39 121.349 110.947L120.801 110.411C121.99 107.731 125.311 105.656 125.311 105.656L126.188 104.965C126.365 104.819 126.569 104.708 126.79 104.64C127.011 104.571 127.243 104.546 127.474 104.565C127.704 104.585 127.929 104.649 128.134 104.753C128.339 104.857 128.522 105 128.67 105.174L130.09 106.862C130.331 107.163 130.478 107.525 130.513 107.906C130.548 108.286 130.469 108.668 130.287 109.006Z" fill="#FFB573"/>
<path d="M125.371 101.61L123.437 100.886C123.079 100.751 122.693 100.702 122.312 100.743C121.93 100.784 121.565 100.914 121.245 101.122L118.215 103.084C117.618 103.471 117.124 103.992 116.775 104.603C116.426 105.215 116.232 105.9 116.209 106.6L116.181 107.479C119.3 108.894 123.738 108.176 123.738 108.176L125.026 108.111C125.291 108.104 125.552 108.046 125.794 107.94C126.035 107.834 126.253 107.682 126.435 107.493C126.616 107.304 126.757 107.082 126.85 106.84C126.944 106.597 126.987 106.339 126.977 106.08L126.873 103.582C126.845 103.146 126.689 102.728 126.422 102.378C126.155 102.027 125.79 101.761 125.371 101.61Z" fill="#FFB573"/>
<path d="M88.776 93.5428L89.2254 94.5076L89.7131 95.5313C90.0474 96.2174 90.3762 96.9035 90.7269 97.5896C91.4119 98.9564 92.1462 100.307 92.8915 101.647C93.6368 102.987 94.4259 104.295 95.2424 105.581C96.0589 106.868 96.9248 108.117 97.8071 109.333L97.2591 108.797C97.1744 108.729 97.0752 108.679 96.9686 108.653C96.9686 108.653 96.9686 108.679 97.0618 108.701C97.3428 108.772 97.6319 108.808 97.9221 108.808C98.8072 108.821 99.6915 108.753 100.563 108.604C102.586 108.271 104.586 107.82 106.553 107.254C108.586 106.718 110.63 106.058 112.68 105.394C114.729 104.729 116.784 104.022 118.801 103.33H118.845C119.329 103.168 119.857 103.184 120.33 103.377C120.802 103.57 121.186 103.925 121.409 104.376C121.632 104.827 121.678 105.342 121.539 105.824C121.399 106.306 121.084 106.721 120.653 106.991C118.724 108.181 116.784 109.237 114.79 110.261C112.795 111.284 110.696 112.201 108.614 113.096C106.455 114.003 104.231 114.755 101.961 115.347C100.692 115.678 99.3954 115.893 98.0865 115.99C97.2799 116.048 96.469 116.016 95.6699 115.894C95.1619 115.816 94.6628 115.69 94.1793 115.519C93.5618 115.29 92.982 114.974 92.4586 114.581C92.3133 114.456 92.1812 114.318 92.064 114.168L91.9161 114.002C90.7653 112.694 89.6309 111.375 88.6281 109.982C88.0801 109.296 87.6197 108.588 87.1211 107.891C86.6224 107.195 86.1675 106.466 85.7182 105.747C84.803 104.306 83.9646 102.826 83.1755 101.315C82.7864 100.554 82.3973 99.7979 82.0356 99.0207C81.8603 98.6294 81.6794 98.2381 81.4876 97.8415C81.2958 97.4448 81.1588 97.0589 80.967 96.5819C80.531 95.5797 80.5199 94.4491 80.9361 93.4389C81.3523 92.4287 82.1618 91.6216 83.1864 91.1951C84.2111 90.7686 85.3669 90.7577 86.3998 91.1648C87.4326 91.5719 88.2578 92.3637 88.6938 93.3659L88.776 93.5428Z" fill="#FFB573"/>
<path d="M82.8193 83.2301C78.2599 86.6069 78.1996 91.4416 81.0328 100.607C84.4578 102.151 92.5846 99.7979 92.5846 99.7979C92.5846 99.7979 89.5213 85.5295 82.8193 83.2301Z" fill="#BA68C8"/>
<path d="M137 219.288C131.865 219.288 131.186 219.208 128.298 219.117C125.832 219.031 125.24 219.331 123.251 219.288C121.607 219.251 121.656 217.68 122.155 215.912C122.412 215.017 122.807 213.119 123.158 211.666L130.682 211.13C131.745 213.108 134.128 215.922 137.027 216.303C139.778 216.673 139.022 219.288 137 219.288Z" fill="#263238"/>
<path d="M129.481 139.494C119.069 131.492 95.5712 125.558 95.5712 125.558L80.1669 123.114C80.1669 123.114 72.884 132.628 75.4048 143.798C77.1968 151.726 99.862 154.089 116.406 153.87C111.94 176.414 122.982 211.264 122.982 211.264C125.355 211.993 129.712 212.465 130.917 211.8C130.15 199.07 130.451 169.194 133.109 148.167C133.322 146.538 133.099 144.883 132.463 143.363C131.828 141.843 130.8 140.51 129.481 139.494Z" fill="#263238"/>
<path d="M131.213 205.969C131.361 207.196 131.652 209.33 132.024 210.943C132.161 211.522 131.953 212.095 131.569 212.224C128.374 213.333 123.514 212.642 121.968 212.379C121.794 212.318 121.642 212.21 121.529 212.066C121.416 211.923 121.348 211.75 121.333 211.57L120.374 206.939C120.242 206.306 120.516 205.695 120.922 205.669L130.424 205.036C130.802 205.009 131.142 205.417 131.213 205.969Z" fill="#BA68C8"/>
<path d="M111.715 219.808C106.619 219.808 102.816 218.361 100.405 215.52C96.4754 210.862 97.7303 204.221 97.7851 203.943C97.7956 203.856 97.8242 203.773 97.8691 203.698C97.914 203.623 97.9743 203.557 98.0462 203.506C98.118 203.455 98.2 203.418 98.2868 203.4C98.3737 203.381 98.4636 203.38 98.551 203.396C98.6383 203.413 98.7212 203.447 98.7944 203.496C98.8677 203.546 98.9297 203.609 98.9767 203.683C99.0236 203.757 99.0544 203.84 99.0672 203.926C99.08 204.012 99.0745 204.1 99.051 204.184C99.051 204.248 97.8619 210.53 101.407 214.722C103.561 217.268 107.03 218.559 111.715 218.559C117.815 218.559 121.744 217.043 123.727 213.928C128.561 206.339 121.174 190.2 112.499 172.914C105.627 159.213 92.8257 133.716 99.051 123.945C100.777 121.233 103.813 119.86 108.077 119.86C115.201 119.86 119.453 121.886 120.681 125.88C122.467 131.711 116.91 139.708 114.105 141.525C114.033 141.571 113.952 141.602 113.868 141.617C113.784 141.632 113.697 141.631 113.614 141.613C113.53 141.595 113.451 141.562 113.38 141.514C113.31 141.466 113.25 141.406 113.203 141.335C113.157 141.265 113.125 141.186 113.11 141.104C113.094 141.021 113.096 140.937 113.114 140.855C113.132 140.773 113.166 140.695 113.215 140.627C113.264 140.558 113.326 140.499 113.398 140.453C115.633 139.012 121.07 131.465 119.459 126.228C118.417 122.83 114.598 121.109 108.098 121.109C104.262 121.109 101.665 122.251 100.169 124.599C94.3273 133.775 106.92 158.865 113.683 172.34C122.527 189.953 130.035 206.44 124.845 214.582C122.588 218.098 118.297 219.808 111.715 219.808Z" fill="#BA68C8"/>
<path opacity="0.3" d="M111.715 219.808C106.619 219.808 102.816 218.361 100.405 215.52C96.4754 210.862 97.7303 204.221 97.7851 203.943C97.7956 203.856 97.8242 203.773 97.8691 203.698C97.914 203.623 97.9743 203.557 98.0462 203.506C98.118 203.455 98.2 203.418 98.2868 203.4C98.3737 203.381 98.4636 203.38 98.551 203.396C98.6383 203.413 98.7212 203.447 98.7944 203.496C98.8677 203.546 98.9297 203.609 98.9767 203.683C99.0236 203.757 99.0544 203.84 99.0672 203.926C99.08 204.012 99.0745 204.1 99.051 204.184C99.051 204.248 97.8619 210.53 101.407 214.722C103.561 217.268 107.03 218.559 111.715 218.559C117.815 218.559 121.744 217.043 123.727 213.928C128.561 206.339 121.174 190.2 112.499 172.914C105.627 159.213 92.8257 133.716 99.051 123.945C100.777 121.233 103.813 119.86 108.077 119.86C115.201 119.86 119.453 121.886 120.681 125.88C122.467 131.711 116.91 139.708 114.105 141.525C114.033 141.571 113.952 141.602 113.868 141.617C113.784 141.632 113.697 141.631 113.614 141.613C113.53 141.595 113.451 141.562 113.38 141.514C113.31 141.466 113.25 141.406 113.203 141.335C113.157 141.265 113.125 141.186 113.11 141.104C113.094 141.021 113.096 140.937 113.114 140.855C113.132 140.773 113.166 140.695 113.215 140.627C113.264 140.558 113.326 140.499 113.398 140.453C115.633 139.012 121.07 131.465 119.459 126.228C118.417 122.83 114.598 121.109 108.098 121.109C104.262 121.109 101.665 122.251 100.169 124.599C94.3273 133.775 106.92 158.865 113.683 172.34C122.527 189.953 130.035 206.44 124.845 214.582C122.588 218.098 118.297 219.808 111.715 219.808Z" fill="white"/>
<path d="M158.843 219.808C153.747 219.808 149.944 218.361 147.533 215.52C143.603 210.862 144.858 204.221 144.913 203.943C144.924 203.856 144.952 203.773 144.997 203.698C145.042 203.623 145.102 203.557 145.174 203.506C145.246 203.455 145.328 203.418 145.415 203.4C145.502 203.381 145.592 203.38 145.679 203.396C145.766 203.413 145.849 203.447 145.922 203.496C145.996 203.546 146.058 203.609 146.105 203.683C146.152 203.757 146.182 203.84 146.195 203.926C146.208 204.012 146.202 204.1 146.179 204.184C146.179 204.248 144.99 210.53 148.535 214.722C150.689 217.268 154.158 218.559 158.843 218.559C164.943 218.559 168.872 217.043 170.855 213.928C175.689 206.339 168.302 190.2 159.627 172.914C152.755 159.213 139.954 133.716 146.179 123.945C147.905 121.233 150.941 119.86 155.205 119.86C162.329 119.86 166.581 121.886 167.809 125.88C169.595 131.711 164.038 139.708 161.233 141.525C161.161 141.571 161.08 141.602 160.996 141.617C160.912 141.632 160.825 141.631 160.742 141.613C160.658 141.595 160.579 141.562 160.508 141.514C160.438 141.466 160.378 141.406 160.331 141.335C160.285 141.265 160.253 141.186 160.238 141.104C160.222 141.021 160.224 140.937 160.242 140.855C160.26 140.773 160.294 140.695 160.343 140.627C160.392 140.558 160.454 140.499 160.526 140.453C162.761 139.012 168.198 131.465 166.587 126.228C165.545 122.83 161.726 121.109 155.226 121.109C151.39 121.109 148.793 122.251 147.297 124.599C141.455 133.775 154.048 158.865 160.811 172.34C169.655 189.953 177.163 206.44 171.973 214.582C169.716 218.098 165.425 219.808 158.843 219.808Z" fill="#BA68C8"/>
<path opacity="0.3" d="M158.843 219.808C153.747 219.808 149.944 218.361 147.533 215.52C143.603 210.862 144.858 204.221 144.913 203.943C144.924 203.856 144.952 203.773 144.997 203.698C145.042 203.623 145.102 203.557 145.174 203.506C145.246 203.455 145.328 203.418 145.415 203.4C145.502 203.381 145.592 203.38 145.679 203.396C145.766 203.413 145.849 203.447 145.922 203.496C145.996 203.546 146.058 203.609 146.105 203.683C146.152 203.757 146.182 203.84 146.195 203.926C146.208 204.012 146.202 204.1 146.179 204.184C146.179 204.248 144.99 210.53 148.535 214.722C150.689 217.268 154.158 218.559 158.843 218.559C164.943 218.559 168.872 217.043 170.855 213.928C175.689 206.339 168.302 190.2 159.627 172.914C152.755 159.213 139.954 133.716 146.179 123.945C147.905 121.233 150.941 119.86 155.205 119.86C162.329 119.86 166.581 121.886 167.809 125.88C169.595 131.711 164.038 139.708 161.233 141.525C161.161 141.571 161.08 141.602 160.996 141.617C160.912 141.632 160.825 141.631 160.742 141.613C160.658 141.595 160.579 141.562 160.508 141.514C160.438 141.466 160.378 141.406 160.331 141.335C160.285 141.265 160.253 141.186 160.238 141.104C160.222 141.021 160.224 140.937 160.242 140.855C160.26 140.773 160.294 140.695 160.343 140.627C160.392 140.558 160.454 140.499 160.526 140.453C162.761 139.012 168.198 131.465 166.587 126.228C165.545 122.83 161.726 121.109 155.226 121.109C151.39 121.109 148.793 122.251 147.297 124.599C141.455 133.775 154.048 158.865 160.811 172.34C169.655 189.953 177.163 206.44 171.973 214.582C169.716 218.098 165.425 219.808 158.843 219.808Z" fill="white"/>
<path d="M164.384 117.711H75.6843V120.477H164.384V117.711Z" fill="#263238"/>
<path d="M146.256 115.899C146.169 115.9 146.083 115.882 146.004 115.846C145.925 115.814 145.854 115.766 145.794 115.707C145.734 115.648 145.687 115.577 145.656 115.5C145.624 115.423 145.608 115.34 145.61 115.257C145.611 115.173 145.63 115.091 145.664 115.015L154.432 94.9631L135.252 91.0236C135.084 90.9887 134.937 90.8901 134.844 90.7494C134.75 90.6086 134.718 90.4373 134.753 90.2731C134.789 90.109 134.89 89.9653 135.034 89.8739C135.177 89.7824 135.353 89.7506 135.52 89.7854L155.473 93.8858C155.567 93.9052 155.655 93.9446 155.731 94.0012C155.807 94.0579 155.869 94.1304 155.913 94.2134C155.957 94.2965 155.982 94.3881 155.985 94.4816C155.989 94.5751 155.971 94.6681 155.933 94.7541L146.864 115.519C146.812 115.633 146.726 115.73 146.618 115.798C146.51 115.866 146.384 115.901 146.256 115.899Z" fill="#BA68C8"/>
<path opacity="0.2" d="M146.256 115.899C146.169 115.9 146.083 115.882 146.004 115.846C145.925 115.814 145.854 115.766 145.794 115.707C145.734 115.648 145.687 115.577 145.656 115.5C145.624 115.423 145.608 115.34 145.61 115.257C145.611 115.173 145.63 115.091 145.664 115.015L154.432 94.9631L135.252 91.0236C135.084 90.9887 134.937 90.8901 134.844 90.7494C134.75 90.6086 134.718 90.4373 134.753 90.2731C134.789 90.109 134.89 89.9653 135.034 89.8739C135.177 89.7824 135.353 89.7506 135.52 89.7854L155.473 93.8858C155.567 93.9052 155.655 93.9446 155.731 94.0012C155.807 94.0579 155.869 94.1304 155.913 94.2134C155.957 94.2965 155.982 94.3881 155.985 94.4816C155.989 94.5751 155.971 94.6681 155.933 94.7541L146.864 115.519C146.812 115.633 146.726 115.73 146.618 115.798C146.51 115.866 146.384 115.901 146.256 115.899Z" fill="black"/>
<path d="M133.038 90.4018C133.037 90.8611 133.175 91.3103 133.435 91.6927C133.695 92.0751 134.065 92.3734 134.499 92.5499C134.932 92.7263 135.41 92.7731 135.87 92.6841C136.331 92.5952 136.754 92.3746 137.087 92.0502C137.419 91.7258 137.646 91.3123 137.738 90.8619C137.83 90.4116 137.783 89.9447 137.604 89.5203C137.424 89.0959 137.12 88.7331 136.73 88.4778C136.339 88.2226 135.88 88.0863 135.411 88.0863C134.782 88.0863 134.18 88.3301 133.735 88.7642C133.29 89.1983 133.039 89.7872 133.038 90.4018Z" fill="#BA68C8"/>
<path opacity="0.2" d="M133.038 90.4018C133.037 90.8611 133.175 91.3103 133.435 91.6927C133.695 92.0751 134.065 92.3734 134.499 92.5499C134.932 92.7263 135.41 92.7731 135.87 92.6841C136.331 92.5952 136.754 92.3746 137.087 92.0502C137.419 91.7258 137.646 91.3123 137.738 90.8619C137.83 90.4116 137.783 89.9447 137.604 89.5203C137.424 89.0959 137.12 88.7331 136.73 88.4778C136.339 88.2226 135.88 88.0863 135.411 88.0863C134.782 88.0863 134.18 88.3301 133.735 88.7642C133.29 89.1983 133.039 89.7872 133.038 90.4018Z" fill="black"/>
<path d="M137.153 117.711H155.363L154.668 116.237C154.489 115.852 154.2 115.525 153.837 115.296C153.473 115.067 153.05 114.945 152.618 114.945H139.893C139.461 114.945 139.038 115.067 138.675 115.296C138.311 115.525 138.023 115.852 137.844 116.237L137.153 117.711Z" fill="#BA68C8"/>
<path d="M117.82 85.3848C118.234 86.2866 118.911 87.049 119.765 87.5771C119.976 87.7082 120.194 87.8281 120.418 87.9362L120.653 88.038C120.807 88.1077 120.96 88.1774 121.119 88.2363L121.415 88.3274L121.864 88.4668L122.193 88.5419L122.637 88.6276C122.779 88.6544 122.922 88.6705 123.064 88.6866L123.514 88.7402H123.782C123.985 88.7402 124.188 88.7402 124.396 88.7402H124.555C124.818 88.7402 125.076 88.7402 125.339 88.7027H125.492C125.761 88.6759 126.04 88.6491 126.292 88.6062H126.363C126.648 88.5579 126.939 88.5043 127.224 88.4454C127.512 88.381 127.803 88.306 128.095 88.2203H128.155C128.429 88.1345 128.703 88.0434 128.977 87.9469L129.081 87.9094C129.344 87.8129 129.602 87.7057 129.86 87.5931L130.008 87.5288C130.265 87.4109 130.517 87.2876 130.769 87.159L130.912 87.0786C131.114 86.966 131.317 86.8535 131.515 86.7355L131.756 86.5854C131.904 86.4943 132.041 86.3925 132.189 86.296L132.578 86.0227C132.802 85.8565 133.027 85.685 133.241 85.4867C133.454 85.2883 133.63 85.1436 133.789 84.9507L133.959 84.7738C134.079 84.6559 134.2 84.5326 134.309 84.4147L134.49 84.211L134.781 83.8626L134.945 83.6482L135.203 83.2891C135.246 83.2247 135.29 83.1604 135.329 83.0961C135.466 82.8817 135.597 82.6673 135.707 82.4529C135.745 82.3832 135.772 82.3189 135.805 82.2546C135.838 82.1903 135.915 82.0241 135.964 81.9115C136.014 81.799 136.036 81.7293 136.074 81.6435L136.156 81.4131C136.194 81.3005 136.227 81.1879 136.26 81.0754C136.277 81.0279 136.292 80.9796 136.304 80.9307C136.342 80.7752 136.381 80.6198 136.408 80.4643C136.408 80.4322 136.408 80.4 136.408 80.3732C136.408 80.2446 136.447 80.1213 136.457 79.998C136.468 79.8747 136.457 79.9069 136.457 79.864C136.457 79.8211 136.457 79.6335 136.457 79.5156V79.4084C136.457 79.2637 136.457 79.119 136.457 78.9742V78.8885C136.457 78.7706 136.425 78.658 136.403 78.5401C136.381 78.4222 136.403 78.4597 136.403 78.4168C136.403 78.3739 136.342 78.1756 136.304 78.0577V77.9987C136.256 77.8511 136.199 77.7062 136.134 77.5646L137.071 79.6657C137.082 79.6935 137.095 79.7204 137.11 79.7461C137.153 79.8587 137.197 79.9712 137.236 80.0891V80.1481C137.236 80.2339 137.29 80.3196 137.312 80.4107V80.5072C137.324 80.5477 137.333 80.5889 137.34 80.6305C137.34 80.668 137.34 80.7109 137.34 80.7484C137.34 80.7859 137.34 80.8985 137.367 80.9735C137.37 81.0039 137.37 81.0343 137.367 81.0647C137.37 81.0752 137.37 81.0862 137.367 81.0968C137.367 81.2094 137.367 81.3273 137.367 81.4452V81.8097C137.365 81.8561 137.365 81.9026 137.367 81.9491C137.364 81.9955 137.364 82.042 137.367 82.0884C137.367 82.1206 137.367 82.1527 137.367 82.1849C137.367 82.2171 137.367 82.3671 137.329 82.4582V82.5494C137.329 82.6887 137.274 82.8281 137.236 82.9674C137.235 82.9764 137.235 82.9853 137.236 82.9942C137.236 83.0425 137.203 83.0907 137.192 83.1336C137.181 83.1765 137.142 83.3212 137.11 83.4123C137.077 83.5034 137.11 83.4552 137.11 83.4767C137.11 83.4981 137.055 83.6267 137.022 83.7018C137.002 83.7716 136.976 83.8397 136.945 83.9054C136.945 83.9054 136.945 83.9483 136.945 83.9751C136.896 84.0877 136.841 84.2003 136.781 84.3182C136.721 84.4361 136.737 84.4254 136.71 84.479V84.5111C136.594 84.7255 136.468 84.9453 136.331 85.1597L136.299 85.2133C136.299 85.2562 136.233 85.3044 136.2 85.3473L135.904 85.76L135.74 85.9691C135.646 86.087 135.548 86.2049 135.449 86.3174L135.268 86.5211C135.159 86.6444 135.038 86.7677 134.918 86.8856C134.797 87.0035 134.808 87.0035 134.748 87.0571C134.567 87.234 134.375 87.4055 134.2 87.5931C134.024 87.7807 133.844 87.8879 133.652 88.0273L133.537 88.1077L133.142 88.3864L132.863 88.5847L132.715 88.6759L132.468 88.8206L132.221 88.976L131.871 89.1636L131.723 89.244L131.652 89.2869L131.104 89.5442L130.945 89.6139L130.797 89.6782L130.594 89.7693L130.095 89.9676H130.018L129.914 90.0051L129.613 90.1177L129.131 90.2678H129.092H129.027L128.648 90.3696C128.49 90.4125 128.331 90.4554 128.166 90.4875C128.013 90.5251 127.854 90.5572 127.695 90.584C127.536 90.6108 127.443 90.6322 127.311 90.6483H127.24H127.202L126.687 90.7127L126.44 90.7394H126.287H126.144C125.958 90.7394 125.766 90.7394 125.596 90.7662H124.944C124.862 90.7662 124.785 90.7662 124.703 90.7662H124.434H124.259L123.985 90.7287L123.558 90.6698H123.41L123.108 90.6001L122.785 90.5251C122.631 90.4875 122.483 90.4393 122.33 90.3911C122.177 90.3428 122.133 90.3321 122.04 90.2946C121.946 90.2571 121.727 90.1713 121.568 90.1016L121.338 89.9998C121.114 89.8899 120.897 89.7682 120.686 89.6353C119.83 89.1088 119.153 88.3459 118.741 87.4431L117.82 85.3848Z" fill="#BA68C8"/>
<path opacity="0.2" d="M117.82 85.3848C118.234 86.2866 118.911 87.049 119.765 87.5771C119.976 87.7082 120.194 87.8281 120.418 87.9362L120.653 88.038C120.807 88.1077 120.96 88.1774 121.119 88.2363L121.415 88.3274L121.864 88.4668L122.193 88.5419L122.637 88.6276C122.779 88.6544 122.922 88.6705 123.064 88.6866L123.514 88.7402H123.782C123.985 88.7402 124.188 88.7402 124.396 88.7402H124.555C124.818 88.7402 125.076 88.7402 125.339 88.7027H125.492C125.761 88.6759 126.04 88.6491 126.292 88.6062H126.363C126.648 88.5579 126.939 88.5043 127.224 88.4454C127.512 88.381 127.803 88.306 128.095 88.2203H128.155C128.429 88.1345 128.703 88.0434 128.977 87.9469L129.081 87.9094C129.344 87.8129 129.602 87.7057 129.86 87.5931L130.008 87.5288C130.265 87.4109 130.517 87.2876 130.769 87.159L130.912 87.0786C131.114 86.966 131.317 86.8535 131.515 86.7355L131.756 86.5854C131.904 86.4943 132.041 86.3925 132.189 86.296L132.578 86.0227C132.802 85.8565 133.027 85.685 133.241 85.4867C133.454 85.2883 133.63 85.1436 133.789 84.9507L133.959 84.7738C134.079 84.6559 134.2 84.5326 134.309 84.4147L134.49 84.211L134.781 83.8626L134.945 83.6482L135.203 83.2891C135.246 83.2247 135.29 83.1604 135.329 83.0961C135.466 82.8817 135.597 82.6673 135.707 82.4529C135.745 82.3832 135.772 82.3189 135.805 82.2546C135.838 82.1903 135.915 82.0241 135.964 81.9115C136.014 81.799 136.036 81.7293 136.074 81.6435L136.156 81.4131C136.194 81.3005 136.227 81.1879 136.26 81.0754C136.277 81.0279 136.292 80.9796 136.304 80.9307C136.342 80.7752 136.381 80.6198 136.408 80.4643C136.408 80.4322 136.408 80.4 136.408 80.3732C136.408 80.2446 136.447 80.1213 136.457 79.998C136.468 79.8747 136.457 79.9069 136.457 79.864C136.457 79.8211 136.457 79.6335 136.457 79.5156V79.4084C136.457 79.2637 136.457 79.119 136.457 78.9742V78.8885C136.457 78.7706 136.425 78.658 136.403 78.5401C136.381 78.4222 136.403 78.4597 136.403 78.4168C136.403 78.3739 136.342 78.1756 136.304 78.0577V77.9987C136.256 77.8511 136.199 77.7062 136.134 77.5646L137.071 79.6657C137.082 79.6935 137.095 79.7204 137.11 79.7461C137.153 79.8587 137.197 79.9712 137.236 80.0891V80.1481C137.236 80.2339 137.29 80.3196 137.312 80.4107V80.5072C137.324 80.5477 137.333 80.5889 137.34 80.6305C137.34 80.668 137.34 80.7109 137.34 80.7484C137.34 80.7859 137.34 80.8985 137.367 80.9735C137.37 81.0039 137.37 81.0343 137.367 81.0647C137.37 81.0752 137.37 81.0862 137.367 81.0968C137.367 81.2094 137.367 81.3273 137.367 81.4452V81.8097C137.365 81.8561 137.365 81.9026 137.367 81.9491C137.364 81.9955 137.364 82.042 137.367 82.0884C137.367 82.1206 137.367 82.1527 137.367 82.1849C137.367 82.2171 137.367 82.3671 137.329 82.4582V82.5494C137.329 82.6887 137.274 82.8281 137.236 82.9674C137.235 82.9764 137.235 82.9853 137.236 82.9942C137.236 83.0425 137.203 83.0907 137.192 83.1336C137.181 83.1765 137.142 83.3212 137.11 83.4123C137.077 83.5034 137.11 83.4552 137.11 83.4767C137.11 83.4981 137.055 83.6267 137.022 83.7018C137.002 83.7716 136.976 83.8397 136.945 83.9054C136.945 83.9054 136.945 83.9483 136.945 83.9751C136.896 84.0877 136.841 84.2003 136.781 84.3182C136.721 84.4361 136.737 84.4254 136.71 84.479V84.5111C136.594 84.7255 136.468 84.9453 136.331 85.1597L136.299 85.2133C136.299 85.2562 136.233 85.3044 136.2 85.3473L135.904 85.76L135.74 85.9691C135.646 86.087 135.548 86.2049 135.449 86.3174L135.268 86.5211C135.159 86.6444 135.038 86.7677 134.918 86.8856C134.797 87.0035 134.808 87.0035 134.748 87.0571C134.567 87.234 134.375 87.4055 134.2 87.5931C134.024 87.7807 133.844 87.8879 133.652 88.0273L133.537 88.1077L133.142 88.3864L132.863 88.5847L132.715 88.6759L132.468 88.8206L132.221 88.976L131.871 89.1636L131.723 89.244L131.652 89.2869L131.104 89.5442L130.945 89.6139L130.797 89.6782L130.594 89.7693L130.095 89.9676H130.018L129.914 90.0051L129.613 90.1177L129.131 90.2678H129.092H129.027L128.648 90.3696C128.49 90.4125 128.331 90.4554 128.166 90.4875C128.013 90.5251 127.854 90.5572 127.695 90.584C127.536 90.6108 127.443 90.6322 127.311 90.6483H127.24H127.202L126.687 90.7127L126.44 90.7394H126.287H126.144C125.958 90.7394 125.766 90.7394 125.596 90.7662H124.944C124.862 90.7662 124.785 90.7662 124.703 90.7662H124.434H124.259L123.985 90.7287L123.558 90.6698H123.41L123.108 90.6001L122.785 90.5251C122.631 90.4875 122.483 90.4393 122.33 90.3911C122.177 90.3428 122.133 90.3321 122.04 90.2946C121.946 90.2571 121.727 90.1713 121.568 90.1016L121.338 89.9998C121.114 89.8899 120.897 89.7682 120.686 89.6353C119.83 89.1088 119.153 88.3459 118.741 87.4431L117.82 85.3848Z" fill="black"/>
<path d="M138.759 74.4129C138.444 74.2146 138.116 74.0356 137.778 73.8769C137.663 73.8179 137.543 73.7751 137.427 73.7215C137.197 73.6196 136.962 73.5178 136.721 73.4267C136.578 73.3731 136.43 73.3302 136.282 73.2873C136.134 73.2444 135.833 73.1426 135.597 73.0783L135.109 72.9711C134.89 72.9175 134.666 72.8746 134.435 72.8371C134.205 72.7995 134.008 72.7727 133.794 72.7459C133.58 72.7191 133.345 72.687 133.115 72.6709L132.709 72.6441C132.408 72.6441 132.095 72.6441 131.789 72.6441H131.52C131.131 72.6441 130.736 72.6441 130.342 72.6977H130.106C129.706 72.7352 129.306 72.7781 128.901 72.8424H128.791C128.358 72.9121 127.931 72.9925 127.498 73.089C127.059 73.1855 126.626 73.3034 126.188 73.4267L126.095 73.4535C125.678 73.5767 125.262 73.7161 124.851 73.8662L124.697 73.9198C124.303 74.0699 123.914 74.2307 123.525 74.4022L123.305 74.4987C122.922 74.6702 122.538 74.8578 122.16 75.0347L121.941 75.1526C121.634 75.3187 121.333 75.4903 121.037 75.6886C120.911 75.7636 120.79 75.8333 120.67 75.9137C120.45 76.0531 120.237 76.1978 120.023 76.3479C119.809 76.4979 119.623 76.6212 119.431 76.7606C119.091 77.0125 118.757 77.2966 118.434 77.5431C118.11 77.7897 117.842 78.0791 117.568 78.3257L117.31 78.583C117.13 78.7652 116.949 78.9475 116.762 79.119L116.488 79.4245C116.335 79.6014 116.192 79.7729 116.05 79.9605L115.803 80.2767C115.666 80.459 115.54 80.6466 115.414 80.8127C115.349 80.9092 115.283 81.0003 115.222 81.0968C115.014 81.4238 114.822 81.7454 114.647 82.0723C114.598 82.1742 114.554 82.2707 114.505 82.3671C114.422 82.544 114.335 82.7155 114.263 82.9031C114.192 83.0907 114.154 83.1711 114.099 83.3105C114.044 83.4499 114.011 83.5356 113.973 83.6535C113.935 83.7715 113.863 83.9912 113.814 84.1574C113.814 84.2324 113.77 84.3021 113.754 84.3771C113.688 84.613 113.639 84.8488 113.595 85.0847V85.2187C113.562 85.4063 113.54 85.5939 113.518 85.7547C113.518 85.8243 113.518 85.894 113.518 85.9637C113.518 86.1352 113.518 86.3067 113.518 86.4997V86.6712C113.518 86.8856 113.518 87.1054 113.557 87.3198V87.4538C113.557 87.6253 113.606 87.8022 113.639 87.9898C113.639 88.0541 113.639 88.1131 113.677 88.172C113.721 88.3596 113.77 88.5365 113.825 88.708V88.7938C113.902 89.0189 113.984 89.2387 114.077 89.4531L113.162 87.368C113.162 87.3251 113.124 87.2823 113.107 87.2447C113.036 87.0732 112.97 86.9071 112.915 86.7087C112.915 86.6766 112.915 86.6444 112.915 86.6176C112.877 86.489 112.833 86.355 112.8 86.221C112.8 86.1727 112.8 86.1245 112.773 86.0763C112.746 86.028 112.773 85.953 112.735 85.894C112.696 85.8351 112.735 85.7707 112.696 85.7118C112.658 85.6528 112.663 85.4813 112.647 85.3687V85.2401C112.647 85.2401 112.647 85.2079 112.647 85.1919C112.647 85.0168 112.636 84.8381 112.614 84.6559V84.4093C112.614 84.3128 112.614 84.211 112.614 84.1091C112.614 84.0073 112.614 83.9644 112.614 83.8947V83.6857C112.614 83.6428 112.614 83.5946 112.614 83.5463C112.614 83.407 112.652 83.2623 112.674 83.1229C112.672 83.0801 112.672 83.0371 112.674 82.9943C112.671 82.9819 112.671 82.9691 112.674 82.9567C112.707 82.7477 112.756 82.5387 112.811 82.3296C112.809 82.3136 112.809 82.2974 112.811 82.2814C112.811 82.2117 112.855 82.1367 112.877 82.0616C112.899 81.9866 112.948 81.7883 112.998 81.6543L113.03 81.5578C113.069 81.4452 113.118 81.3273 113.162 81.2147C113.206 81.1022 113.233 81.0111 113.277 80.9092C113.321 80.8074 113.31 80.8449 113.321 80.8074C113.398 80.6359 113.48 80.4643 113.562 80.2714C113.606 80.191 113.639 80.1052 113.677 80.0248L113.71 79.9766C113.88 79.6496 114.072 79.3227 114.258 79.0011L114.302 78.9207C114.351 78.851 114.406 78.7813 114.45 78.7116C114.576 78.5294 114.702 78.3471 114.839 78.1756L115.085 77.8594L115.524 77.3234L115.798 77.0179C115.968 76.8303 116.143 76.648 116.346 76.4819L116.603 76.2246C116.883 75.9619 117.151 75.6886 117.469 75.442C117.787 75.1955 118.017 74.9971 118.291 74.7881L118.467 74.6648C118.658 74.5201 118.861 74.3861 119.058 74.2467C119.256 74.1074 119.338 74.0431 119.486 73.9519L119.711 73.8126L120.072 73.5875L120.45 73.357L120.998 73.0729L121.218 72.9496L121.327 72.8907C121.59 72.7567 121.875 72.6227 122.122 72.4994L122.363 72.3922L122.582 72.2957L122.889 72.1563C123.141 72.0545 123.388 71.9527 123.64 71.8615L123.76 71.8187L123.914 71.7651L124.369 71.5989C124.61 71.5185 124.856 71.4381 125.097 71.3684H125.152H125.251C125.437 71.3095 125.629 71.2559 125.799 71.2076L126.528 71.0254C126.769 70.9664 127.01 70.9182 127.251 70.8753C127.492 70.8324 127.629 70.8056 127.799 70.7788H127.909H127.98L128.753 70.677L129.12 70.6448H129.35H129.564C129.854 70.6448 130.112 70.6127 130.419 70.6073H131.334H131.695H132.101C132.189 70.6073 132.282 70.6073 132.369 70.6073L132.78 70.6663C132.994 70.6663 133.213 70.7199 133.427 70.7574C133.498 70.7574 133.575 70.7574 133.646 70.7895C133.717 70.8217 133.948 70.8592 134.096 70.8914C134.244 70.9235 134.424 70.9611 134.589 71.0039C134.753 71.0468 135.044 71.1379 135.268 71.2076C135.493 71.2773 135.564 71.2987 135.707 71.3523C135.947 71.4386 136.183 71.537 136.414 71.6471L136.764 71.7972C137.101 71.9579 137.429 72.1369 137.745 72.3332C139.039 73.1253 140.062 74.2767 140.683 75.6403L141.62 77.7468C141.024 76.3835 140.028 75.2234 138.759 74.4129Z" fill="#BA68C8"/>
<path opacity="0.2" d="M138.759 74.4129C138.444 74.2146 138.116 74.0356 137.778 73.8769C137.663 73.8179 137.543 73.7751 137.427 73.7215C137.197 73.6196 136.962 73.5178 136.721 73.4267C136.578 73.3731 136.43 73.3302 136.282 73.2873C136.134 73.2444 135.833 73.1426 135.597 73.0783L135.109 72.9711C134.89 72.9175 134.666 72.8746 134.435 72.8371C134.205 72.7995 134.008 72.7727 133.794 72.7459C133.58 72.7191 133.345 72.687 133.115 72.6709L132.709 72.6441C132.408 72.6441 132.095 72.6441 131.789 72.6441H131.52C131.131 72.6441 130.736 72.6441 130.342 72.6977H130.106C129.706 72.7352 129.306 72.7781 128.901 72.8424H128.791C128.358 72.9121 127.931 72.9925 127.498 73.089C127.059 73.1855 126.626 73.3034 126.188 73.4267L126.095 73.4535C125.678 73.5767 125.262 73.7161 124.851 73.8662L124.697 73.9198C124.303 74.0699 123.914 74.2307 123.525 74.4022L123.305 74.4987C122.922 74.6702 122.538 74.8578 122.16 75.0347L121.941 75.1526C121.634 75.3187 121.333 75.4903 121.037 75.6886C120.911 75.7636 120.79 75.8333 120.67 75.9137C120.45 76.0531 120.237 76.1978 120.023 76.3479C119.809 76.4979 119.623 76.6212 119.431 76.7606C119.091 77.0125 118.757 77.2966 118.434 77.5431C118.11 77.7897 117.842 78.0791 117.568 78.3257L117.31 78.583C117.13 78.7652 116.949 78.9475 116.762 79.119L116.488 79.4245C116.335 79.6014 116.192 79.7729 116.05 79.9605L115.803 80.2767C115.666 80.459 115.54 80.6466 115.414 80.8127C115.349 80.9092 115.283 81.0003 115.222 81.0968C115.014 81.4238 114.822 81.7454 114.647 82.0723C114.598 82.1742 114.554 82.2707 114.505 82.3671C114.422 82.544 114.335 82.7155 114.263 82.9031C114.192 83.0907 114.154 83.1711 114.099 83.3105C114.044 83.4499 114.011 83.5356 113.973 83.6535C113.935 83.7715 113.863 83.9912 113.814 84.1574C113.814 84.2324 113.77 84.3021 113.754 84.3771C113.688 84.613 113.639 84.8488 113.595 85.0847V85.2187C113.562 85.4063 113.54 85.5939 113.518 85.7547C113.518 85.8243 113.518 85.894 113.518 85.9637C113.518 86.1352 113.518 86.3067 113.518 86.4997V86.6712C113.518 86.8856 113.518 87.1054 113.557 87.3198V87.4538C113.557 87.6253 113.606 87.8022 113.639 87.9898C113.639 88.0541 113.639 88.1131 113.677 88.172C113.721 88.3596 113.77 88.5365 113.825 88.708V88.7938C113.902 89.0189 113.984 89.2387 114.077 89.4531L113.162 87.368C113.162 87.3251 113.124 87.2823 113.107 87.2447C113.036 87.0732 112.97 86.9071 112.915 86.7087C112.915 86.6766 112.915 86.6444 112.915 86.6176C112.877 86.489 112.833 86.355 112.8 86.221C112.8 86.1727 112.8 86.1245 112.773 86.0763C112.746 86.028 112.773 85.953 112.735 85.894C112.696 85.8351 112.735 85.7707 112.696 85.7118C112.658 85.6528 112.663 85.4813 112.647 85.3687V85.2401C112.647 85.2401 112.647 85.2079 112.647 85.1919C112.647 85.0168 112.636 84.8381 112.614 84.6559V84.4093C112.614 84.3128 112.614 84.211 112.614 84.1091C112.614 84.0073 112.614 83.9644 112.614 83.8947V83.6857C112.614 83.6428 112.614 83.5946 112.614 83.5463C112.614 83.407 112.652 83.2623 112.674 83.1229C112.672 83.0801 112.672 83.0371 112.674 82.9943C112.671 82.9819 112.671 82.9691 112.674 82.9567C112.707 82.7477 112.756 82.5387 112.811 82.3296C112.809 82.3136 112.809 82.2974 112.811 82.2814C112.811 82.2117 112.855 82.1367 112.877 82.0616C112.899 81.9866 112.948 81.7883 112.998 81.6543L113.03 81.5578C113.069 81.4452 113.118 81.3273 113.162 81.2147C113.206 81.1022 113.233 81.0111 113.277 80.9092C113.321 80.8074 113.31 80.8449 113.321 80.8074C113.398 80.6359 113.48 80.4643 113.562 80.2714C113.606 80.191 113.639 80.1052 113.677 80.0248L113.71 79.9766C113.88 79.6496 114.072 79.3227 114.258 79.0011L114.302 78.9207C114.351 78.851 114.406 78.7813 114.45 78.7116C114.576 78.5294 114.702 78.3471 114.839 78.1756L115.085 77.8594L115.524 77.3234L115.798 77.0179C115.968 76.8303 116.143 76.648 116.346 76.4819L116.603 76.2246C116.883 75.9619 117.151 75.6886 117.469 75.442C117.787 75.1955 118.017 74.9971 118.291 74.7881L118.467 74.6648C118.658 74.5201 118.861 74.3861 119.058 74.2467C119.256 74.1074 119.338 74.0431 119.486 73.9519L119.711 73.8126L120.072 73.5875L120.45 73.357L120.998 73.0729L121.218 72.9496L121.327 72.8907C121.59 72.7567 121.875 72.6227 122.122 72.4994L122.363 72.3922L122.582 72.2957L122.889 72.1563C123.141 72.0545 123.388 71.9527 123.64 71.8615L123.76 71.8187L123.914 71.7651L124.369 71.5989C124.61 71.5185 124.856 71.4381 125.097 71.3684H125.152H125.251C125.437 71.3095 125.629 71.2559 125.799 71.2076L126.528 71.0254C126.769 70.9664 127.01 70.9182 127.251 70.8753C127.492 70.8324 127.629 70.8056 127.799 70.7788H127.909H127.98L128.753 70.677L129.12 70.6448H129.35H129.564C129.854 70.6448 130.112 70.6127 130.419 70.6073H131.334H131.695H132.101C132.189 70.6073 132.282 70.6073 132.369 70.6073L132.78 70.6663C132.994 70.6663 133.213 70.7199 133.427 70.7574C133.498 70.7574 133.575 70.7574 133.646 70.7895C133.717 70.8217 133.948 70.8592 134.096 70.8914C134.244 70.9235 134.424 70.9611 134.589 71.0039C134.753 71.0468 135.044 71.1379 135.268 71.2076C135.493 71.2773 135.564 71.2987 135.707 71.3523C135.947 71.4386 136.183 71.537 136.414 71.6471L136.764 71.7972C137.101 71.9579 137.429 72.1369 137.745 72.3332C139.039 73.1253 140.062 74.2767 140.683 75.6403L141.62 77.7468C141.024 76.3835 140.028 75.2234 138.759 74.4129Z" fill="black"/>
<path d="M118.439 77.5539C112.439 82.6245 111.808 89.437 117.031 92.7763C122.253 96.1156 131.356 94.7059 137.356 89.63C143.357 84.5541 143.987 77.7469 138.759 74.413C133.531 71.079 124.44 72.4834 118.439 77.5539ZM134.172 87.5985C130.194 90.9646 124.16 91.8865 120.692 89.6782C117.223 87.4699 117.645 82.9514 121.623 79.5853C125.602 76.2193 131.641 75.2973 135.104 77.5003C138.567 79.7033 138.151 84.2378 134.172 87.5985Z" fill="#BA68C8"/>
<path opacity="0.5" d="M137.301 88.8313C140.294 86.1513 141.872 82.9674 141.631 80.057C141.544 79.015 141.207 78.0078 140.646 77.118C140.085 76.2282 139.316 75.4812 138.403 74.9382C133.416 71.7543 124.648 73.1426 118.861 78.0309L118.494 78.3525C115.502 81.0325 113.924 84.2217 114.165 87.1322C114.251 88.1728 114.588 89.1788 115.148 90.0676C115.708 90.9564 116.475 91.7028 117.387 92.2456C122.379 95.4294 131.147 94.0466 136.934 89.1529L137.301 88.8313ZM121.201 79.1082C125.377 75.576 131.772 74.6166 135.449 76.9642C136.19 77.4149 136.813 78.0285 137.269 78.7562C137.724 79.4839 138 80.3055 138.074 81.1558C138.26 83.4123 137.088 85.8511 134.857 87.8397L134.589 88.0702C130.413 91.6024 124.018 92.5565 120.341 90.2142C119.6 89.7643 118.978 89.1516 118.522 88.4249C118.066 87.6982 117.79 86.8774 117.716 86.028C117.53 83.7714 118.702 81.3326 120.938 79.3441C121.02 79.2583 121.108 79.1833 121.201 79.1082Z" fill="white"/>
<path d="M136.868 88.365C139.707 85.8297 141.209 82.8228 140.989 80.1052C140.909 79.1605 140.601 78.2478 140.09 77.4419C139.58 76.636 138.881 75.9599 138.052 75.4688C133.285 72.4297 124.867 73.7912 119.283 78.508L118.932 78.8188C116.088 81.3541 114.581 84.3664 114.806 87.084C114.887 88.0272 115.195 88.9383 115.705 89.7431C116.214 90.5479 116.911 91.2235 117.738 91.715C122.505 94.7595 130.928 93.3927 136.512 88.6759L136.868 88.365ZM120.779 78.6259C125.163 74.9275 131.898 73.9466 135.811 76.439C136.635 76.9429 137.327 77.6277 137.833 78.439C138.339 79.2504 138.645 80.1659 138.726 81.1129C138.929 83.5678 137.68 86.1888 135.296 88.3114C135.208 88.3972 135.115 88.4776 135.022 88.5526C130.638 92.2564 123.897 93.2372 119.985 90.7395C119.16 90.238 118.467 89.5544 117.962 88.7436C117.457 87.9328 117.153 87.0174 117.075 86.0709C116.872 83.616 118.121 80.995 120.5 78.8671L120.779 78.6259Z" fill="white"/>
<path d="M127.953 211.945L120.938 211.297L125.667 194.391L132.682 195.04L127.953 211.945Z" fill="#CE7A63"/>
<path d="M112.34 216.099C116.603 214.775 116.428 212.931 120.631 209.442C121.052 209.056 121.584 208.805 122.155 208.724L129.131 208.113C129.264 208.112 129.393 208.158 129.493 208.242C129.594 208.327 129.66 208.445 129.679 208.574L130.775 213.285C131.153 214.893 130.15 216.501 128.709 216.598C126.38 216.732 123.53 216.871 120.993 217.096C117.294 217.423 117.294 219.24 112.932 219.138C110.301 219.069 110.893 216.544 112.34 216.099Z" fill="#263238"/>
<path d="M169.781 137.57C169.781 137.57 130.292 136.407 129.958 150.091C129.41 172.721 122.286 205.095 122.286 205.095L130.095 205.824C130.095 205.824 141.872 180.032 144.984 157.922C159.052 158.817 172.023 158.2 182.407 158.2C194.052 158.2 195.011 145.696 183.679 131.106C176.752 131.084 169.781 137.57 169.781 137.57Z" fill="#BA68C8"/>
<path opacity="0.4" d="M169.781 137.57C169.781 137.57 130.292 136.407 129.958 150.091C129.41 172.721 122.286 205.095 122.286 205.095L130.095 205.824C130.095 205.824 141.872 180.032 144.984 157.922C159.052 158.817 172.023 158.2 182.407 158.2C194.052 158.2 195.011 145.696 183.679 131.106C176.752 131.084 169.781 137.57 169.781 137.57Z" fill="black"/>
<path d="M121.557 205.572L130.451 206.58L132.452 201.649L122.314 198.486L121.557 205.572Z" fill="#BA68C8"/>
<path d="M183.24 71.4381C182.517 75.7261 181.909 83.5142 185.032 86.2639C185.032 86.2639 177.404 90.166 172.428 96.9839C167.08 92.8406 171.557 86.6552 171.557 86.6552C176.363 85.3848 176.133 81.874 175.19 78.6151L183.24 71.4381Z" fill="#CE7A63"/>
<path d="M185.772 100.661C184.534 102.14 183.295 103.464 182.007 104.82C180.719 106.176 179.399 107.468 178.04 108.749C175.269 111.385 172.257 113.768 169.042 115.867C168.62 116.135 168.187 116.403 167.743 116.644C167.524 116.773 167.293 116.891 167.063 117.014L166.718 117.196C166.718 117.196 166.477 117.325 166.302 117.4C166.123 117.474 165.94 117.537 165.754 117.588C165.197 117.748 164.618 117.819 164.038 117.797C163.629 117.777 163.223 117.727 162.822 117.647C162.203 117.511 161.598 117.323 161.013 117.084C159.146 116.284 157.372 115.292 155.72 114.125C152.64 111.995 149.748 109.618 147.072 107.018L149.33 104.204C152.426 105.978 155.577 107.779 158.679 109.333C159.452 109.719 160.23 110.084 160.986 110.405C161.696 110.723 162.429 110.99 163.178 111.204C163.448 111.282 163.725 111.336 164.005 111.365C164.093 111.365 164.159 111.365 164.148 111.365C164.024 111.347 163.898 111.36 163.781 111.402C163.708 111.422 163.636 111.447 163.567 111.477C163.496 111.477 163.359 111.579 163.452 111.526L163.704 111.37C163.868 111.263 164.033 111.166 164.197 111.048C164.532 110.834 164.86 110.604 165.195 110.362C167.926 108.302 170.499 106.048 172.894 103.62C174.143 102.397 175.355 101.127 176.577 99.8675C177.799 98.6079 178.988 97.2733 180.117 96.0298L185.772 100.661Z" fill="#CE7A63"/>
<path d="M187.038 88.0166C180.725 89.7908 174.982 99.4656 174.982 99.4656L183.788 106.005C183.788 106.005 192.671 101.224 192.518 97.268C192.348 93.1462 190.452 87.0572 187.038 88.0166Z" fill="#BA68C8"/>
<path d="M141.17 100.5L144.349 100.532C145.145 100.538 145.917 100.804 146.541 101.288L148.946 103.11C150.479 104.272 151.543 105.925 151.949 107.779C150.125 109.923 145.921 107.72 145.921 107.72L142.085 107.307C141.783 107.277 141.496 107.159 141.263 106.968C141.029 106.777 140.86 106.522 140.776 106.235L139.68 102.419C139.613 102.194 139.601 101.957 139.645 101.727C139.689 101.496 139.787 101.279 139.932 101.093C140.076 100.906 140.264 100.756 140.479 100.653C140.694 100.55 140.931 100.498 141.17 100.5Z" fill="#CE7A63"/>
<path d="M158.701 97.8523C159.167 104.032 160.569 114.436 164.033 131.947L193.751 131.084C192.973 120.364 194.151 112.351 196.836 93.5643C196.952 92.7517 196.9 91.9245 196.682 91.1323C196.464 90.34 196.084 89.5989 195.567 88.9534C195.049 88.3079 194.403 87.7711 193.669 87.3753C192.934 86.9795 192.125 86.7328 191.29 86.6499C189.383 86.4569 187.213 86.2961 185.032 86.2586C180.023 86.1675 175.919 86.1299 171.535 86.6499C170.088 86.8214 168.592 87.0465 167.151 87.2823C164.651 87.7019 162.401 89.017 160.839 90.9711C159.277 92.9252 158.514 95.3784 158.701 97.8523Z" fill="#BA68C8"/>
<path d="M186.813 87.1215C184.846 83.734 189.553 82.9568 184.331 82.93C179.108 82.9032 171.398 80.25 170.91 82.9568C170.423 85.6636 166.565 85.7386 167.562 87.2448C171.453 86.5158 172.094 86.5212 176.407 87.9362C180.719 89.3512 188.161 89.4424 186.813 87.1215Z" fill="#BA68C8"/>
<path opacity="0.4" d="M186.813 87.1215C184.846 83.734 189.553 82.9568 184.331 82.93C179.108 82.9032 171.398 80.25 170.91 82.9568C170.423 85.6636 166.565 85.7386 167.562 87.2448C171.453 86.5158 172.094 86.5212 176.407 87.9362C180.719 89.3512 188.161 89.4424 186.813 87.1215Z" fill="white"/>
<path d="M169.517 62.8165C169.698 62.2671 169.546 61.7275 169.177 61.6112C168.808 61.495 168.362 61.8461 168.181 62.3955C168 62.9449 168.152 63.4845 168.521 63.6008C168.89 63.7171 169.335 63.3659 169.517 62.8165Z" fill="#263238"/>
<path d="M169.332 61.6829L168.11 60.8789C168.11 60.8789 168.45 62.1278 169.332 61.6829Z" fill="#263238"/>
<path d="M169.135 63.6447C169.135 63.6447 167.398 65.7083 165.973 66.523C166.493 67.4342 167.858 67.5199 167.858 67.5199L169.135 63.6447Z" fill="#BA4D3C"/>
<path d="M170.428 57.888C170.405 57.8328 170.397 57.7727 170.405 57.7136C170.413 57.6545 170.436 57.5983 170.472 57.5504C170.526 57.4787 170.608 57.4311 170.698 57.4181C170.789 57.405 170.881 57.4275 170.954 57.4807C171.405 57.7906 171.773 58.2014 172.028 58.6787C172.284 59.1561 172.419 59.6862 172.423 60.225C172.426 60.2732 172.418 60.3215 172.4 60.3666C172.383 60.4118 172.356 60.4528 172.321 60.4869C172.286 60.5211 172.244 60.5477 172.198 60.565C172.152 60.5823 172.103 60.5898 172.053 60.5872C172.004 60.5845 171.956 60.5717 171.912 60.5496C171.868 60.5275 171.829 60.4965 171.799 60.4588C171.768 60.4211 171.745 60.3774 171.733 60.3306C171.721 60.2839 171.719 60.2351 171.727 60.1875C171.717 59.7641 171.604 59.349 171.398 58.9763C171.193 58.6036 170.9 58.2839 170.543 58.0435C170.492 58.0015 170.453 57.9482 170.428 57.888Z" fill="#263238"/>
<path d="M189.383 66.4641C186.736 73.0837 185.756 75.9406 181.13 78.3043C174.165 81.8634 166.439 77.2323 167.008 69.9803C167.529 63.4464 171.771 53.718 179.415 53.166C181.099 53.0351 182.789 53.3275 184.325 54.0154C185.861 54.7033 187.192 55.7639 188.19 57.0964C189.189 58.4288 189.823 59.989 190.032 61.6286C190.241 63.2681 190.017 64.9327 189.383 66.4641Z" fill="#CE7A63"/>
<path d="M175.185 58.735C170.998 59.3139 171.168 64.3147 172.56 65.167C176.774 63.0659 177.47 60.2787 175.185 58.735Z" fill="#263238"/>
<path d="M175.53 52.0349C168.444 55.1598 177.87 68.3401 172.204 71.4381C171.209 72.0489 170.016 72.2711 168.861 72.0606C167.707 71.85 166.676 71.2222 165.973 70.3018C165.973 70.3018 164.877 73.5178 167.135 75.4153C169.727 77.6021 173.48 77.0233 173.48 77.0233C173.48 77.0233 183.344 83.2569 188.682 80.1481C198.853 74.2146 195.225 64.9633 192.814 63.8752C195.8 60.895 189.4 48.8725 175.53 52.0349Z" fill="#263238"/>
<path d="M170.132 72.2636C167.145 72.2636 166.395 69.2674 166.384 69.2352C166.38 69.1965 166.392 69.158 166.415 69.1266C166.439 69.0953 166.473 69.0734 166.512 69.0649C166.55 69.0564 166.591 69.0619 166.626 69.0804C166.661 69.0989 166.688 69.1292 166.702 69.1656C166.734 69.3049 167.573 72.6174 171.195 71.8456C173.026 71.4436 173.858 68.8708 173.464 66.8179C173.455 66.7959 173.452 66.7723 173.453 66.7488C173.455 66.7253 173.462 66.7025 173.474 66.6819C173.485 66.6614 173.502 66.6435 173.521 66.6298C173.541 66.616 173.563 66.6066 173.587 66.6022C173.61 66.5978 173.635 66.5985 173.658 66.6044C173.681 66.6102 173.703 66.621 173.722 66.6359C173.74 66.6509 173.755 66.6696 173.766 66.6909C173.776 66.7122 173.782 66.7354 173.782 66.7589C174.154 68.7046 173.491 71.6633 171.266 72.1511C170.894 72.2299 170.513 72.2677 170.132 72.2636Z" fill="#263238"/>
<path d="M176.04 66.314C175.359 67.6237 174.177 68.6176 172.752 69.0797C170.845 69.6693 169.825 68.0077 170.297 66.2282C170.718 64.6202 172.22 62.3583 174.133 62.5512C176.045 62.7442 176.862 64.6952 176.04 66.314Z" fill="#CE7A63"/>
<path d="M171.234 74.7399C169.836 74.7399 168.702 73.2552 168.702 71.4381C168.702 69.6211 169.836 68.1364 171.234 68.1364C172.631 68.1364 173.765 69.6157 173.765 71.4381C173.765 73.2605 172.62 74.7399 171.234 74.7399ZM171.234 68.4097C169.99 68.4097 168.981 69.7658 168.981 71.4381C168.981 73.1104 169.99 74.4665 171.234 74.4665C172.478 74.4665 173.486 73.1051 173.486 71.4381C173.486 69.7712 172.472 68.4097 171.234 68.4097Z" fill="white"/>
<path d="M101.84 190.2L97.0837 186.158L105.041 174.339L110.992 179.855L101.84 190.2Z" fill="#CE7A63"/>
<path d="M98.3605 183.655L104.027 188.795C104.135 188.895 104.203 189.028 104.221 189.172C104.239 189.316 104.206 189.461 104.125 189.583L101.385 193.651C100.448 195.061 98.5578 195.125 97.1988 194.096C95.341 192.692 94.2998 190.226 92.0969 188.2C88.8966 185.263 88.3212 185.343 86.3319 181.232C84.9893 178.472 87.9211 178.461 88.9514 179.313C91.5489 181.457 90.5296 181.559 96.5686 182.814C97.2342 182.926 97.8546 183.217 98.3605 183.655Z" fill="#263238"/>
<path d="M174.396 131.438C174.396 131.438 126.281 124.47 121.3 136.541C112.63 157.53 100.087 181.168 100.087 181.168L105.764 186.249C105.764 186.249 127.311 167.366 134.775 146.28C143.686 149.099 172.039 158.179 182.451 158.179C193.548 158.179 198.08 148.928 194.069 133.566C193.893 132.9 193.495 132.311 192.938 131.892C192.381 131.472 191.697 131.246 190.994 131.25C183.964 131.288 174.396 131.438 174.396 131.438Z" fill="#BA68C8"/>
<path opacity="0.3" d="M174.396 131.438C174.396 131.438 126.281 124.47 121.3 136.541C112.63 157.53 100.087 181.168 100.087 181.168L105.764 186.249C105.764 186.249 127.311 167.366 134.775 146.28C143.686 149.099 172.039 158.179 182.451 158.179C193.548 158.179 198.08 148.928 194.069 133.566C193.893 132.9 193.495 132.311 192.938 131.892C192.381 131.472 191.697 131.246 190.994 131.25C183.964 131.288 174.396 131.438 174.396 131.438Z" fill="black"/>
<path d="M99.2976 181.05L105.874 186.989L109.973 183.65L102.569 174.65L99.2976 181.05Z" fill="#BA68C8"/>
<path d="M194.145 129.364L194.984 131.942C195.093 132.14 194.858 132.354 194.513 132.365L163.923 133.255C163.655 133.255 163.43 133.142 163.408 132.976L163.063 130.382C163.035 130.2 163.266 130.044 163.556 130.034L193.652 129.176C193.744 129.164 193.837 129.175 193.924 129.208C194.01 129.241 194.086 129.294 194.145 129.364Z" fill="white"/>
<path d="M164.362 99.4656L164.121 100.168L163.885 100.806C163.726 101.224 163.551 101.631 163.375 102.038C163.01 102.853 162.645 103.657 162.279 104.45C161.475 106.05 160.56 107.594 159.539 109.071C158.499 110.607 157.312 112.042 155.994 113.359C154.62 114.759 153.047 115.959 151.325 116.923L150.99 117.111L150.821 117.196L150.738 117.245L150.508 117.357C149.949 117.615 149.344 117.768 148.727 117.808C147.964 117.848 147.2 117.766 146.464 117.566C145.454 117.278 144.477 116.888 143.549 116.403C141.961 115.572 140.435 114.632 138.984 113.589C136.207 111.601 133.588 109.412 131.147 107.039L133.405 104.225C136.249 105.833 139.104 107.495 141.948 108.942C143.309 109.659 144.708 110.301 146.141 110.866C146.715 111.099 147.314 111.268 147.927 111.37C148.135 111.408 148.3 111.37 148.146 111.37C147.944 111.375 147.745 111.424 147.565 111.515L147.478 111.558L147.527 111.526L147.626 111.456L147.828 111.322C148.376 110.957 148.893 110.55 149.374 110.105C149.888 109.647 150.373 109.158 150.826 108.642C151.297 108.106 151.736 107.57 152.169 106.98C152.602 106.391 153.013 105.796 153.407 105.174C154.205 103.91 154.936 102.608 155.599 101.272C155.939 100.602 156.257 99.9158 156.553 99.2298L156.991 98.1953L157.199 97.6861L157.375 97.2358L164.362 99.4656Z" fill="#CE7A63"/>
<path d="M164.948 88.0166C158.635 89.7908 154.284 100.505 154.284 100.505L161.583 107.736C161.583 107.736 169.803 101.197 170.428 97.2841C171.234 92.251 168.368 87.0572 164.948 88.0166Z" fill="#BA68C8"/>
<path d="M125.213 100.5L128.391 100.532C129.187 100.538 129.959 100.804 130.583 101.288L132.989 103.11C134.521 104.272 135.585 105.925 135.992 107.779C134.167 109.923 129.964 107.72 129.964 107.72L126.128 107.307C125.825 107.277 125.538 107.159 125.305 106.968C125.071 106.777 124.902 106.522 124.818 106.235L123.722 102.419C123.655 102.194 123.643 101.957 123.687 101.727C123.731 101.496 123.829 101.279 123.974 101.093C124.119 100.906 124.306 100.756 124.521 100.653C124.736 100.55 124.973 100.498 125.213 100.5Z" fill="#CE7A63"/>
<path d="M136.134 155.199L156.207 154.422L161.463 124.181C164.175 108.61 177.952 95.9816 192.244 95.9816H200.502C214.794 95.9816 224.181 108.61 221.474 124.181L217.841 145.058C216.498 152.781 209.665 159.047 202.574 159.047H127.498C127.328 159.03 127.169 158.96 127.044 158.847C126.918 158.735 126.832 158.587 126.799 158.424C126.765 158.261 126.785 158.091 126.857 157.94C126.928 157.789 127.047 157.664 127.196 157.584C129.963 156.164 133.013 155.35 136.134 155.199Z" fill="#263238"/>
<path d="M132.512 223.105H133.816L139.252 168.642C139.702 164.123 142.71 160.714 146.245 160.714H156.958C160.498 160.714 163.496 164.123 163.951 168.642L169.381 223.105H170.691L165.211 168.433C164.663 163.073 161.123 159.053 156.936 159.053H146.245C142.058 159.053 138.502 163.089 137.97 168.433L132.512 223.105Z" fill="#263238"/>
<path d="M173.042 223.105H174.346L179.782 168.642C180.237 164.123 183.24 160.714 186.775 160.714H197.488C201.028 160.714 204.031 164.123 204.481 168.642L209.917 223.105H211.221L205.741 168.433C205.193 163.073 201.653 159.053 197.466 159.053H186.775C182.588 159.053 179.032 163.089 178.5 168.433L173.042 223.105Z" fill="#263238"/>
</svg>
