<svg width="64" height="64" viewBox="0 0 64 64" fill="none" xmlns="http://www.w3.org/2000/svg">
<path d="M30 63.2747L13.0293 46.304C9.67291 42.9475 7.38716 38.6711 6.46114 34.0156C5.53512 29.36 6.01042 24.5345 7.82693 20.1491C9.64344 15.7636 12.7196 12.0154 16.6664 9.37824C20.6131 6.74109 25.2533 5.33353 30 5.33353C34.7467 5.33353 39.3869 6.74109 43.3337 9.37824C47.2804 12.0154 50.3566 15.7636 52.1731 20.1491C53.9896 24.5345 54.4649 29.36 53.5389 34.0156C52.6129 38.6711 50.3271 42.9475 46.9707 46.304L30 63.2747ZM43.2 42.5333C45.8104 39.9227 47.588 36.5966 48.3081 32.9757C49.0282 29.3547 48.6585 25.6016 47.2456 22.1908C45.8327 18.78 43.4401 15.8648 40.3705 13.8138C37.3008 11.7627 33.6918 10.668 30 10.668C26.3082 10.668 22.6992 11.7627 19.6296 13.8138C16.5599 15.8648 14.1673 18.78 12.7544 22.1908C11.3416 25.6016 10.9718 29.3547 11.6919 32.9757C12.412 36.5966 14.1896 39.9227 16.8 42.5333L30 55.7333L43.2 42.5333ZM30 34.6667C28.5855 34.6667 27.229 34.1047 26.2288 33.1046C25.2286 32.1044 24.6667 30.7478 24.6667 29.3333C24.6667 27.9188 25.2286 26.5623 26.2288 25.5621C27.229 24.5619 28.5855 24 30 24C31.4145 24 32.7711 24.5619 33.7712 25.5621C34.7714 26.5623 35.3333 27.9188 35.3333 29.3333C35.3333 30.7478 34.7714 32.1044 33.7712 33.1046C32.7711 34.1047 31.4145 34.6667 30 34.6667Z" fill="black"/>
</svg>
