<svg width="64" height="64" viewBox="0 0 64 64" fill="none" xmlns="http://www.w3.org/2000/svg">
<path d="M20.8 5.33325H43.2C51.7333 5.33325 58.6666 12.2666 58.6666 20.7999V43.1999C58.6666 47.3019 57.0371 51.2359 54.1366 54.1365C51.236 57.0371 47.302 58.6666 43.2 58.6666H20.8C12.2666 58.6666 5.33331 51.7333 5.33331 43.1999V20.7999C5.33331 16.6979 6.96283 12.7639 9.8634 9.86333C12.764 6.96277 16.698 5.33325 20.8 5.33325ZM20.2666 10.6666C17.7206 10.6666 15.2788 11.678 13.4784 13.4784C11.6781 15.2787 10.6666 17.7205 10.6666 20.2666V43.7333C10.6666 49.0399 14.96 53.3333 20.2666 53.3333H43.7333C46.2794 53.3333 48.7212 52.3218 50.5215 50.5215C52.3219 48.7211 53.3333 46.2793 53.3333 43.7333V20.2666C53.3333 14.9599 49.04 10.6666 43.7333 10.6666H20.2666ZM46 14.6666C46.884 14.6666 47.7319 15.0178 48.357 15.6429C48.9821 16.268 49.3333 17.1159 49.3333 17.9999C49.3333 18.884 48.9821 19.7318 48.357 20.3569C47.7319 20.9821 46.884 21.3333 46 21.3333C45.1159 21.3333 44.2681 20.9821 43.643 20.3569C43.0178 19.7318 42.6666 18.884 42.6666 17.9999C42.6666 17.1159 43.0178 16.268 43.643 15.6429C44.2681 15.0178 45.1159 14.6666 46 14.6666ZM32 18.6666C35.5362 18.6666 38.9276 20.0713 41.4281 22.5718C43.9286 25.0723 45.3333 28.4637 45.3333 31.9999C45.3333 35.5361 43.9286 38.9275 41.4281 41.428C38.9276 43.9285 35.5362 45.3333 32 45.3333C28.4638 45.3333 25.0724 43.9285 22.5719 41.428C20.0714 38.9275 18.6666 35.5361 18.6666 31.9999C18.6666 28.4637 20.0714 25.0723 22.5719 22.5718C25.0724 20.0713 28.4638 18.6666 32 18.6666ZM32 23.9999C29.8782 23.9999 27.8434 24.8428 26.3431 26.3431C24.8428 27.8434 24 29.8782 24 31.9999C24 34.1217 24.8428 36.1565 26.3431 37.6568C27.8434 39.1571 29.8782 39.9999 32 39.9999C34.1217 39.9999 36.1565 39.1571 37.6568 37.6568C39.1571 36.1565 40 34.1217 40 31.9999C40 29.8782 39.1571 27.8434 37.6568 26.3431C36.1565 24.8428 34.1217 23.9999 32 23.9999Z" fill="black"/>
</svg>
