<svg width="64" height="64" viewBox="0 0 64 64" fill="none" xmlns="http://www.w3.org/2000/svg">
<path d="M32.1067 5.33327C17.5467 5.33327 5.68001 17.1999 5.68001 31.7599C5.68001 36.4266 6.90668 40.9599 9.20001 44.9599L5.46667 58.6666L19.4667 54.9866C23.3333 57.0933 27.68 58.2133 32.1067 58.2133C46.6667 58.2133 58.5333 46.3466 58.5333 31.7866C58.5333 24.7199 55.7867 18.0799 50.8 13.0933C48.3549 10.6242 45.4427 8.66652 42.2334 7.33424C39.024 6.00196 35.5816 5.32176 32.1067 5.33327ZM32.1333 9.78661C38 9.78661 43.4933 12.0799 47.6533 16.2399C49.6944 18.2813 51.3126 20.7053 52.4154 23.3731C53.5182 26.0408 54.0839 28.8999 54.08 31.7866C54.08 43.8933 44.2133 53.7333 32.1067 53.7333C28.16 53.7333 24.2933 52.6933 20.9333 50.6666L20.1333 50.2133L11.8133 52.3999L14.0267 44.2933L13.4933 43.4399C11.2921 39.9423 10.1271 35.8926 10.1333 31.7599C10.16 19.6533 20 9.78661 32.1333 9.78661ZM22.7467 19.5466C22.32 19.5466 21.6 19.7066 20.9867 20.3733C20.4 21.0399 18.6667 22.6666 18.6667 25.8933C18.6667 29.1466 21.04 32.2666 21.3333 32.7199C21.7067 33.1733 26.0267 39.8399 32.6667 42.6666C34.24 43.3866 35.4667 43.7866 36.4267 44.0799C38 44.5866 39.44 44.5066 40.5867 44.3466C41.8667 44.1599 44.48 42.7466 45.04 41.1999C45.6 39.6533 45.6 38.3466 45.44 38.0533C45.2533 37.7866 44.8267 37.6266 44.16 37.3333C43.4933 36.9599 40.24 35.3599 39.6533 35.1466C39.04 34.9333 38.6667 34.8266 38.16 35.4666C37.7333 36.1333 36.4533 37.6266 36.08 38.0533C35.68 38.5066 35.3067 38.5599 34.6667 38.2399C33.9733 37.8933 31.84 37.1999 29.3333 34.9599C27.36 33.1999 26.0533 31.0399 25.6533 30.3733C25.3333 29.7333 25.6267 29.3333 25.9467 29.0399C26.24 28.7466 26.6667 28.2666 26.9333 27.8666C27.28 27.4933 27.3867 27.1999 27.6 26.7733C27.8133 26.3199 27.7067 25.9466 27.5467 25.6266C27.3867 25.3333 26.0533 22.0266 25.4933 20.7199C24.96 19.4399 24.4267 19.5999 24 19.5733C23.6267 19.5733 23.2 19.5466 22.7467 19.5466Z" fill="black"/>
</svg>
